<?xml version="1.0" standalone="no"?>
<!DOCTYPE svg PUBLIC "-//W3C//DTD SVG 1.1//EN" "http://www.w3.org/Graphics/SVG/1.1/DTD/svg11.dtd" >
<svg xmlns="http://www.w3.org/2000/svg" xmlns:xlink="http://www.w3.org/1999/xlink" version="1.1">
<metadata>
Created by FontForge 20161013 at Thu Apr 24 13:35:43 2014
 By ,,,
Core Rhino 85 Black
</metadata>
<defs>
<font id="CoreRhino85Black" horiz-adv-x="412" >
  <font-face 
    font-family="Core Rhino 85 Black"
    font-weight="400"
    font-stretch="normal"
    units-per-em="1000"
    panose-1="2 1 10 3 3 3 2 2 2 4"
    ascent="800"
    descent="-200"
    x-height="534"
    cap-height="700"
    bbox="-426 -283.057 1285 991"
    underline-thickness="24"
    underline-position="-255"
    unicode-range="U+0008-FB04"
  />
<missing-glyph horiz-adv-x="500" 
d="M430 0h-360v750h360v-750zM145 65h210v620h-210v-620z" />
    <glyph glyph-name="f_f" unicode="ff" horiz-adv-x="823" 
d="M296 556v-22h170v36q0 84 47 128t135 44q68 0 119.5 -25.5t51.5 -52.5q0 -38 -26 -71q-32 14 -81 14q-62 0 -62 -51v-22h122q31 0 31 -38v-102h-153v-394h-146q-38 0 -38 31v363h-170v-394h-146q-38 0 -38 31v363h-51q-37 0 -37 42q0 56 11 98h77v36q0 84 46.5 128
t131.5 44q64 0 109.5 -23.5t45.5 -50.5q0 -38 -26 -71q-26 10 -66 10q-57 0 -57 -51z" />
    <glyph glyph-name="f_i" unicode="fi" horiz-adv-x="727" 
d="M456 394h-160v-394h-146q-38 0 -38 31v363h-51q-37 0 -37 42q0 56 11 98h77v40q0 168 160 168q52 0 97.5 -24.5t45.5 -47.5q0 -35 -24 -69q-24 6 -50 6q-45 0 -45 -41v-32h313q31 0 31 -38v-324q0 -39 30 -39h27q10 -32 10 -60q0 -30 -32 -55t-80 -25q-59 0 -99 36.5
t-40 110.5v254zM549 586q-41 0 -70 23.5t-29 63.5t27 62t70 22q41 0 70 -23.5t29 -63.5t-27 -62t-70 -22z" />
    <glyph glyph-name="f_l" unicode="fl" horiz-adv-x="798" 
d="M471 698v24q60 15 135 15q49 0 49 -40v-490q0 -70 54 -70q33 0 58 11q23 -32 23 -79q0 -27 -41.5 -51.5t-100.5 -24.5q-83 0 -130 54t-47 157v389q-42 14 -98 14q-77 0 -77 -60v-13h97q31 0 31 -38v-102h-128v-394h-146q-38 0 -38 31v363h-51q-37 0 -37 42q0 56 11 98h77
v26q0 182 186 182q99 0 173 -44z" />
    <glyph glyph-name="f_f_i" unicode="ffi" horiz-adv-x="1081" 
d="M810 394h-160v-394h-146q-38 0 -38 31v363h-170v-394h-146q-38 0 -38 31v363h-51q-37 0 -37 42q0 56 11 98h77v36q0 84 46.5 128t131.5 44q64 0 109.5 -23.5t45.5 -50.5q0 -38 -26 -71q-26 10 -66 10q-57 0 -57 -51v-22h170v40q0 168 160 168q52 0 97.5 -24.5t45.5 -47.5
q0 -35 -24 -69q-24 6 -50 6q-45 0 -45 -41v-32h313q31 0 31 -38v-324q0 -39 30 -39h27q10 -32 10 -60q0 -30 -32 -55t-80 -25q-59 0 -99 36.5t-40 110.5v254zM903 586q-41 0 -70 23.5t-29 63.5t27 62t70 22q41 0 70 -23.5t29 -63.5t-27 -62t-70 -22z" />
    <glyph glyph-name="f_f_l" unicode="ffl" horiz-adv-x="1152" 
d="M825 698v24q60 15 135 15q49 0 49 -40v-490q0 -70 54 -70q33 0 58 11q23 -32 23 -79q0 -27 -41.5 -51.5t-100.5 -24.5q-83 0 -130 54t-47 157v389q-42 14 -98 14q-77 0 -77 -60v-13h97q31 0 31 -38v-102h-128v-394h-146q-38 0 -38 31v363h-170v-394h-146q-38 0 -38 31
v363h-51q-37 0 -37 42q0 56 11 98h77v36q0 84 46.5 128t131.5 44q64 0 109.5 -23.5t45.5 -50.5q0 -38 -26 -71q-26 10 -66 10q-57 0 -57 -51v-22h170v26q0 182 186 182q99 0 173 -44z" />
    <glyph glyph-name=".notdef" horiz-adv-x="500" 
d="M430 0h-360v750h360v-750zM145 65h210v620h-210v-620z" />
    <glyph glyph-name=".null" horiz-adv-x="0" 
 />
    <glyph glyph-name=".null" horiz-adv-x="0" 
 />
    <glyph glyph-name=".null" horiz-adv-x="0" 
 />
    <glyph glyph-name="nonmarkingreturn" horiz-adv-x="333" 
 />
    <glyph glyph-name="CR" unicode="&#x9;" horiz-adv-x="237" 
 />
    <glyph glyph-name="CR" unicode="&#xd;" horiz-adv-x="237" 
 />
    <glyph glyph-name="space" unicode=" " horiz-adv-x="300" 
 />
    <glyph glyph-name="exclam" unicode="!" horiz-adv-x="332" 
d="M167 -12q-41 0 -70 23.5t-29 63.5t27 62t70 22q41 0 70 -23.5t29 -63.5t-27 -62t-70 -22zM93 233q-24 171 -24 354v107q68 16 143 16q51 0 51 -41v-82q0 -179 -28 -385h-104q-33 0 -38 31z" />
    <glyph glyph-name="quotedbl" unicode="&#x22;" horiz-adv-x="587" 
d="M249 397h-119q-36 0 -38 31l-12 262q63 17 135 17q27 0 39.5 -10.5t10.5 -30.5zM490 397h-119q-36 0 -38 31l-12 262q63 17 135 17q27 0 39.5 -10.5t10.5 -30.5z" />
    <glyph glyph-name="numbersign" unicode="#" horiz-adv-x="732" 
d="M46 298h109l18 104h-63q-37 0 -37 42t10 94h113l27 158q52 11 108 11q45 0 39 -36l-23 -133h101l27 158q52 11 108 11q45 0 39 -36l-23 -133h66q31 0 31 -38v-98h-120l-18 -104h70q31 0 31 -38v-98h-124l-27 -162h-110q-20 0 -29 7.5t-7 22.5l22 132h-101l-27 -162h-110
q-20 0 -29 7.5t-7 22.5l22 132h-59q-37 0 -37 42t10 94zM324 402l-18 -104h101l18 104h-101z" />
    <glyph glyph-name="dollar" unicode="$" horiz-adv-x="615" 
d="M390 -112h-110q-38 0 -38 31v74q-73 11 -121.5 42t-48.5 62q0 47 30 86q80 -39 184 -39q91 0 91 46q0 43 -86 66q-243 68 -243 244q0 74 47.5 129.5t129.5 74.5v94q50 14 100 14q48 0 48 -36v-71q120 -23 175 -109q11 -18 11 -39q0 -31 -34 -48q-55 -27 -129 -32
q-23 79 -89 79q-29 0 -47 -15.5t-18 -39.5q0 -26 26 -45t91 -39q111 -34 161.5 -85.5t50.5 -132.5q0 -78 -46.5 -132t-134.5 -71v-108z" />
    <glyph glyph-name="percent" unicode="%" horiz-adv-x="926" 
d="M379 0h-87q-38 0 -26 30l281 670h87q38 0 26 -30zM410 520q0 -85 -53 -136.5t-132 -51.5t-132 51.5t-53 136.5t53 136.5t132 51.5t132 -51.5t53 -136.5zM268 517q0 36 -13 55t-33 19q-17 0 -28.5 -17.5t-11.5 -50.5q0 -36 13 -55t33 -19q17 0 28.5 17.5t11.5 50.5z
M886 180q0 -85 -53 -136.5t-132 -51.5t-132 51.5t-53 136.5t53 136.5t132 51.5t132 -51.5t53 -136.5zM744 177q0 36 -13 55t-33 19q-17 0 -28.5 -17.5t-11.5 -50.5q0 -36 13 -55t33 -19q17 0 28.5 17.5t11.5 50.5z" />
    <glyph glyph-name="ampersand" unicode="&#x26;" horiz-adv-x="774" 
d="M700 360q0 -35 -18 -88.5t-52 -104.5l9 -6q32 -21 87 -21h19q13 -34 13 -76q0 -28 -33 -52t-82 -24q-65 0 -140 54q-91 -54 -202 -54q-110 0 -185.5 52t-75.5 139q0 57 35 101.5t100 70.5q-65 93 -65 169q0 86 61.5 139t162.5 53q91 0 149.5 -50t58.5 -126
q0 -57 -41.5 -105t-105.5 -73q55 -57 126 -113q58 76 89 188q45 -2 72 -22q18 -13 18 -51zM378 141q-77 61 -132 125q-22 -27 -22 -58q0 -33 27.5 -53.5t72.5 -20.5q29 0 54 7zM288 531q0 -41 35 -90q51 41 51 91q0 21 -12.5 35t-30.5 14t-30.5 -13.5t-12.5 -36.5z" />
    <glyph glyph-name="quotesingle" unicode="'" horiz-adv-x="330" 
d="M241 397h-119q-36 0 -38 31l-12 262q63 17 135 17q27 0 39.5 -10.5t10.5 -30.5z" />
    <glyph glyph-name="parenleft" unicode="(" horiz-adv-x="394" 
d="M80 310q0 118 35.5 226t98.5 185q28 33 57 33q45 0 83 -69q-45 -85 -71.5 -184.5t-26.5 -190.5t26.5 -190.5t71.5 -184.5q-38 -69 -83 -69q-29 0 -57 33q-63 77 -98.5 185t-35.5 226z" />
    <glyph glyph-name="parenright" unicode=")" horiz-adv-x="394" 
d="M314 310q0 -118 -35.5 -226t-98.5 -185q-28 -33 -57 -33q-45 0 -83 69q45 85 71.5 184.5t26.5 190.5t-26.5 190.5t-71.5 184.5q38 69 83 69q29 0 57 -33q63 -77 98.5 -185t35.5 -226z" />
    <glyph glyph-name="asterisk" unicode="*" horiz-adv-x="589" 
d="M69 437q15 49 47 34l129 -79l-37 165q49 17 117 17q28 0 39 -8t9 -26l-35 -146l145 85q30 -41 52 -106q16 -49 -18 -56l-148 -12l125 -111q-31 -42 -85 -82q-41 -31 -59 0l-57 137l-67 -154q-52 18 -105 56q-42 29 -18 56l112 96l-167 17q2 58 21 117z" />
    <glyph glyph-name="plus" unicode="+" horiz-adv-x="626" 
d="M398 80h-132q-38 0 -38 31v154h-127q-37 0 -37 39q0 50 13 95h151v168q54 17 120 17q27 0 38.5 -9.5t11.5 -30.5v-145h126q38 0 38 -31v-103h-164v-185z" />
    <glyph glyph-name="comma" unicode="," horiz-adv-x="340" 
d="M167 180q39 0 68 -27.5t29 -72.5q0 -93 -59 -163q-27 -31 -56.5 -47.5t-40.5 -10.5q-22 11 -29 40q50 45 61 95q-28 9 -46 34t-18 60q0 42 25.5 67t65.5 25z" />
    <glyph glyph-name="hyphen" unicode="-" horiz-adv-x="442" 
d="M374 262h-269q-37 0 -37 39q0 56 13 101h255q38 0 38 -31v-109z" />
    <glyph glyph-name="period" unicode="." horiz-adv-x="340" 
d="M167 180q39 0 68 -27.5t29 -72.5q0 -42 -25.5 -67t-65.5 -25q-39 0 -68 27.5t-29 72.5q0 42 25.5 67t65.5 25z" />
    <glyph glyph-name="slash" unicode="/" horiz-adv-x="571" 
d="M161 -110h-132q-47 0 -28 40l409 823h132q47 0 28 -40z" />
    <glyph glyph-name="zero" unicode="0" horiz-adv-x="680" 
d="M340 712q136 0 214 -95t78 -267t-78 -267t-214 -95t-214 95t-78 267t78 267t214 95zM344 142q47 0 71.5 46.5t24.5 155.5q0 214 -104 214q-47 0 -71.5 -46.5t-24.5 -155.5q0 -214 104 -214z" />
    <glyph glyph-name="one" unicode="1" horiz-adv-x="680" 
d="M296 489l-98 -60q-49 34 -78 74q-14 20 -14 36q0 22 30 40l204 121h119q31 0 31 -38v-662h-156q-38 0 -38 31v458z" />
    <glyph glyph-name="two" unicode="2" horiz-adv-x="680" 
d="M88 110q131 68 222 161.5t91 191.5q0 84 -70 84q-65 0 -94 -96q-74 5 -129 32q-34 17 -34 48q0 21 10 42q32 62 96 100.5t152 38.5q122 0 192.5 -67.5t70.5 -180.5q0 -81 -48 -163t-133 -145h155q31 0 31 -38v-118h-427q-42 0 -59 30q-19 34 -26 80z" />
    <glyph glyph-name="three" unicode="3" horiz-adv-x="680" 
d="M291 289q-44 3 -59 30q-20 35 -26 89l123 136h-208q-37 0 -37 42q0 52 12 114h397q42 0 59 -30q19 -34 26 -80l-168 -180q89 -19 139 -70t50 -129q0 -94 -74.5 -158.5t-200.5 -64.5q-101 0 -177 38t-76 77q0 47 30 86q91 -45 192 -45q112 0 112 73q0 64 -114 72z" />
    <glyph glyph-name="four" unicode="4" horiz-adv-x="680" 
d="M365 271v204q-33 -38 -68 -96t-53 -108h121zM46 226q34 123 118.5 248t187.5 206q65 27 159 27q48 0 48 -35v-401h54q31 0 31 -38v-117h-85v-116h-156q-38 0 -38 31v85h-234q-42 0 -59 30q-19 34 -26 80z" />
    <glyph glyph-name="five" unicode="5" horiz-adv-x="680" 
d="M294 144q114 0 114 84t-114 84q-50 0 -94 -9q-15 -3 -27 -3q-25 0 -43 17l-28 25l46 358h399q31 0 31 -38v-118h-263l-12 -87q30 7 63 7q101 0 168.5 -59.5t67.5 -170.5t-73 -178.5t-204 -67.5q-101 0 -177.5 38t-76.5 77q0 47 30 86q92 -45 193 -45z" />
    <glyph glyph-name="six" unicode="6" horiz-adv-x="680" 
d="M447 485q-9 34 -31.5 52t-50.5 18q-44 0 -74.5 -36t-38.5 -111q48 42 133 42q104 0 175.5 -65.5t71.5 -163.5q0 -105 -71.5 -169t-195.5 -64q-141 0 -225.5 93t-84.5 251v16q0 171 83 267.5t228 96.5q74 0 133.5 -27t90.5 -73q14 -22 14 -41q0 -30 -31 -48
q-55 -31 -126 -38zM340 305q-53 0 -89 -24q7 -64 38.5 -100.5t75.5 -36.5q31 0 52 20t21 54q0 40 -27 63.5t-71 23.5z" />
    <glyph glyph-name="seven" unicode="7" horiz-adv-x="680" 
d="M373 0h-147q-61 0 -44 51q62 254 206 493h-280q-37 0 -37 42q0 52 12 114h444q42 0 59 -30q19 -34 26 -80q-169 -292 -239 -590z" />
    <glyph glyph-name="eight" unicode="8" horiz-adv-x="680" 
d="M77 507q0 87 69 146t188 59q117 0 189 -57t72 -137q0 -45 -24 -81.5t-62 -54.5q57 -28 88.5 -74t31.5 -105q0 -94 -76 -154.5t-211 -60.5q-130 0 -210.5 56t-80.5 146q0 52 32 95t85 65q-42 25 -66.5 67t-24.5 90zM245 200q0 -29 27.5 -47.5t71.5 -18.5q42 0 66.5 16.5
t24.5 41.5q0 27 -29 47.5t-107 45.5q-54 -35 -54 -85zM401 509q0 27 -18.5 42t-49.5 15q-27 0 -44.5 -14t-17.5 -37t20 -40t74 -36q36 29 36 70z" />
    <glyph glyph-name="nine" unicode="9" horiz-adv-x="680" 
d="M302 250q-104 0 -175.5 65.5t-71.5 163.5q0 105 71.5 169t195.5 64q141 0 225.5 -93t84.5 -251v-26q0 -167 -85 -260.5t-226 -93.5q-87 0 -155.5 36.5t-68.5 74.5q0 47 30 86q71 -41 162 -41q69 0 108 40t41 110q-50 -44 -136 -44zM322 556q-31 0 -52 -20t-21 -54
q0 -40 27 -63.5t71 -23.5q54 0 88 23q-8 67 -38 102.5t-75 35.5z" />
    <glyph glyph-name="colon" unicode=":" horiz-adv-x="340" 
d="M167 180q39 0 68 -27.5t29 -72.5q0 -42 -25.5 -67t-65.5 -25q-39 0 -68 27.5t-29 72.5q0 42 25.5 67t65.5 25zM167 546q39 0 68 -27.5t29 -72.5q0 -42 -25.5 -67t-65.5 -25q-39 0 -68 27.5t-29 72.5q0 42 25.5 67t65.5 25z" />
    <glyph glyph-name="semicolon" unicode=";" horiz-adv-x="340" 
d="M167 180q-40 0 -65.5 -25t-25.5 -67q0 -35 18 -60t46 -34q-9 -53 -51 -95q6 -26 30 -40q11 -6 35.5 9.5t49.5 46.5q59 73 60 165q0 45 -29 72.5t-68 27.5zM167 546q39 0 68 -27.5t29 -72.5q0 -42 -25.5 -67t-65.5 -25q-39 0 -68 27.5t-29 72.5q0 42 25.5 67t65.5 25z" />
    <glyph glyph-name="less" unicode="&#x3c;" horiz-adv-x="626" 
d="M64 389l444 194q54 23 54 -40q0 -55 -12 -105l-266 -114l243 -104q21 -9 28 -19t7 -29v-130l-463 202q-35 15 -35 48v97z" />
    <glyph glyph-name="equal" unicode="=" horiz-adv-x="626" 
d="M562 385h-461q-37 0 -37 39q0 50 13 95h447q38 0 38 -31v-103zM562 145h-461q-37 0 -37 39q0 50 13 95h447q38 0 38 -31v-103z" />
    <glyph glyph-name="greater" unicode="&#x3e;" horiz-adv-x="626" 
d="M118 583l444 -194v-97q0 -33 -35 -48l-463 -202v130q0 19 7 29t28 19l243 104l-266 114q-12 50 -12 105q0 63 54 40z" />
    <glyph glyph-name="question" unicode="?" horiz-adv-x="578" 
d="M367 202h-156q-38 0 -38 31v19q0 49 25.5 86.5t77.5 74.5q60 42 60 89q0 25 -15 39.5t-40 14.5q-29 0 -50 -25t-28 -73q-74 5 -129 32q-34 17 -34 48q0 21 10 42q27 58 90.5 95t148.5 37q108 0 174.5 -58t66.5 -151q0 -62 -31.5 -111t-92.5 -94q-22 -17 -30.5 -32
t-8.5 -39v-25zM271 -12q-41 0 -70 23.5t-29 63.5t27 62t70 22q41 0 70 -23.5t29 -63.5t-27 -62t-70 -22z" />
    <glyph glyph-name="at" unicode="@" horiz-adv-x="1020" 
d="M489 169q37 0 62 41l31 150q-15 14 -48 14q-37 0 -68.5 -38t-31.5 -96q0 -71 55 -71zM950 299q0 -112 -53 -182t-153 -70q-57 0 -102 23.5t-68 61.5q-45 -80 -145 -80q-70 0 -117 54t-47 132q0 123 77.5 192t190.5 69q72 0 129 -32t89 -84l-30 -155q-6 -31 10.5 -50
t44.5 -19q39 0 64 35.5t25 104.5q0 146 -98 241.5t-258 95.5q-148 0 -250.5 -102.5t-102.5 -257.5q0 -157 103.5 -259.5t264.5 -102.5q136 0 228 68q19 -14 23 -35q1 -8 -8.5 -21t-31 -28t-51 -28.5t-73.5 -22.5t-93 -9q-194 0 -321 125t-127 312t127 312t312 125
q193 0 317 -116t124 -297z" />
    <glyph glyph-name="A" unicode="A" horiz-adv-x="710" 
d="M701 0h-166q-37 0 -46 28l-26 83h-216l-33 -111h-162q-18 0 -26.5 9.5t-3.5 25.5l233 645q64 27 131 27q35 0 51 -11t27 -41zM355 466l-64 -209h128z" />
    <glyph glyph-name="B" unicode="B" horiz-adv-x="673" 
d="M434 215q0 31 -20 49.5t-56 18.5h-93v-36q0 -56 17.5 -78.5t57.5 -22.5h18q36 0 56 18.5t20 50.5zM411 488q0 29 -17.5 48t-52.5 19h-77v-134h77q35 0 52.5 19t17.5 48zM70 700h275q126 0 193 -51t67 -139q0 -50 -25.5 -90.5t-67.5 -58.5q53 -19 84.5 -60.5t31.5 -103.5
q0 -89 -68 -143t-198 -54h-66q-117 0 -171.5 59.5t-54.5 184.5v456z" />
    <glyph glyph-name="C" unicode="C" horiz-adv-x="710" 
d="M512 448q-38 108 -131 108q-65 0 -104 -49t-39 -137q0 -100 60.5 -163t161.5 -63q100 0 165 37q11 -15 20.5 -40.5t9.5 -43.5q0 -37 -73.5 -73t-164.5 -36q-161 0 -267 106t-106 273q0 154 95.5 249.5t244.5 95.5q99 0 172.5 -38t110.5 -102q11 -19 11 -39q0 -28 -34 -48
q-56 -32 -132 -37z" />
    <glyph glyph-name="D" unicode="D" horiz-adv-x="735" 
d="M340 0h-44q-117 0 -171.5 59.5t-54.5 184.5v456h280q150 0 245.5 -95t95.5 -255q0 -161 -97 -255.5t-254 -94.5zM497 350q0 97 -39.5 145.5t-111.5 48.5h-82v-287q0 -56 17.5 -78.5t57.5 -22.5h7q72 0 111.5 48.5t39.5 145.5z" />
    <glyph glyph-name="E" unicode="E" horiz-adv-x="591" 
d="M527 544h-263v-117h190q31 0 31 -38v-118h-221v-14q0 -57 14 -79t53 -22h185q31 0 31 -38v-118h-251q-117 0 -171.5 59.5t-54.5 184.5v456h432q37 0 37 -42q0 -52 -12 -114z" />
    <glyph glyph-name="F" unicode="F" horiz-adv-x="568" 
d="M72 700h431q37 0 37 -42q0 -52 -12 -114h-262v-151h189q31 0 31 -38v-118h-220v-237h-156q-38 0 -38 31v669z" />
    <glyph glyph-name="G" unicode="G" horiz-adv-x="765" 
d="M395 386h242q35 0 51.5 -15t16.5 -48v-119q0 -92 -76.5 -154t-216.5 -62q-156 0 -262 105t-106 274q0 156 97.5 250.5t252.5 94.5q98 0 173 -39.5t114 -99.5q11 -17 11 -37q0 -26 -34 -46q-56 -32 -132 -37q-45 103 -138 103q-68 0 -109 -48t-41 -138q0 -101 55.5 -163.5
t131.5 -62.5q46 0 66 16t20 53v37h-89q-39 0 -39 44q0 46 12 92z" />
    <glyph glyph-name="H" unicode="H" horiz-adv-x="729" 
d="M266 669v-240h197v271h156q38 0 38 -31v-669h-156q-38 0 -38 31v242h-197v-273h-156q-38 0 -38 31v663q68 16 143 16q51 0 51 -41z" />
    <glyph glyph-name="I" unicode="I" horiz-adv-x="346" 
d="M270 669v-669h-156q-38 0 -38 31v663q68 16 143 16q51 0 51 -41z" />
    <glyph glyph-name="J" unicode="J" horiz-adv-x="490" 
d="M422 669v-430q0 -123 -56 -187t-167 -64q-73 0 -130 27t-57 60q0 47 26 87q50 -18 99 -18q91 0 91 103v447q68 16 143 16q51 0 51 -41z" />
    <glyph glyph-name="K" unicode="K" horiz-adv-x="701" 
d="M636 564q-60 -96 -163 -187q61 -136 127 -207q27 -30 64 -30h14q13 -34 13 -76q0 -28 -35.5 -52t-81.5 -24q-52 0 -88 23.5t-69 70.5q-51 71 -93 182q-12 -8 -33.5 -21t-24.5 -15v-228h-156q-38 0 -38 31v663q68 16 143 16q51 0 51 -41v-238q143 113 245 281
q80 -23 110.5 -47.5t30.5 -56.5q0 -18 -16 -44z" />
    <glyph glyph-name="L" unicode="L" horiz-adv-x="572" 
d="M70 244v450q68 16 143 16q51 0 51 -41v-412q0 -57 14 -79t53 -22h188q31 0 31 -38v-118h-254q-117 0 -171.5 59.5t-54.5 184.5z" />
    <glyph glyph-name="M" unicode="M" horiz-adv-x="911" 
d="M613 700h135q35 0 38 -28l73 -672h-160q-39 0 -42 33l-33 385l-96 -194q-13 -24 -50 -24h-85l-109 218l-36 -418h-157q-41 0 -38 33l68 633q76 44 135 44q19 0 30 -7t21 -26l147 -290z" />
    <glyph glyph-name="N" unicode="N" horiz-adv-x="724" 
d="M467 18l-201 353v-371h-156q-38 0 -38 31v624q31 22 70.5 38.5t62.5 16.5q35 0 52 -28l201 -353v371h156q38 0 38 -31v-624q-31 -22 -70.5 -38.5t-62.5 -16.5q-35 0 -52 28z" />
    <glyph glyph-name="O" unicode="O" horiz-adv-x="794" 
d="M750 350q0 -167 -100 -264.5t-253 -97.5t-253 97.5t-100 264.5t100 264.5t253 97.5t253 -97.5t100 -264.5zM402 144q68 0 111 50t43 148q0 96 -47 155t-117 59q-68 0 -111 -50t-43 -148q0 -96 47 -155t117 -59z" />
    <glyph glyph-name="P" unicode="P" horiz-adv-x="657" 
d="M266 0h-156q-38 0 -38 31v669h255q137 0 215.5 -70.5t78.5 -195.5q0 -117 -77 -187t-197 -70q-39 0 -81 11v-188zM266 544v-206q25 -5 51 -5q51 0 80.5 27t29.5 78q0 52 -28 79t-79 27h-54z" />
    <glyph glyph-name="Q" unicode="Q" horiz-adv-x="794" 
d="M750 350q0 -103 -40 -181.5t-111 -124.5q46 -58 102 -58h32q13 -29 13 -72q0 -25 -31 -44.5t-71 -19.5q-56 0 -102 38t-67 107q-32 -7 -78 -7q-153 0 -253 97.5t-100 264.5t100 264.5t253 97.5t253 -97.5t100 -264.5zM402 144q68 0 111 50t43 148q0 96 -47 155t-117 59
q-68 0 -111 -50t-43 -148q0 -96 47 -155t117 -59z" />
    <glyph glyph-name="R" unicode="R" horiz-adv-x="664" 
d="M266 0h-156q-38 0 -38 31v669h238q136 0 214.5 -67.5t78.5 -185.5q0 -68 -31 -121t-84 -86q23 -48 52 -75q26 -25 63 -25h18q13 -34 13 -74q0 -29 -32.5 -53.5t-79.5 -24.5q-78 0 -135 70q-50 61 -71 138q-36 4 -50 10v-206zM266 544v-188q13 -4 37 -4q47 0 75 24t28 71
t-28 72t-78 25h-34z" />
    <glyph glyph-name="S" unicode="S" horiz-adv-x="613" 
d="M286 144q91 0 91 46q0 23 -25.5 39t-99.5 39q-104 32 -154 87.5t-50 139.5q0 95 69.5 156t183.5 61q88 0 151.5 -32t95.5 -84q11 -18 11 -39q0 -31 -34 -48q-55 -27 -129 -32q-23 79 -89 79q-29 0 -47 -15.5t-18 -39.5q0 -26 26 -45t91 -39q111 -34 161.5 -85.5
t50.5 -132.5q0 -94 -67 -152.5t-193 -58.5q-99 0 -169 35t-70 74q0 47 30 86q80 -39 184 -39z" />
    <glyph glyph-name="T" unicode="T" horiz-adv-x="640" 
d="M44 700h533q31 0 31 -38v-118h-191v-544h-156q-38 0 -38 31v513h-154q-37 0 -37 42q0 52 12 114z" />
    <glyph glyph-name="U" unicode="U" horiz-adv-x="728" 
d="M68 290v404q68 16 143 16q51 0 51 -41v-393q0 -64 27.5 -98t74.5 -34q48 0 75 33.5t27 98.5v424h156q38 0 38 -31v-379q0 -141 -79.5 -221.5t-216.5 -80.5q-136 0 -216 80.5t-80 221.5z" />
    <glyph glyph-name="V" unicode="V" horiz-adv-x="735" 
d="M698 664q-29 -147 -91 -323t-128 -305q-11 -21 -26 -28.5t-49 -7.5h-141l-231 653q35 24 76.5 40.5t68.5 16.5q41 0 53 -38l141 -453q83 200 131 481h156q24 0 33.5 -9.5t6.5 -26.5z" />
    <glyph glyph-name="W" unicode="W" horiz-adv-x="1132" 
d="M886 36q-10 -20 -26.5 -28t-50.5 -8h-119l-117 457q-40 -197 -130 -421q-8 -20 -25 -28t-52 -8h-119l-211 653q35 24 76.5 40.5t68.5 16.5q42 0 53 -38l121 -453q34 85 66.5 220.5t51.5 260.5h121q37 0 54 -10t23 -33l113 -438q34 90 67.5 223.5t53.5 257.5h113
q43 0 61 -17t11 -49q-29 -139 -83.5 -300t-120.5 -298z" />
    <glyph glyph-name="X" unicode="X" horiz-adv-x="714" 
d="M225 686l143 -186q69 95 95 200h149q62 0 44 -51q-58 -165 -186 -279l219 -282q-77 -98 -137 -98q-20 0 -38 24l-167 214q-77 -96 -111 -228h-149q-61 0 -44 51q63 186 204 306l-197 255q77 98 137 98q20 0 38 -24z" />
    <glyph glyph-name="Y" unicode="Y" horiz-adv-x="679" 
d="M431 0h-156q-38 0 -38 31v210l-214 383q29 34 68.5 60t71.5 26q27 0 42 -29l136 -271q41 61 77 142t51 148h139q59 0 44 -51q-26 -93 -87 -204t-134 -203v-242z" />
    <glyph glyph-name="Z" unicode="Z" horiz-adv-x="635" 
d="M44 110l277 434h-221q-37 0 -37 42q0 52 12 114h430q42 0 59 -30q19 -34 26 -80l-277 -434h251q31 0 31 -38v-118h-466q-42 0 -59 30q-19 34 -26 80z" />
    <glyph glyph-name="bracketleft" unicode="[" horiz-adv-x="447" 
d="M327 10h65q31 0 31 -38v-102h-128q-105 0 -152 53t-47 176v651h294q37 0 37 -42q0 -43 -12 -98h-145v-509q0 -54 12 -72.5t45 -18.5z" />
    <glyph glyph-name="backslash" unicode="\" horiz-adv-x="571" 
d="M542 -110h-132l-409 823q-19 40 28 40h132l409 -823q19 -40 -28 -40z" />
    <glyph glyph-name="bracketright" unicode="]" horiz-adv-x="447" 
d="M351 719v-620q0 -123 -47 -176t-152 -53h-128v102q0 38 31 38h65q33 0 45 18.5t12 72.5v509h-145q-12 55 -12 98q0 42 37 42h256q38 0 38 -31z" />
    <glyph glyph-name="asciicircum" unicode="^" horiz-adv-x="616" 
d="M391 673l166 -274l-76 -51q-24 -17 -44 -17q-29 0 -49 37l-85 157l-103 -187q-70 0 -117 31q-23 15 -23 38q0 13 15 38l158 255h100q41 0 58 -27z" />
    <glyph glyph-name="underscore" unicode="_" horiz-adv-x="500" 
d="M500 -199h-463q-37 0 -37 39q0 47 11 87h451q38 0 38 -31v-95z" />
    <glyph glyph-name="grave" unicode="`" horiz-adv-x="420" 
d="M222 568l-131 94q24 51 59 81q18 15 37 15q14 0 33 -20l109 -116l-50 -54q-13 -13 -25 -13q-13 0 -32 13z" />
    <glyph glyph-name="a" unicode="a" horiz-adv-x="602" 
d="M239 418q-75 0 -143 -33q-20 30 -20 65q0 33 66 64.5t150 31.5q233 0 233 -219v-155q0 -39 30 -39h27q10 -32 10 -60q0 -30 -32 -55t-80 -25q-78 0 -117 66q-46 -71 -140 -71q-83 0 -135 50t-52 126q0 79 56.5 125t148.5 46q66 0 98 -16v29q0 70 -100 70zM272 116
q52 0 69 56v55q-21 7 -54 7q-31 0 -49 -18t-18 -46q0 -25 15 -39.5t37 -14.5z" />
    <glyph glyph-name="b" unicode="b" horiz-adv-x="649" 
d="M390 546q95 0 157 -70.5t62 -185.5q0 -138 -78.5 -220t-210.5 -82q-114 0 -187 69.5t-73 188.5v476q60 15 135 15q49 0 49 -40v-218q60 67 146 67zM339 406q-58 0 -95 -39v-135q0 -50 21.5 -77t57.5 -27q41 0 71.5 45.5t30.5 112.5q0 120 -86 120z" />
    <glyph glyph-name="c" unicode="c" horiz-adv-x="566" 
d="M527 83q0 -30 -57 -62.5t-140 -32.5q-123 0 -206.5 81.5t-83.5 212.5q0 115 73 189.5t197 74.5q75 0 133 -28.5t86 -74.5q11 -18 11 -37q0 -27 -37 -48q-43 -24 -118 -33q-18 81 -78 81q-39 0 -61 -32t-22 -90q0 -70 43 -113t116 -43q70 0 118 30q26 -38 26 -75z" />
    <glyph glyph-name="d" unicode="d" horiz-adv-x="671" 
d="M405 730h146q38 0 38 -31v-527q0 -39 30 -39h27q10 -32 10 -60q0 -30 -32 -55t-80 -25q-41 0 -75.5 22t-51.5 64q-57 -91 -158 -91q-95 0 -157 70.5t-62 185.5q0 137 73 219.5t172 82.5q76 0 120 -47v231zM405 204v179q-26 23 -66 23q-50 0 -82.5 -44.5t-32.5 -113.5
q0 -120 86 -120q30 0 55.5 20t39.5 56z" />
    <glyph glyph-name="e" unicode="e" horiz-adv-x="594" 
d="M319 -12q-123 0 -201 79t-78 198q0 124 80.5 202.5t200.5 78.5q109 0 173 -57t64 -148q0 -51 -22 -91q-12 -21 -31 -29.5t-55 -8.5h-222q10 -46 45.5 -70t88.5 -24q76 0 122 27q24 -36 24 -70q0 -27 -54.5 -57t-134.5 -30zM324 416q-42 0 -68 -27.5t-31 -75.5h152
q8 14 8 38q0 30 -17 47.5t-44 17.5z" />
    <glyph glyph-name="f" unicode="f" horiz-adv-x="469" 
d="M112 534v36q0 84 47 128t135 44q68 0 119.5 -25.5t51.5 -52.5q0 -38 -26 -71q-32 14 -81 14q-62 0 -62 -51v-22h122q31 0 31 -38v-102h-153v-394h-146q-38 0 -38 31v363h-51q-37 0 -37 42q0 56 11 98h77z" />
    <glyph glyph-name="g" unicode="g" horiz-adv-x="653" 
d="M405 8v54q-51 -66 -131 -73q-35 -23 -35 -60q0 -41 53 -41q51 0 82 32.5t31 87.5zM405 499v35h146q38 0 38 -31v-489q0 -110 -83.5 -185.5t-226.5 -75.5q-108 0 -165 40.5t-57 106.5q0 37 25.5 69t73.5 47q-54 30 -85 89.5t-31 138.5q0 137 73 219.5t172 82.5
q76 0 120 -47zM405 204v179q-26 23 -66 23q-50 0 -82.5 -44.5t-32.5 -113.5q0 -120 86 -120q30 0 55.5 20t39.5 56z" />
    <glyph glyph-name="h" unicode="h" horiz-adv-x="649" 
d="M248 0h-146q-38 0 -38 31v691q60 15 135 15q49 0 49 -40v-219q57 68 147 68q85 0 130 -55.5t45 -166.5v-152q0 -39 30 -39h27q10 -32 10 -60q0 -30 -32 -55t-80 -25q-59 0 -99 36.5t-40 110.5v190q0 76 -64 76q-40 0 -74 -28v-378z" />
    <glyph glyph-name="i" unicode="i" horiz-adv-x="335" 
d="M248 501v-329q0 -39 30 -39h27q10 -32 10 -60q0 -30 -32 -55t-80 -25q-59 0 -99 36.5t-40 110.5v386q60 15 135 15q49 0 49 -40zM157 586q-41 0 -70 23.5t-29 63.5t27 62t70 22q41 0 70 -23.5t29 -63.5t-27 -62t-70 -22z" />
    <glyph glyph-name="j" unicode="j" horiz-adv-x="315" 
d="M253 501v-443q0 -122 -60.5 -191.5t-124.5 -69.5q-21 0 -41 19.5t-30 47.5q72 77 72 193v469q60 15 135 15q49 0 49 -40zM162 586q-41 0 -70 23.5t-29 63.5t27 62t70 22q41 0 70 -23.5t29 -63.5t-27 -62t-70 -22z" />
    <glyph glyph-name="k" unicode="k" horiz-adv-x="615" 
d="M248 0h-146q-38 0 -38 31v691q60 15 135 15q49 0 49 -40v-338q48 32 100.5 86.5t81.5 105.5q75 -23 102.5 -45t27.5 -52q0 -21 -13 -39q-43 -62 -117 -119q37 -79 69 -124q28 -40 59 -40h25q12 -31 12 -60t-33.5 -54t-79.5 -25q-79 0 -128 80q-29 48 -63 132
q-25 -14 -43 -22v-183z" />
    <glyph glyph-name="l" unicode="l" horiz-adv-x="387" 
d="M60 204v518q60 15 135 15q49 0 49 -40v-490q0 -70 54 -70q33 0 58 11q23 -32 23 -79q0 -27 -41.5 -51.5t-100.5 -24.5q-83 0 -130 54t-47 157z" />
    <glyph glyph-name="m" unicode="m" horiz-adv-x="923" 
d="M612 406q-35 0 -68 -28q2 -24 2 -38v-340h-146q-38 0 -38 31v324q0 51 -48 51q-34 0 -66 -27v-379h-146q-38 0 -38 31v495q60 15 135 15q49 0 49 -40v-21q51 66 134 66q90 0 133 -71q66 71 155 71q81 0 127.5 -50.5t46.5 -155.5v-168q0 -39 30 -39h27q10 -32 10 -60
q0 -30 -32 -55t-80 -25q-59 0 -99 36.5t-40 110.5v215q0 51 -48 51z" />
    <glyph glyph-name="n" unicode="n" horiz-adv-x="649" 
d="M248 0h-146q-38 0 -38 31v495q60 15 135 15q49 0 49 -40v-23q57 68 147 68q85 0 130 -55.5t45 -166.5v-152q0 -39 30 -39h27q10 -32 10 -60q0 -30 -32 -55t-80 -25q-59 0 -99 36.5t-40 110.5v190q0 76 -64 76q-40 0 -74 -28v-378z" />
    <glyph glyph-name="o" unicode="o" horiz-adv-x="644" 
d="M322 546q117 0 199.5 -75.5t82.5 -203.5t-82.5 -203.5t-199.5 -75.5t-199.5 75.5t-82.5 203.5t82.5 203.5t199.5 75.5zM326 128q44 0 69 34.5t25 99.5q0 67 -27.5 105.5t-74.5 38.5q-44 0 -69 -34.5t-25 -99.5q0 -67 27.5 -105.5t74.5 -38.5z" />
    <glyph glyph-name="p" unicode="p" horiz-adv-x="653" 
d="M248 35v-248h-146q-38 0 -38 31v708q60 15 135 15q49 0 49 -40v-32q54 77 146 77q95 0 157 -70.5t62 -185.5q0 -137 -73 -219.5t-172 -82.5q-76 0 -120 47zM248 330v-179q26 -23 66 -23q50 0 82.5 44.5t32.5 113.5q0 120 -86 120q-30 0 -55.5 -20t-39.5 -56z" />
    <glyph glyph-name="q" unicode="q" horiz-adv-x="653" 
d="M405 499v35h146q38 0 38 -31v-716h-146q-38 0 -38 31v247q-54 -77 -146 -77q-95 0 -157 70.5t-62 185.5q0 137 73 219.5t172 82.5q76 0 120 -47zM405 204v179q-26 23 -66 23q-50 0 -82.5 -44.5t-32.5 -113.5q0 -120 86 -120q30 0 55.5 20t39.5 56z" />
    <glyph glyph-name="r" unicode="r" horiz-adv-x="500" 
d="M64 31v495q60 15 135 15q49 0 49 -40v-39q49 84 146 84q42 0 70 -16t28 -39q0 -27 -22.5 -55.5t-55.5 -48.5q-26 19 -66 19q-39 0 -65 -26t-35 -72v-308h-146q-38 0 -38 31z" />
    <glyph glyph-name="s" unicode="s" horiz-adv-x="515" 
d="M459 461q12 -19 12 -34q0 -22 -24 -37q-41 -27 -105 -30q-18 56 -66 56q-21 0 -32.5 -10t-11.5 -24q0 -20 15 -32.5t51 -22.5q95 -25 137 -65.5t42 -106.5q0 -74 -57 -120.5t-160 -46.5q-76 0 -137 29.5t-61 63.5q0 39 26 75q68 -38 146 -38q59 0 59 29q0 14 -10 23
t-38 15q-197 45 -197 196q0 73 56.5 119t149.5 46q70 0 124 -22.5t81 -62.5z" />
    <glyph glyph-name="t" unicode="t" horiz-adv-x="481" 
d="M35 534h77v145q60 15 135 15q49 0 49 -40v-120h122q31 0 31 -38v-102h-153v-196q0 -38 15 -54t49 -16q40 0 68 11q23 -29 23 -68q0 -30 -43.5 -56.5t-108.5 -26.5q-88 0 -137.5 54t-49.5 157v195h-51q-37 0 -37 42q0 56 11 98z" />
    <glyph glyph-name="u" unicode="u" horiz-adv-x="626" 
d="M568 503v-273q0 -111 -70.5 -176t-184.5 -65q-115 0 -185 65t-70 176v296q60 15 135 15q49 0 49 -40v-277q0 -42 18.5 -65t52.5 -23t52.5 23.5t18.5 64.5v310h146q38 0 38 -31z" />
    <glyph glyph-name="v" unicode="v" horiz-adv-x="610" 
d="M409 36q-11 -21 -26 -28.5t-49 -7.5h-124l-180 491q31 23 69.5 37.5t62.5 14.5q25 0 36.5 -8t18.5 -29l94 -312q58 149 84 340h141q24 0 34 -10t6 -26q-58 -251 -167 -462z" />
    <glyph glyph-name="w" unicode="w" horiz-adv-x="882" 
d="M539 489l66 -290q38 118 66 335h106q40 0 56 -16t11 -46q-15 -94 -51 -214t-81 -222q-9 -20 -26 -28t-51 -8h-113l-74 333q-31 -187 -75 -297q-8 -20 -25 -28t-52 -8h-101l-161 494q31 22 68 36t60 14q25 0 37.5 -9t17.5 -32l72 -303q46 151 64 334h112q35 0 51.5 -10.5
t22.5 -34.5z" />
    <glyph glyph-name="x" unicode="x" horiz-adv-x="590" 
d="M330 75l-52 70q-39 -51 -62 -145h-136q-62 0 -44 51q41 118 151 213l-142 189q66 87 123 87q25 0 44 -25l95 -127q36 48 52 146h137q59 0 44 -51q-32 -111 -143 -215l73 -98q16 -22 28.5 -29.5t33.5 -7.5h20q12 -29 12 -61q0 -29 -29.5 -54t-73.5 -25q-70 0 -131 82z" />
    <glyph glyph-name="y" unicode="y" horiz-adv-x="632" 
d="M568 503v-491q0 -113 -73 -186.5t-216 -73.5q-96 0 -153.5 40t-57.5 103q0 38 22 69t61 48q-89 47 -89 198v311q60 15 135 15q49 0 49 -40v-292q0 -76 63 -76q38 0 75 28v378h146q38 0 38 -31zM384 56q-41 -48 -95 -62q-39 -28 -39 -65q0 -20 12 -31t34 -11
q41 0 64.5 31.5t23.5 89.5v48z" />
    <glyph glyph-name="z" unicode="z" horiz-adv-x="526" 
d="M250 394h-162q-37 0 -37 42q0 56 11 98h341q42 0 59 -30q20 -35 26 -75l-206 -284h181q31 0 31 -38v-107h-369q-42 0 -59 30q-20 35 -26 75z" />
    <glyph glyph-name="braceleft" unicode="{" horiz-adv-x="475" 
d="M444 -28v-102h-67q-113 0 -168 47t-55 159v64q0 47 -18 69.5t-60 28.5q-28 3 -28 37v105q59 0 82.5 24.5t23.5 75.5v44q0 120 61.5 173t181.5 53h25q37 0 37 -42q0 -43 -12 -98h-57q-62 0 -62 -83v-40q0 -136 -104 -177q104 -41 104 -177v-40q0 -83 62 -83h23
q31 0 31 -38z" />
    <glyph glyph-name="bar" unicode="|" horiz-adv-x="343" 
d="M88 756q52 13 116 13q51 0 51 -41v-928h-129q-38 0 -38 31v925z" />
    <glyph glyph-name="braceright" unicode="}" horiz-adv-x="475" 
d="M31 -130v102q0 38 31 38h23q62 0 62 83v40q0 136 104 177q-104 41 -104 177v40q0 83 -62 83h-57q-12 55 -12 98q0 42 37 42h25q120 0 181.5 -53t61.5 -173v-44q0 -51 23.5 -75.5t82.5 -24.5v-105q0 -34 -28 -37q-42 -6 -60 -28.5t-18 -69.5v-64q0 -112 -55 -159t-168 -47
h-67z" />
    <glyph glyph-name="asciitilde" unicode="~" horiz-adv-x="626" 
d="M422 224q-68 0 -121 41q-34 26 -47.5 34t-27.5 8q-39 0 -45 -78q-50 -6 -97 13q-33 14 -33 45q0 16 6 40q14 52 52 83t94 31q68 0 121 -41q34 -26 47.5 -34t27.5 -8q39 0 45 78l103 -21q16 -4 21.5 -10.5t5.5 -19.5q-2 -70 -42.5 -115.5t-109.5 -45.5z" />
    <glyph glyph-name="uni00A0" unicode="&#xa0;" horiz-adv-x="300" 
 />
    <glyph glyph-name="exclamdown" unicode="&#xa1;" horiz-adv-x="332" 
d="M165 546q41 0 70 -23.5t29 -63.5t-27 -62t-70 -22q-41 0 -70 23.5t-29 63.5t27 62t70 22zM239 301q24 -171 24 -354v-107q-68 -16 -143 -16q-51 0 -51 41v82q0 179 28 385h104q33 0 38 -31z" />
    <glyph glyph-name="cent" unicode="&#xa2;" horiz-adv-x="566" 
d="M382 614v-76q103 -23 147 -95q11 -18 11 -37q0 -25 -37 -48q-39 -24 -118 -33q-18 81 -78 81q-39 0 -61 -32t-22 -90q0 -70 43 -113t116 -43q70 0 118 30q26 -38 26 -75q0 -24 -41 -52.5t-104 -38.5v-104h-110q-38 0 -38 31v84q-87 28 -140.5 102t-53.5 177
q0 95 51.5 164.5t142.5 90.5v99q50 14 100 14q48 0 48 -36z" />
    <glyph glyph-name="sterling" unicode="&#xa3;" horiz-adv-x="622" 
d="M48 373h55v91q0 116 64.5 182t184.5 66q78 0 136 -36t84 -94q10 -21 10 -41q0 -28 -32 -45q-52 -28 -127 -30q-15 90 -69 90q-25 0 -41 -21t-16 -63v-99h155q25 0 25 -32v-56h-180v-20q0 -76 -38 -109h300q31 0 31 -38v-118h-507q-31 0 -31 38v98q51 43 51 121v28h-34
q-29 0 -29 27q0 35 8 61z" />
    <glyph glyph-name="currency" unicode="&#xa4;" horiz-adv-x="692" 
d="M121 332q0 51 20 94l-89 90q25 48 60 80q21 20 37 20.5t38 -20.5l63 -63q45 20 96 20q48 0 92 -19l92 92q48 -25 80 -60q20 -21 20.5 -37t-20.5 -38l-62 -62q23 -44 23 -97q0 -50 -21 -95l90 -89q-25 -48 -60 -80q-21 -20 -37 -20.5t-38 20.5l-63 62q-42 -19 -96 -19
q-48 0 -92 19l-92 -92q-48 25 -80 60q-20 21 -20.5 37t20.5 38l61 62q-22 46 -22 97zM435 328q0 46 -26.5 73.5t-66.5 27.5q-36 0 -60.5 -26t-24.5 -67q0 -46 26.5 -73.5t66.5 -27.5q36 0 60.5 26t24.5 67z" />
    <glyph glyph-name="yen" unicode="&#xa5;" horiz-adv-x="722" 
d="M145 314h115v7l-232 293q84 99 130 99q20 0 42 -29l164 -219q83 91 148 235h139q31 0 43 -14.5t1 -36.5q-38 -81 -104.5 -170.5t-136.5 -156.5v-8h96q25 0 25 -32v-36h-121v-35h96q25 0 25 -32v-36h-121v-143h-156q-38 0 -38 31v112h-95q-27 0 -27 25q0 20 7 43h115v35
h-95q-27 0 -27 25q0 20 7 43z" />
    <glyph glyph-name="brokenbar" unicode="&#xa6;" horiz-adv-x="343" 
d="M88 696q52 13 116 13q51 0 51 -41v-313h-129q-38 0 -38 31v310zM88 201q52 13 116 13q51 0 51 -41v-313h-129q-38 0 -38 31v310z" />
    <glyph glyph-name="section" unicode="&#xa7;" horiz-adv-x="521" 
d="M48 278q0 40 23 71t63 49q-86 52 -86 146q0 74 59 121t151 47q67 0 120.5 -22.5t80.5 -62.5q12 -19 12 -34q0 -22 -24 -37q-41 -27 -105 -30q-18 56 -66 56q-21 0 -32.5 -10t-11.5 -24q0 -20 15 -33.5t51 -25.5q93 -30 136 -70.5t43 -99.5q0 -37 -24 -69t-58 -46
q82 -42 82 -137q0 -74 -57 -120.5t-160 -46.5q-76 0 -137 29.5t-61 63.5q0 39 26 75q68 -38 146 -38q59 0 59 29q0 13 -10 21.5t-38 16.5q-197 55 -197 181zM282 234q32 26 32 59q0 50 -70 69q-32 -26 -32 -59q0 -50 70 -69z" />
    <glyph glyph-name="dieresis" unicode="&#xa8;" horiz-adv-x="420" 
d="M113 571q-33 0 -56.5 23.5t-23.5 60.5q0 34 20.5 55t53.5 21t56.5 -23.5t23.5 -60.5q0 -34 -20.5 -55t-53.5 -21zM314 571q-33 0 -56.5 23.5t-23.5 60.5q0 34 20.5 55t53.5 21t56.5 -23.5t23.5 -60.5q0 -34 -20.5 -55t-53.5 -21z" />
    <glyph glyph-name="copyright" unicode="&#xa9;" horiz-adv-x="824" 
d="M463 384q-10 52 -54 52q-22 0 -38 -22t-16 -59q0 -44 28.5 -71.5t79.5 -27.5q49 0 89 19q18 -25 18 -53q0 -25 -43 -49t-95 -24q-91 0 -152 57t-61 147q0 86 55 138t143 52q109 0 152 -72q9 -14 9 -28q0 -19 -27 -34q-39 -20 -88 -25zM50 350q0 150 106 256t256 106
t256 -106t106 -256t-106 -256t-256 -106t-256 106t-106 256zM106 350q0 -129 89.5 -219.5t216.5 -90.5t216.5 90.5t89.5 219.5q0 128 -89.5 219t-216.5 91t-216.5 -91t-89.5 -219z" />
    <glyph glyph-name="ordfeminine" unicode="&#xaa;" horiz-adv-x="466" 
d="M181 617q-60 0 -106 -23q-15 22 -15 46t48.5 46t110.5 22q83 0 129 -39.5t46 -115.5v-116q1 -22 21 -22h19q7 -23 7 -42q0 -21 -24 -39t-58 -18q-57 0 -89 48q-32 -52 -100 -52q-61 0 -99.5 35t-38.5 90q0 57 42 89t108 32q48 0 70 -11v21q0 49 -71 49zM209 403
q33 0 44 40v39q-17 5 -33 5q-22 0 -35 -12.5t-13 -33.5q0 -17 11 -27.5t26 -10.5z" />
    <glyph glyph-name="guillemotleft" unicode="&#xab;" horiz-adv-x="597" 
d="M288 94l-223 157q-17 13 -17 36v74l205 144q15 10 25 10q22 0 22 -33q0 -34 -9 -83l-129 -87l109 -74q17 -12 17 -34v-110zM537 94l-223 157q-17 13 -17 36v74l205 144q15 10 25 10q22 0 22 -33q0 -34 -9 -83l-129 -87l109 -74q17 -12 17 -34v-110z" />
    <glyph glyph-name="logicalnot" unicode="&#xac;" horiz-adv-x="626" 
d="M382 192v141h-281q-37 0 -37 39q0 50 13 95h437q38 0 38 -31v-275h-132q-38 0 -38 31z" />
    <glyph glyph-name="uni00AD" unicode="&#xad;" horiz-adv-x="442" 
d="M374 262h-269q-37 0 -37 39q0 56 13 101h255q38 0 38 -31v-109z" />
    <glyph glyph-name="registered" unicode="&#xae;" horiz-adv-x="824" 
d="M50 350q0 150 106 256t256 106t256 -106t106 -256t-106 -256t-256 -106t-256 106t-106 256zM106 350q0 -129 89.5 -219.5t216.5 -90.5t216.5 90.5t89.5 219.5q0 128 -89.5 219t-216.5 91t-216.5 -91t-89.5 -219zM383 163h-86q-35 0 -35 28v352h158q74 0 114 -37t40 -102
q0 -71 -55 -108q9 -19 22 -35t32 -16h12q7 -21 7 -43q0 -18 -19.5 -31.5t-46.5 -13.5q-50 0 -82 48q-20 30 -31 67q-16 0 -30 6v-115zM383 450v-82q9 -3 18 -3q52 0 52 42q0 43 -56 43h-14z" />
    <glyph glyph-name="macron" unicode="&#xaf;" horiz-adv-x="420" 
d="M358 665v-69h-257q-39 0 -39 39q0 32 12 68h253q31 0 31 -38z" />
    <glyph glyph-name="degree" unicode="&#xb0;" horiz-adv-x="392" 
d="M198 504q21 0 33.5 15t12.5 38q0 24 -14 40.5t-36 16.5q-21 0 -33.5 -15t-12.5 -38q0 -24 14 -40.5t36 -16.5zM196 406q-69 0 -114.5 44t-45.5 109t45.5 109t114.5 44t114.5 -44t45.5 -109t-45.5 -109t-114.5 -44z" />
    <glyph glyph-name="plusminus" unicode="&#xb1;" horiz-adv-x="626" 
d="M398 194h-132q-38 0 -38 31v129h-127q-37 0 -37 39q0 50 13 95h151v143q54 17 120 17q27 0 38.5 -9.5t11.5 -30.5v-120h126q38 0 38 -31v-103h-164v-160zM562 0h-461q-37 0 -37 39q0 50 13 95h447q38 0 38 -31v-103z" />
    <glyph glyph-name="twosuperior" unicode="&#xb2;" 
d="M369 284h-261q-34 0 -44 25q-10 24 -13 59q75 32 125.5 82.5t50.5 106.5q0 38 -27 38q-29 0 -41 -54q-58 2 -96 19q-24 10 -24 29q0 17 9 37q18 38 58.5 60t94.5 22q76 0 120.5 -41.5t44.5 -110.5q0 -42 -25.5 -87.5t-70.5 -77.5h69q30 0 30 -25v-82z" />
    <glyph glyph-name="threesuperior" unicode="&#xb3;" 
d="M178 446q-19 2 -26.5 5.5t-14.5 15.5q-14 24 -18 54l66 72h-105q-37 0 -37 33q0 31 9 74h244q30 0 41 -20q14 -24 18 -54l-98 -98q50 -8 80 -39.5t30 -77.5q0 -58 -46 -96.5t-125 -38.5q-63 0 -110.5 26t-47.5 51q0 29 18 57q62 -31 122 -31q50 0 50 34q0 28 -50 33z" />
    <glyph glyph-name="acute" unicode="&#xb4;" horiz-adv-x="420" 
d="M329 662l-131 -94q-19 -13 -32 -13q-12 0 -25 13l-50 54l109 116q19 20 33 20q19 0 37 -15q35 -30 59 -81z" />
    <glyph glyph-name="mu" unicode="&#xb5;" horiz-adv-x="632" 
d="M64 -197v723q60 15 135 15q49 0 49 -40v-346q35 -27 74 -27q64 0 64 76v330h146q38 0 38 -31v-293q0 -111 -45 -166.5t-130 -55.5q-92 0 -147 67v-283h-146q-38 0 -38 31z" />
    <glyph glyph-name="paragraph" unicode="&#xb6;" horiz-adv-x="630" 
d="M257 700h318q23 0 23 -30v-62h-78v-739h-70q-30 0 -30 23v716h-54v-739h-74q-30 0 -30 23v394q-96 0 -159 57.5t-63 149.5q0 91 62.5 149t154.5 58z" />
    <glyph glyph-name="periodcentered" unicode="&#xb7;" horiz-adv-x="340" 
d="M167 428q39 0 68 -27.5t29 -72.5q0 -42 -25.5 -67t-65.5 -25q-39 0 -68 27.5t-29 72.5q0 42 25.5 67t65.5 25z" />
    <glyph glyph-name="cedilla" unicode="&#xb8;" horiz-adv-x="420" 
d="M182 -246q-45 0 -76 10v66q0 25 27 19q12 -3 23 -3q33 0 33 23q0 27 -51 33q-17 8 -17 16q0 3 2 7l40 75h112l-32 -60q33 -7 52 -29t19 -51q0 -47 -37 -76.5t-95 -29.5z" />
    <glyph glyph-name="onesuperior" unicode="&#xb9;" 
d="M305 675v-391h-109q-30 0 -30 25v243l-44 -28q-39 20 -56 45q-11 15 -11 27q0 14 24 29l120 75h76q30 0 30 -25z" />
    <glyph glyph-name="ordmasculine" unicode="&#xba;" horiz-adv-x="466" 
d="M233 312q-83 0 -141.5 53.5t-58.5 144.5t58.5 144.5t141.5 53.5t141.5 -53.5t58.5 -144.5t-58.5 -144.5t-141.5 -53.5zM236 422q57 0 57 85q0 44 -16.5 68t-46.5 24q-57 0 -57 -85q0 -44 16.5 -68t46.5 -24z" />
    <glyph glyph-name="guillemotright" unicode="&#xbb;" horiz-adv-x="597" 
d="M532 251l-223 -157v110q0 22 17 34l109 74l-129 87q-9 49 -9 83q0 33 22 33q10 0 25 -10l205 -144v-74q0 -23 -17 -36zM283 251l-223 -157v110q0 22 17 34l109 74l-129 87q-9 49 -9 83q0 33 22 33q10 0 25 -10l205 -144v-74q0 -23 -17 -36z" />
    <glyph glyph-name="onequarter" unicode="&#xbc;" horiz-adv-x="984" 
d="M785 162v114q-20 -20 -41 -54t-30 -60h71zM915 162h19q30 0 30 -25v-71h-49v-66h-99q-30 0 -30 25v41h-135q-19 0 -28 5t-16 20q-10 26 -13 59q18 68 69.5 139t109.5 113q47 19 103 19q39 0 39 -29v-230zM305 675v-391h-109q-30 0 -30 25v243l-44 -28q-39 20 -56 45
q-11 15 -11 27q0 14 24 29l120 75h76q30 0 30 -25zM409 0h-87q-38 0 -26 30l281 670h87q38 0 26 -30z" />
    <glyph glyph-name="onehalf" unicode="&#xbd;" horiz-adv-x="984" 
d="M941 0h-261q-34 0 -44 25q-10 24 -13 59q75 32 125.5 82.5t50.5 106.5q0 38 -27 38q-29 0 -41 -54q-58 2 -96 19q-24 10 -24 29q0 18 9 37q18 38 58.5 60t94.5 22q76 0 120.5 -41.5t44.5 -110.5q0 -42 -25.5 -87.5t-70.5 -77.5h69q30 0 30 -25v-82zM305 675v-391h-109
q-30 0 -30 25v243l-44 -28q-39 20 -56 45q-11 15 -11 27q0 14 24 29l120 75h76q30 0 30 -25zM409 0h-87q-38 0 -26 30l281 670h87q38 0 26 -30z" />
    <glyph glyph-name="threequarters" unicode="&#xbe;" horiz-adv-x="984" 
d="M785 162v114q-20 -20 -41 -54t-30 -60h71zM915 162h19q30 0 30 -25v-71h-49v-66h-99q-30 0 -30 25v41h-135q-19 0 -28 5t-16 20q-10 26 -13 59q18 68 69.5 139t109.5 113q47 19 103 19q39 0 39 -29v-230zM178 446q-19 2 -26.5 5.5t-14.5 15.5q-14 24 -18 54l66 72h-105
q-37 0 -37 33q0 31 9 74h244q30 0 41 -20q14 -24 18 -54l-98 -98q50 -8 80 -39.5t30 -77.5q0 -58 -46 -96.5t-125 -38.5q-63 0 -110.5 26t-47.5 51q0 29 18 57q62 -31 122 -31q50 0 50 34q0 28 -50 33zM409 0h-87q-38 0 -26 30l281 670h87q38 0 26 -30z" />
    <glyph glyph-name="questiondown" unicode="&#xbf;" horiz-adv-x="578" 
d="M367 332h-156v-25q0 -24 -8.5 -39t-30.5 -32q-61 -45 -92.5 -94t-31.5 -111q0 -93 66.5 -151t174.5 -58q85 0 148.5 37t90.5 95q10 21 10 42q0 31 -34 48q-55 27 -129 32q-7 -48 -28 -73t-50 -25q-25 0 -40 14.5t-15 39.5q0 47 60 89q52 37 77.5 74.5t25.5 86.5v19
q0 31 -38 31zM307 546q41 0 70 -23.5t29 -63.5t-27 -62t-70 -22q-41 0 -70 23.5t-29 63.5t27 62t70 22z" />
    <glyph glyph-name="Agrave" unicode="&#xc0;" horiz-adv-x="710" 
d="M701 0h-166q-37 0 -46 28l-26 83h-216l-33 -111h-162q-18 0 -26.5 9.5t-3.5 25.5l233 645q64 27 131 27q35 0 51 -11t27 -41zM355 466l-64 -209h128zM348 762l-131 94q24 51 59 81q18 15 37 15q14 0 33 -20l109 -116l-50 -54q-13 -13 -25 -13q-13 0 -32 13z" />
    <glyph glyph-name="Aacute" unicode="&#xc1;" horiz-adv-x="710" 
d="M701 0h-166q-37 0 -46 28l-26 83h-216l-33 -111h-162q-18 0 -26.5 9.5t-3.5 25.5l233 645q64 27 131 27q35 0 51 -11t27 -41zM355 466l-64 -209h128zM491 857l-131 -94q-19 -13 -32 -13q-12 0 -25 13l-50 54l109 116q19 20 33 20q19 0 37 -15q35 -30 59 -81z" />
    <glyph glyph-name="Acircumflex" unicode="&#xc2;" horiz-adv-x="710" 
d="M701 0h-166q-37 0 -46 28l-26 83h-216l-33 -111h-162q-18 0 -26.5 9.5t-3.5 25.5l233 645q64 27 131 27q35 0 51 -11t27 -41zM355 466l-64 -209h128zM355 836l-88 -87q-38 14 -65 43q-12 14 -12 26q0 11 10 20l124 109h40q23 0 40 -16l128 -112l-49 -54q-15 -15 -27 -15
t-28 14z" />
    <glyph glyph-name="Atilde" unicode="&#xc3;" horiz-adv-x="710" 
d="M701 0h-166q-37 0 -46 28l-26 83h-216l-33 -111h-162q-18 0 -26.5 9.5t-3.5 25.5l233 645q64 27 131 27q35 0 51 -11t27 -41zM355 466l-64 -209h128zM417 925l74 -19q25 -7 22 -33q-7 -49 -34 -77t-63 -28q-38 0 -66 22q-27 21 -37 21t-14.5 -9.5t-7.5 -33.5
q-40 -3 -74 11q-22 10 -22 29q0 12 4 28q24 84 93 84q38 0 66 -22q27 -21 37 -21q18 0 22 48z" />
    <glyph glyph-name="Adieresis" unicode="&#xc4;" horiz-adv-x="710" 
d="M535 0h166l-237 655q-11 30 -27 41t-51 11q-67 0 -131 -27l-233 -645q-5 -16 3.5 -25.5t26.5 -9.5h162l33 111h216l26 -83q9 -28 46 -28zM291 257l64 209l64 -209h-128zM258 765q-33 0 -56.5 23.5t-23.5 60.5q0 34 20.5 55t53.5 21t56.5 -23.5t23.5 -60.5
q0 -34 -20.5 -55t-53.5 -21zM459 765q-33 0 -56.5 23.5t-23.5 60.5q0 34 20.5 55t53.5 21t56.5 -23.5t23.5 -60.5q0 -34 -20.5 -55t-53.5 -21z" />
    <glyph glyph-name="Aring" unicode="&#xc5;" horiz-adv-x="710" 
d="M701 0h-166q-37 0 -46 28l-26 83h-216l-33 -111h-162q-18 0 -26.5 9.5t-3.5 25.5l233 645q64 27 131 27q35 0 51 -11t27 -41zM355 466l-64 -209h128zM355 953q47 0 78 -30t31 -74t-31 -74t-78 -30t-78 30t-31 74t31 74t78 30zM356 817q13 0 21.5 8t8.5 23q0 14 -9 23.5
t-23 9.5q-13 0 -21.5 -8t-8.5 -23q0 -14 9 -23.5t23 -9.5z" />
    <glyph glyph-name="AE" unicode="&#xc6;" horiz-adv-x="929" 
d="M205 0h-158q-23 0 -31 13t1 29l299 623q57 35 134 35h390q37 0 37 -42q0 -52 -12 -114h-263v-117h190q31 0 31 -38v-118h-221v-14q0 -57 14 -79t53 -22h185q31 0 31 -38v-118h-251q-160 0 -205 113h-175zM408 259v205l-90 -205h90z" />
    <glyph glyph-name="Ccedilla" unicode="&#xc7;" horiz-adv-x="710" 
d="M383 -246q-45 0 -76 10v66q0 25 27 19q12 -3 23 -3q33 0 33 23q0 27 -51 33q-17 8 -17 16q0 3 2 7l35 67q-139 19 -227 121.5t-88 253.5q0 154 95.5 249.5t244.5 95.5q99 0 172.5 -38t110.5 -102q11 -19 11 -39q0 -28 -34 -48q-56 -32 -132 -37q-38 108 -131 108
q-65 0 -104 -49t-39 -137q0 -100 60.5 -163t161.5 -63q100 0 165 37q11 -15 20.5 -40.5t9.5 -43.5q0 -31 -54.5 -63t-129.5 -42l-27 -52q33 -7 52 -29t19 -51q0 -47 -37 -76.5t-95 -29.5z" />
    <glyph glyph-name="Egrave" unicode="&#xc8;" horiz-adv-x="591" 
d="M527 544h-263v-117h190q31 0 31 -38v-118h-221v-14q0 -57 14 -79t53 -22h185q31 0 31 -38v-118h-251q-117 0 -171.5 59.5t-54.5 184.5v456h432q37 0 37 -42q0 -52 -12 -114zM304 762l-131 94q24 51 59 81q18 15 37 15q14 0 33 -20l109 -116l-50 -54q-13 -13 -25 -13
q-13 0 -32 13z" />
    <glyph glyph-name="Eacute" unicode="&#xc9;" horiz-adv-x="591" 
d="M527 544h-263v-117h190q31 0 31 -38v-118h-221v-14q0 -57 14 -79t53 -22h185q31 0 31 -38v-118h-251q-117 0 -171.5 59.5t-54.5 184.5v456h432q37 0 37 -42q0 -52 -12 -114zM425 856l-131 -94q-19 -13 -32 -13q-12 0 -25 13l-50 54l109 116q19 20 33 20q19 0 37 -15
q35 -30 59 -81z" />
    <glyph glyph-name="Ecircumflex" unicode="&#xca;" horiz-adv-x="591" 
d="M264 544h263q12 62 12 114q0 42 -37 42h-432v-456q0 -125 54.5 -184.5t171.5 -59.5h251v118q0 38 -31 38h-185q-39 0 -53 22t-14 79v14h221v118q0 38 -31 38h-190v117zM301 836l-88 -87q-38 14 -65 43q-12 14 -12 26q0 11 10 20l124 109h40q23 0 40 -16l128 -112l-49 -54
q-15 -15 -27 -15t-28 14z" />
    <glyph glyph-name="Edieresis" unicode="&#xcb;" horiz-adv-x="591" 
d="M527 544h-263v-117h190q31 0 31 -38v-118h-221v-14q0 -57 14 -79t53 -22h185q31 0 31 -38v-118h-251q-117 0 -171.5 59.5t-54.5 184.5v456h432q37 0 37 -42q0 -52 -12 -114zM204 765q-33 0 -56.5 23.5t-23.5 60.5q0 34 20.5 55t53.5 21t56.5 -23.5t23.5 -60.5
q0 -34 -20.5 -55t-53.5 -21zM405 765q-33 0 -56.5 23.5t-23.5 60.5q0 34 20.5 55t53.5 21t56.5 -23.5t23.5 -60.5q0 -34 -20.5 -55t-53.5 -21z" />
    <glyph glyph-name="Igrave" unicode="&#xcc;" horiz-adv-x="346" 
d="M270 0v669q0 41 -51 41q-75 0 -143 -16v-663q0 -31 38 -31h156zM147 762l-131 94q24 51 59 81q18 15 37 15q14 0 33 -20l109 -116l-50 -54q-13 -13 -25 -13q-13 0 -32 13z" />
    <glyph glyph-name="Iacute" unicode="&#xcd;" horiz-adv-x="346" 
d="M270 669v-669h-156q-38 0 -38 31v663q68 16 143 16q51 0 51 -41zM329 856l-131 -94q-19 -13 -32 -13q-12 0 -25 13l-50 54l109 116q19 20 33 20q19 0 37 -15q35 -30 59 -81z" />
    <glyph glyph-name="Icircumflex" unicode="&#xce;" horiz-adv-x="346" 
d="M270 669v-669h-156q-38 0 -38 31v663q68 16 143 16q51 0 51 -41zM173 836l-88 -87q-38 14 -65 43q-12 14 -12 26q0 11 10 20l124 109h40q23 0 40 -16l128 -112l-49 -54q-15 -15 -27 -15t-28 14z" />
    <glyph glyph-name="Idieresis" unicode="&#xcf;" horiz-adv-x="346" 
d="M270 0v669q0 41 -51 41q-75 0 -143 -16v-663q0 -31 38 -31h156zM75 765q-33 0 -56.5 23.5t-23.5 60.5q0 34 20.5 55t53.5 21t56.5 -23.5t23.5 -60.5q0 -34 -20.5 -55t-53.5 -21zM276 765q-33 0 -56.5 23.5t-23.5 60.5q0 34 20.5 55t53.5 21t56.5 -23.5t23.5 -60.5
q0 -34 -20.5 -55t-53.5 -21z" />
    <glyph glyph-name="Eth" unicode="&#xd0;" horiz-adv-x="735" 
d="M8 394h62v306h280q150 0 245.5 -95t95.5 -255q0 -161 -97 -255.5t-254 -94.5h-44q-117 0 -171.5 59.5t-54.5 184.5v62h-41q-29 0 -29 27q0 35 8 61zM497 350q0 97 -39.5 145.5t-111.5 48.5h-82v-150h105q25 0 25 -32v-56h-130v-49q0 -56 17.5 -78.5t57.5 -22.5h7
q72 0 111.5 48.5t39.5 145.5z" />
    <glyph glyph-name="Ntilde" unicode="&#xd1;" horiz-adv-x="724" 
d="M467 18l-201 353v-371h-156q-38 0 -38 31v624q31 22 70.5 38.5t62.5 16.5q35 0 52 -28l201 -353v371h156q38 0 38 -31v-624q-31 -22 -70.5 -38.5t-62.5 -16.5q-35 0 -52 28zM424 925l74 -19q25 -7 22 -33q-7 -49 -34 -77t-63 -28q-38 0 -66 22q-27 21 -37 21t-14.5 -9.5
t-7.5 -33.5q-40 -3 -74 11q-22 10 -22 29q0 12 4 28q24 84 93 84q38 0 66 -22q27 -21 37 -21q18 0 22 48z" />
    <glyph glyph-name="Ograve" unicode="&#xd2;" horiz-adv-x="794" 
d="M750 350q0 -167 -100 -264.5t-253 -97.5t-253 97.5t-100 264.5t100 264.5t253 97.5t253 -97.5t100 -264.5zM402 144q68 0 111 50t43 148q0 96 -47 155t-117 59q-68 0 -111 -50t-43 -148q0 -96 47 -155t117 -59zM391 762l-131 94q24 51 59 81q18 15 37 15q14 0 33 -20
l109 -116l-50 -54q-13 -13 -25 -13q-13 0 -32 13z" />
    <glyph glyph-name="Oacute" unicode="&#xd3;" horiz-adv-x="794" 
d="M750 350q0 -167 -100 -264.5t-253 -97.5t-253 97.5t-100 264.5t100 264.5t253 97.5t253 -97.5t100 -264.5zM402 144q68 0 111 50t43 148q0 96 -47 155t-117 59q-68 0 -111 -50t-43 -148q0 -96 47 -155t117 -59zM527 856l-131 -94q-19 -13 -32 -13q-12 0 -25 13l-50 54
l109 116q19 20 33 20q19 0 37 -15q35 -30 59 -81z" />
    <glyph glyph-name="Ocircumflex" unicode="&#xd4;" horiz-adv-x="794" 
d="M750 350q0 -167 -100 -264.5t-253 -97.5t-253 97.5t-100 264.5t100 264.5t253 97.5t253 -97.5t100 -264.5zM402 144q68 0 111 50t43 148q0 96 -47 155t-117 59q-68 0 -111 -50t-43 -148q0 -96 47 -155t117 -59zM397 836l-88 -87q-38 14 -65 43q-12 14 -12 26q0 11 10 20
l124 109h40q23 0 40 -16l128 -112l-49 -54q-15 -15 -27 -15t-28 14z" />
    <glyph glyph-name="Otilde" unicode="&#xd5;" horiz-adv-x="794" 
d="M750 350q0 -167 -100 -264.5t-253 -97.5t-253 97.5t-100 264.5t100 264.5t253 97.5t253 -97.5t100 -264.5zM402 144q68 0 111 50t43 148q0 96 -47 155t-117 59q-68 0 -111 -50t-43 -148q0 -96 47 -155t117 -59zM459 925l74 -19q25 -7 22 -33q-7 -49 -34 -77t-63 -28
q-38 0 -66 22q-27 21 -37 21t-14.5 -9.5t-7.5 -33.5q-40 -3 -74 11q-22 10 -22 29q0 12 4 28q24 84 93 84q38 0 66 -22q27 -21 37 -21q18 0 22 48z" />
    <glyph glyph-name="Odieresis" unicode="&#xd6;" horiz-adv-x="794" 
d="M750 350q0 -167 -100 -264.5t-253 -97.5t-253 97.5t-100 264.5t100 264.5t253 97.5t253 -97.5t100 -264.5zM402 144q68 0 111 50t43 148q0 96 -47 155t-117 59q-68 0 -111 -50t-43 -148q0 -96 47 -155t117 -59zM300 765q-33 0 -56.5 23.5t-23.5 60.5q0 34 20.5 55
t53.5 21t56.5 -23.5t23.5 -60.5q0 -34 -20.5 -55t-53.5 -21zM501 765q-33 0 -56.5 23.5t-23.5 60.5q0 34 20.5 55t53.5 21t56.5 -23.5t23.5 -60.5q0 -34 -20.5 -55t-53.5 -21z" />
    <glyph glyph-name="multiply" unicode="&#xd7;" horiz-adv-x="626" 
d="M166 120l-86 87l122 119l-122 120q27 51 65 89q37 36 66 7l102 -105l102 105q29 29 66 -7q38 -38 65 -89l-123 -120l123 -119l-86 -87q-27 -27 -49 -5l-98 101l-98 -101q-22 -22 -49 5z" />
    <glyph glyph-name="Oslash" unicode="&#xd8;" horiz-adv-x="794" 
d="M135 0h-72q-20 0 -26 9t4 20l78 85q-75 96 -75 236q0 167 100 264.5t253 97.5q122 0 213 -65l49 53h72q20 0 26 -9t-4 -20l-78 -85q75 -96 75 -236q0 -167 -100 -264.5t-253 -97.5q-124 0 -214 64zM402 144q68 0 111 50t43 148q0 52 -16 98l-237 -257q42 -39 99 -39z
M238 358q0 -53 16 -98l236 257q-42 39 -98 39q-68 0 -111 -50t-43 -148z" />
    <glyph glyph-name="Ugrave" unicode="&#xd9;" horiz-adv-x="728" 
d="M68 290v404q68 16 143 16q51 0 51 -41v-393q0 -64 27.5 -98t74.5 -34q48 0 75 33.5t27 98.5v424h156q38 0 38 -31v-379q0 -141 -79.5 -221.5t-216.5 -80.5q-136 0 -216 80.5t-80 221.5zM358 762l-131 94q24 51 59 81q18 15 37 15q14 0 33 -20l109 -116l-50 -54
q-13 -13 -25 -13q-13 0 -32 13z" />
    <glyph glyph-name="Uacute" unicode="&#xda;" horiz-adv-x="728" 
d="M68 290v404q68 16 143 16q51 0 51 -41v-393q0 -64 27.5 -98t74.5 -34q48 0 75 33.5t27 98.5v424h156q38 0 38 -31v-379q0 -141 -79.5 -221.5t-216.5 -80.5q-136 0 -216 80.5t-80 221.5zM493 856l-131 -94q-19 -13 -32 -13q-12 0 -25 13l-50 54l109 116q19 20 33 20
q19 0 37 -15q35 -30 59 -81z" />
    <glyph glyph-name="Ucircumflex" unicode="&#xdb;" horiz-adv-x="728" 
d="M68 290v404q68 16 143 16q51 0 51 -41v-393q0 -64 27.5 -98t74.5 -34q48 0 75 33.5t27 98.5v424h156q38 0 38 -31v-379q0 -141 -79.5 -221.5t-216.5 -80.5q-136 0 -216 80.5t-80 221.5zM364 836l-88 -87q-38 14 -65 43q-12 14 -12 26q0 11 10 20l124 109h40q23 0 40 -16
l128 -112l-49 -54q-15 -15 -27 -15t-28 14z" />
    <glyph glyph-name="Udieresis" unicode="&#xdc;" horiz-adv-x="728" 
d="M68 694v-404q0 -141 80 -221.5t216 -80.5q137 0 216.5 80.5t79.5 221.5v379q0 31 -38 31h-156v-424q0 -65 -27 -98.5t-75 -33.5q-47 0 -74.5 34t-27.5 98v393q0 41 -51 41q-75 0 -143 -16zM267 765q-33 0 -56.5 23.5t-23.5 60.5q0 34 20.5 55t53.5 21t56.5 -23.5
t23.5 -60.5q0 -34 -20.5 -55t-53.5 -21zM468 765q-33 0 -56.5 23.5t-23.5 60.5q0 34 20.5 55t53.5 21t56.5 -23.5t23.5 -60.5q0 -34 -20.5 -55t-53.5 -21z" />
    <glyph glyph-name="Yacute" unicode="&#xdd;" horiz-adv-x="679" 
d="M431 0h-156q-38 0 -38 31v210l-214 383q29 34 68.5 60t71.5 26q27 0 42 -29l136 -271q41 61 77 142t51 148h139q59 0 44 -51q-26 -93 -87 -204t-134 -203v-242zM473 856l-131 -94q-19 -13 -32 -13q-12 0 -25 13l-50 54l109 116q19 20 33 20q19 0 37 -15q35 -30 59 -81z
" />
    <glyph glyph-name="Thorn" unicode="&#xde;" horiz-adv-x="657" 
d="M266 97v-97h-156q-38 0 -38 31v663q68 16 143 16q51 0 51 -41v-60h61q137 0 215.5 -70.5t78.5 -195.5q0 -117 -77 -187t-197 -70q-39 0 -81 11zM266 453v-206q25 -5 51 -5q51 0 80.5 27t29.5 78q0 52 -28 79t-79 27h-54z" />
    <glyph glyph-name="germandbls" unicode="&#xdf;" horiz-adv-x="676" 
d="M438 -12q-60 0 -106 29t-46 64q0 43 29 87q33 -14 70 -14q31 0 49 16t18 47q0 34 -32 59.5t-102 28.5q-22 48 -22 85q0 20 7.5 30t26.5 19q43 20 43 62q0 27 -15 42.5t-38 15.5q-62 0 -62 -87v-472h-156q-38 0 -38 31v417q0 123 66 193.5t192 70.5q106 0 173 -55.5
t67 -137.5q0 -48 -27 -84.5t-68 -53.5q74 -18 126.5 -73.5t52.5 -129.5q0 -80 -56 -135t-152 -55z" />
    <glyph glyph-name="agrave" unicode="&#xe0;" horiz-adv-x="602" 
d="M239 418q-75 0 -143 -33q-20 30 -20 65q0 33 66 64.5t150 31.5q233 0 233 -219v-155q0 -39 30 -39h27q10 -32 10 -60q0 -30 -32 -55t-80 -25q-78 0 -117 66q-46 -71 -140 -71q-83 0 -135 50t-52 126q0 79 56.5 125t148.5 46q66 0 98 -16v29q0 70 -100 70zM272 116
q52 0 69 56v55q-21 7 -54 7q-31 0 -49 -18t-18 -46q0 -25 15 -39.5t37 -14.5zM302 588l-131 94q24 51 59 81q18 15 37 15q14 0 33 -20l109 -116l-50 -54q-13 -13 -25 -13q-13 0 -32 13z" />
    <glyph glyph-name="aacute" unicode="&#xe1;" horiz-adv-x="602" 
d="M239 418q-75 0 -143 -33q-20 30 -20 65q0 33 66 64.5t150 31.5q233 0 233 -219v-155q0 -39 30 -39h27q10 -32 10 -60q0 -30 -32 -55t-80 -25q-78 0 -117 66q-46 -71 -140 -71q-83 0 -135 50t-52 126q0 79 56.5 125t148.5 46q66 0 98 -16v29q0 70 -100 70zM272 116
q52 0 69 56v55q-21 7 -54 7q-31 0 -49 -18t-18 -46q0 -25 15 -39.5t37 -14.5zM418 682l-131 -94q-19 -13 -32 -13q-12 0 -25 13l-50 54l109 116q19 20 33 20q19 0 37 -15q35 -30 59 -81z" />
    <glyph glyph-name="acircumflex" unicode="&#xe2;" horiz-adv-x="602" 
d="M239 418q-75 0 -143 -33q-20 30 -20 65q0 33 66 64.5t150 31.5q233 0 233 -219v-155q0 -39 30 -39h27q10 -32 10 -60q0 -30 -32 -55t-80 -25q-78 0 -117 66q-46 -71 -140 -71q-83 0 -135 50t-52 126q0 79 56.5 125t148.5 46q66 0 98 -16v29q0 70 -100 70zM272 116
q52 0 69 56v55q-21 7 -54 7q-31 0 -49 -18t-18 -46q0 -25 15 -39.5t37 -14.5zM298 662l-88 -87q-38 14 -65 43q-12 14 -12 26q0 11 10 20l124 109h40q23 0 40 -16l128 -112l-49 -54q-15 -15 -27 -15t-28 14z" />
    <glyph glyph-name="atilde" unicode="&#xe3;" horiz-adv-x="602" 
d="M239 418q-75 0 -143 -33q-20 30 -20 65q0 33 66 64.5t150 31.5q233 0 233 -219v-155q0 -39 30 -39h27q10 -32 10 -60q0 -30 -32 -55t-80 -25q-78 0 -117 66q-46 -71 -140 -71q-83 0 -135 50t-52 126q0 79 56.5 125t148.5 46q66 0 98 -16v29q0 70 -100 70zM272 116
q52 0 69 56v55q-21 7 -54 7q-31 0 -49 -18t-18 -46q0 -25 15 -39.5t37 -14.5zM360 750l74 -19q25 -7 22 -33q-7 -49 -34 -77t-63 -28q-38 0 -66 22q-27 21 -37 21t-14.5 -9.5t-7.5 -33.5q-40 -3 -74 11q-22 10 -22 29q0 12 4 28q24 84 93 84q38 0 66 -22q27 -21 37 -21
q18 0 22 48z" />
    <glyph glyph-name="adieresis" unicode="&#xe4;" horiz-adv-x="602" 
d="M239 418q-75 0 -143 -33q-20 30 -20 65q0 33 66 64.5t150 31.5q233 0 233 -219v-155q0 -39 30 -39h27q10 -32 10 -60q0 -30 -32 -55t-80 -25q-78 0 -117 66q-46 -71 -140 -71q-83 0 -135 50t-52 126q0 79 56.5 125t148.5 46q66 0 98 -16v29q0 70 -100 70zM272 116
q52 0 69 56v55q-21 7 -54 7q-31 0 -49 -18t-18 -46q0 -25 15 -39.5t37 -14.5zM201 591q-33 0 -56.5 23.5t-23.5 60.5q0 34 20.5 55t53.5 21t56.5 -23.5t23.5 -60.5q0 -34 -20.5 -55t-53.5 -21zM402 591q-33 0 -56.5 23.5t-23.5 60.5q0 34 20.5 55t53.5 21t56.5 -23.5
t23.5 -60.5q0 -34 -20.5 -55t-53.5 -21z" />
    <glyph glyph-name="aring" unicode="&#xe5;" horiz-adv-x="602" 
d="M239 418q-75 0 -143 -33q-20 30 -20 65q0 33 66 64.5t150 31.5q233 0 233 -219v-155q0 -39 30 -39h27q10 -32 10 -60q0 -30 -32 -55t-80 -25q-78 0 -117 66q-46 -71 -140 -71q-83 0 -135 50t-52 126q0 79 56.5 125t148.5 46q66 0 98 -16v29q0 70 -100 70zM272 116
q52 0 69 56v55q-21 7 -54 7q-31 0 -49 -18t-18 -46q0 -25 15 -39.5t37 -14.5zM292 779q47 0 78 -30t31 -74t-31 -74t-78 -30t-78 30t-31 74t31 74t78 30zM293 643q13 0 21.5 8t8.5 23q0 14 -9 23.5t-23 9.5q-13 0 -21.5 -8t-8.5 -23q0 -14 9 -23.5t23 -9.5z" />
    <glyph glyph-name="ae" unicode="&#xe6;" horiz-adv-x="895" 
d="M620 -12q-124 0 -195 82q-27 -38 -75 -60t-109 -22q-98 0 -151.5 49.5t-53.5 126.5q0 79 56.5 125t148.5 46q66 0 98 -16v29q0 70 -100 70q-75 0 -143 -33q-20 30 -20 65q0 34 64.5 65t151.5 31q108 0 165 -71q68 71 176 71q101 0 163.5 -57.5t62.5 -147.5q0 -51 -22 -91
q-12 -21 -31 -29.5t-55 -8.5h-222q10 -46 45.5 -70t88.5 -24q76 0 122 27q24 -36 24 -70q0 -27 -54.5 -57t-134.5 -30zM625 416q-42 0 -68 -27.5t-31 -75.5h152q8 13 8 38q0 30 -17 47.5t-44 17.5zM272 116q69 0 69 111q-21 7 -54 7q-31 0 -49 -18t-18 -46q0 -25 15 -39.5
t37 -14.5z" />
    <glyph glyph-name="ccedilla" unicode="&#xe7;" horiz-adv-x="566" 
d="M301 -246q-45 0 -76 10v66q0 25 27 19q12 -3 23 -3q33 0 33 23q0 27 -51 33q-17 8 -17 16q0 3 2 7l36 68q-104 17 -171 95t-67 194q0 115 73 189.5t197 74.5q75 0 133 -28.5t86 -74.5q11 -18 11 -37q0 -27 -37 -48q-43 -24 -118 -33q-18 81 -78 81q-39 0 -61 -32t-22 -90
q0 -70 43 -113t116 -43q70 0 118 30q26 -38 26 -75q0 -23 -38.5 -50.5t-98.5 -38.5l-28 -54q33 -7 52 -29t19 -51q0 -47 -37 -76.5t-95 -29.5z" />
    <glyph glyph-name="egrave" unicode="&#xe8;" horiz-adv-x="594" 
d="M319 -12q-123 0 -201 79t-78 198q0 124 80.5 202.5t200.5 78.5q109 0 173 -57t64 -148q0 -51 -22 -91q-12 -21 -31 -29.5t-55 -8.5h-222q10 -46 45.5 -70t88.5 -24q76 0 122 27q24 -36 24 -70q0 -27 -54.5 -57t-134.5 -30zM324 416q-42 0 -68 -27.5t-31 -75.5h152
q8 14 8 38q0 30 -17 47.5t-44 17.5zM314 588l-131 94q24 51 59 81q18 15 37 15q14 0 33 -20l109 -116l-50 -54q-13 -13 -25 -13q-13 0 -32 13z" />
    <glyph glyph-name="eacute" unicode="&#xe9;" horiz-adv-x="594" 
d="M319 -12q-123 0 -201 79t-78 198q0 124 80.5 202.5t200.5 78.5q109 0 173 -57t64 -148q0 -51 -22 -91q-12 -21 -31 -29.5t-55 -8.5h-222q10 -46 45.5 -70t88.5 -24q76 0 122 27q24 -36 24 -70q0 -27 -54.5 -57t-134.5 -30zM324 416q-42 0 -68 -27.5t-31 -75.5h152
q8 14 8 38q0 30 -17 47.5t-44 17.5zM430 682l-131 -94q-19 -13 -32 -13q-12 0 -25 13l-50 54l109 116q19 20 33 20q19 0 37 -15q35 -30 59 -81z" />
    <glyph glyph-name="ecircumflex" unicode="&#xea;" horiz-adv-x="594" 
d="M319 -12q-123 0 -201 79t-78 198q0 124 80.5 202.5t200.5 78.5q109 0 173 -57t64 -148q0 -51 -22 -91q-12 -21 -31 -29.5t-55 -8.5h-222q10 -46 45.5 -70t88.5 -24q76 0 122 27q24 -36 24 -70q0 -27 -54.5 -57t-134.5 -30zM324 416q-42 0 -68 -27.5t-31 -75.5h152
q8 14 8 38q0 30 -17 47.5t-44 17.5zM310 662l-88 -87q-38 14 -65 43q-12 14 -12 26q0 11 10 20l124 109h40q23 0 40 -16l128 -112l-49 -54q-15 -15 -27 -15t-28 14z" />
    <glyph glyph-name="edieresis" unicode="&#xeb;" horiz-adv-x="594" 
d="M319 -12q-123 0 -201 79t-78 198q0 124 80.5 202.5t200.5 78.5q109 0 173 -57t64 -148q0 -51 -22 -91q-12 -21 -31 -29.5t-55 -8.5h-222q10 -46 45.5 -70t88.5 -24q76 0 122 27q24 -36 24 -70q0 -27 -54.5 -57t-134.5 -30zM324 416q-42 0 -68 -27.5t-31 -75.5h152
q8 14 8 38q0 30 -17 47.5t-44 17.5zM214 591q-33 0 -56.5 23.5t-23.5 60.5q0 34 20.5 55t53.5 21t56.5 -23.5t23.5 -60.5q0 -34 -20.5 -55t-53.5 -21zM415 591q-33 0 -56.5 23.5t-23.5 60.5q0 34 20.5 55t53.5 21t56.5 -23.5t23.5 -60.5q0 -34 -20.5 -55t-53.5 -21z" />
    <glyph glyph-name="igrave" unicode="&#xec;" horiz-adv-x="335" 
d="M248 501v-329q0 -39 30 -39h27q10 -32 10 -60q0 -30 -32 -55t-80 -25q-59 0 -99 36.5t-40 110.5v386q60 15 135 15q49 0 49 -40zM136 588l-131 94q24 51 59 81q18 15 37 15q14 0 33 -20l109 -116l-50 -54q-13 -13 -25 -13q-13 0 -32 13z" />
    <glyph glyph-name="iacute" unicode="&#xed;" horiz-adv-x="335" 
d="M248 501v-329q0 -39 30 -39h27q10 -32 10 -60q0 -30 -32 -55t-80 -25q-59 0 -99 36.5t-40 110.5v386q60 15 135 15q49 0 49 -40zM299 682l-131 -94q-19 -13 -32 -13q-12 0 -25 13l-50 54l109 116q19 20 33 20q19 0 37 -15q35 -30 59 -81z" />
    <glyph glyph-name="icircumflex" unicode="&#xee;" horiz-adv-x="335" 
d="M248 501v-329q0 -39 30 -39h27q10 -32 10 -60q0 -30 -32 -55t-80 -25q-59 0 -99 36.5t-40 110.5v386q60 15 135 15q49 0 49 -40zM155 662l-88 -87q-38 14 -65 43q-12 14 -12 26q0 11 10 20l124 109h40q23 0 40 -16l128 -112l-49 -54q-15 -15 -27 -15t-28 14z" />
    <glyph glyph-name="idieresis" unicode="&#xef;" horiz-adv-x="335" 
d="M248 501v-329q0 -39 30 -39h27q10 -32 10 -60q0 -30 -32 -55t-80 -25q-59 0 -99 36.5t-40 110.5v386q60 15 135 15q49 0 49 -40zM58 591q-33 0 -56.5 23.5t-23.5 60.5q0 34 20.5 55t53.5 21t56.5 -23.5t23.5 -60.5q0 -34 -20.5 -55t-53.5 -21zM259 591q-33 0 -56.5 23.5
t-23.5 60.5q0 34 20.5 55t53.5 21t56.5 -23.5t23.5 -60.5q0 -34 -20.5 -55t-53.5 -21z" />
    <glyph glyph-name="eth" unicode="&#xf0;" horiz-adv-x="630" 
d="M479 688l35 22q21 14 38 -14l27 -46l-47 -28q53 -90 53 -277q0 -170 -78 -263.5t-220 -93.5q-112 0 -181.5 64t-69.5 163q0 119 70.5 191.5t175.5 72.5q74 0 118 -44q0 67 -17 95l-44 -27q-24 -15 -39 8q-15 24 -23 54l55 34q-23 13 -64 13q-72 0 -128 -28q-24 34 -24 75
q0 30 59.5 56.5t128.5 26.5q120 0 175 -54zM324 339q-46 0 -75 -34.5t-29 -91.5q0 -40 22 -62.5t57 -22.5q43 0 71 47t31 132q-30 32 -77 32z" />
    <glyph glyph-name="ntilde" unicode="&#xf1;" horiz-adv-x="649" 
d="M248 0h-146q-38 0 -38 31v495q60 15 135 15q49 0 49 -40v-23q57 68 147 68q85 0 130 -55.5t45 -166.5v-152q0 -39 30 -39h27q10 -32 10 -60q0 -30 -32 -55t-80 -25q-59 0 -99 36.5t-40 110.5v190q0 76 -64 76q-40 0 -74 -28v-378zM379 750l74 -19q25 -7 22 -33
q-7 -49 -34 -77t-63 -28q-38 0 -66 22q-27 21 -37 21t-14.5 -9.5t-7.5 -33.5q-40 -3 -74 11q-22 10 -22 29q0 12 4 28q24 84 93 84q38 0 66 -22q27 -21 37 -21q18 0 22 48z" />
    <glyph glyph-name="ograve" unicode="&#xf2;" horiz-adv-x="644" 
d="M322 546q117 0 199.5 -75.5t82.5 -203.5t-82.5 -203.5t-199.5 -75.5t-199.5 75.5t-82.5 203.5t82.5 203.5t199.5 75.5zM326 128q44 0 69 34.5t25 99.5q0 67 -27.5 105.5t-74.5 38.5q-44 0 -69 -34.5t-25 -99.5q0 -67 27.5 -105.5t74.5 -38.5zM315 588l-131 94
q24 51 59 81q18 15 37 15q14 0 33 -20l109 -116l-50 -54q-13 -13 -25 -13q-13 0 -32 13z" />
    <glyph glyph-name="oacute" unicode="&#xf3;" horiz-adv-x="644" 
d="M322 546q117 0 199.5 -75.5t82.5 -203.5t-82.5 -203.5t-199.5 -75.5t-199.5 75.5t-82.5 203.5t82.5 203.5t199.5 75.5zM326 128q44 0 69 34.5t25 99.5q0 67 -27.5 105.5t-74.5 38.5q-44 0 -69 -34.5t-25 -99.5q0 -67 27.5 -105.5t74.5 -38.5zM451 682l-131 -94
q-19 -13 -32 -13q-12 0 -25 13l-50 54l109 116q19 20 33 20q19 0 37 -15q35 -30 59 -81z" />
    <glyph glyph-name="ocircumflex" unicode="&#xf4;" horiz-adv-x="644" 
d="M322 546q117 0 199.5 -75.5t82.5 -203.5t-82.5 -203.5t-199.5 -75.5t-199.5 75.5t-82.5 203.5t82.5 203.5t199.5 75.5zM326 128q44 0 69 34.5t25 99.5q0 67 -27.5 105.5t-74.5 38.5q-44 0 -69 -34.5t-25 -99.5q0 -67 27.5 -105.5t74.5 -38.5zM322 662l-88 -87
q-38 14 -65 43q-12 14 -12 26q0 11 10 20l124 109h40q23 0 40 -16l128 -112l-49 -54q-15 -15 -27 -15t-28 14z" />
    <glyph glyph-name="otilde" unicode="&#xf5;" horiz-adv-x="644" 
d="M322 546q117 0 199.5 -75.5t82.5 -203.5t-82.5 -203.5t-199.5 -75.5t-199.5 75.5t-82.5 203.5t82.5 203.5t199.5 75.5zM326 128q44 0 69 34.5t25 99.5q0 67 -27.5 105.5t-74.5 38.5q-44 0 -69 -34.5t-25 -99.5q0 -67 27.5 -105.5t74.5 -38.5zM384 750l74 -19
q25 -7 22 -33q-7 -49 -34 -77t-63 -28q-38 0 -66 22q-27 21 -37 21t-14.5 -9.5t-7.5 -33.5q-40 -3 -74 11q-22 10 -22 29q0 12 4 28q24 84 93 84q38 0 66 -22q27 -21 37 -21q18 0 22 48z" />
    <glyph glyph-name="odieresis" unicode="&#xf6;" horiz-adv-x="644" 
d="M322 546q117 0 199.5 -75.5t82.5 -203.5t-82.5 -203.5t-199.5 -75.5t-199.5 75.5t-82.5 203.5t82.5 203.5t199.5 75.5zM326 128q44 0 69 34.5t25 99.5q0 67 -27.5 105.5t-74.5 38.5q-44 0 -69 -34.5t-25 -99.5q0 -67 27.5 -105.5t74.5 -38.5zM225 591q-33 0 -56.5 23.5
t-23.5 60.5q0 34 20.5 55t53.5 21t56.5 -23.5t23.5 -60.5q0 -34 -20.5 -55t-53.5 -21zM426 591q-33 0 -56.5 23.5t-23.5 60.5q0 34 20.5 55t53.5 21t56.5 -23.5t23.5 -60.5q0 -34 -20.5 -55t-53.5 -21z" />
    <glyph glyph-name="divide" unicode="&#xf7;" horiz-adv-x="626" 
d="M101 265h461v103q0 31 -38 31h-447q-13 -45 -13 -95q0 -39 37 -39zM316 441q-35 0 -60.5 25t-25.5 65q0 37 22.5 59.5t57.5 22.5t60.5 -25t25.5 -65q0 -37 -22.5 -59.5t-57.5 -22.5zM316 51q-35 0 -60.5 25t-25.5 65q0 37 22.5 59.5t57.5 22.5t60.5 -25t25.5 -65
q0 -37 -22.5 -59.5t-57.5 -22.5z" />
    <glyph glyph-name="oslash" unicode="&#xf8;" horiz-adv-x="644" 
d="M510 534h67q20 0 26 -9t-4 -20l-55 -60q60 -73 60 -178q0 -128 -82.5 -203.5t-199.5 -75.5q-89 0 -159 44l-29 -32h-67q-20 0 -26 9t4 20l54 59q-59 73 -59 179q0 128 82.5 203.5t199.5 75.5q88 0 158 -44zM224 272q0 -24 3 -45l147 160q-24 19 -56 19q-44 0 -69 -34.5
t-25 -99.5zM326 128q44 0 69 34.5t25 99.5q0 27 -4 44l-147 -159q23 -19 57 -19z" />
    <glyph glyph-name="ugrave" unicode="&#xf9;" horiz-adv-x="626" 
d="M568 503v-273q0 -111 -70.5 -176t-184.5 -65q-115 0 -185 65t-70 176v296q60 15 135 15q49 0 49 -40v-277q0 -42 18.5 -65t52.5 -23t52.5 23.5t18.5 64.5v310h146q38 0 38 -31zM305 588l-131 94q24 51 59 81q18 15 37 15q14 0 33 -20l109 -116l-50 -54q-13 -13 -25 -13
q-13 0 -32 13z" />
    <glyph glyph-name="uacute" unicode="&#xfa;" horiz-adv-x="626" 
d="M568 503v-273q0 -111 -70.5 -176t-184.5 -65q-115 0 -185 65t-70 176v296q60 15 135 15q49 0 49 -40v-277q0 -42 18.5 -65t52.5 -23t52.5 23.5t18.5 64.5v310h146q38 0 38 -31zM443 682l-131 -94q-19 -13 -32 -13q-12 0 -25 13l-50 54l109 116q19 20 33 20q19 0 37 -15
q35 -30 59 -81z" />
    <glyph glyph-name="ucircumflex" unicode="&#xfb;" horiz-adv-x="626" 
d="M568 503v-273q0 -111 -70.5 -176t-184.5 -65q-115 0 -185 65t-70 176v296q60 15 135 15q49 0 49 -40v-277q0 -42 18.5 -65t52.5 -23t52.5 23.5t18.5 64.5v310h146q38 0 38 -31zM312 662l-88 -87q-38 14 -65 43q-12 14 -12 26q0 11 10 20l124 109h40q23 0 40 -16l128 -112
l-49 -54q-15 -15 -27 -15t-28 14z" />
    <glyph glyph-name="udieresis" unicode="&#xfc;" horiz-adv-x="626" 
d="M568 230v273q0 31 -38 31h-146v-310q0 -41 -18.5 -64.5t-52.5 -23.5t-52.5 23t-18.5 65v277q0 40 -49 40q-75 0 -135 -15v-296q0 -111 70 -176t185 -65q114 0 184.5 65t70.5 176zM216 591q-33 0 -56.5 23.5t-23.5 60.5q0 34 20.5 55t53.5 21t56.5 -23.5t23.5 -60.5
q0 -34 -20.5 -55t-53.5 -21zM417 591q-33 0 -56.5 23.5t-23.5 60.5q0 34 20.5 55t53.5 21t56.5 -23.5t23.5 -60.5q0 -34 -20.5 -55t-53.5 -21z" />
    <glyph glyph-name="yacute" unicode="&#xfd;" horiz-adv-x="632" 
d="M568 503v-491q0 -113 -73 -186.5t-216 -73.5q-96 0 -153.5 40t-57.5 103q0 38 22 69t61 48q-89 47 -89 198v311q60 15 135 15q49 0 49 -40v-292q0 -76 63 -76q38 0 75 28v378h146q38 0 38 -31zM384 56q-41 -48 -95 -62q-39 -28 -39 -65q0 -20 12 -31t34 -11
q41 0 64.5 31.5t23.5 89.5v48zM446 682l-131 -94q-19 -13 -32 -13q-12 0 -25 13l-50 54l109 116q19 20 33 20q19 0 37 -15q35 -30 59 -81z" />
    <glyph glyph-name="thorn" unicode="&#xfe;" horiz-adv-x="653" 
d="M248 35v-228h-146q-38 0 -38 31v884q60 15 135 15q49 0 49 -40v-228q54 77 146 77q95 0 157 -70.5t62 -185.5q0 -137 -73 -219.5t-172 -82.5q-76 0 -120 47zM248 330v-179q26 -23 66 -23q50 0 82.5 44.5t32.5 113.5q0 120 -86 120q-30 0 -55.5 -20t-39.5 -56z" />
    <glyph glyph-name="ydieresis" unicode="&#xff;" horiz-adv-x="632" 
d="M568 503v-491q0 -113 -73 -186.5t-216 -73.5q-96 0 -153.5 40t-57.5 103q0 38 22 69t61 48q-89 47 -89 198v311q60 15 135 15q49 0 49 -40v-292q0 -76 63 -76q38 0 75 28v378h146q38 0 38 -31zM384 56q-41 -48 -95 -62q-39 -28 -39 -65q0 -20 12 -31t34 -11
q41 0 64.5 31.5t23.5 89.5v48zM218 591q-33 0 -56.5 23.5t-23.5 60.5q0 34 20.5 55t53.5 21t56.5 -23.5t23.5 -60.5q0 -34 -20.5 -55t-53.5 -21zM419 591q-33 0 -56.5 23.5t-23.5 60.5q0 34 20.5 55t53.5 21t56.5 -23.5t23.5 -60.5q0 -34 -20.5 -55t-53.5 -21z" />
    <glyph glyph-name="Amacron" unicode="&#x100;" horiz-adv-x="710" 
d="M535 0h166l-237 655q-11 30 -27 41t-51 11q-67 0 -131 -27l-233 -645q-5 -16 3.5 -25.5t26.5 -9.5h162l33 111h216l26 -83q9 -28 46 -28zM291 257l64 209l64 -209h-128zM503 849v-69h-257q-39 0 -39 39q0 32 12 68h253q31 0 31 -38z" />
    <glyph glyph-name="amacron" unicode="&#x101;" horiz-adv-x="602" 
d="M239 418q-75 0 -143 -33q-20 30 -20 65q0 33 66 64.5t150 31.5q233 0 233 -219v-155q0 -39 30 -39h27q10 -32 10 -60q0 -30 -32 -55t-80 -25q-78 0 -117 66q-46 -71 -140 -71q-83 0 -135 50t-52 126q0 79 56.5 125t148.5 46q66 0 98 -16v29q0 70 -100 70zM272 116
q52 0 69 56v55q-21 7 -54 7q-31 0 -49 -18t-18 -46q0 -25 15 -39.5t37 -14.5zM446 684v-69h-257q-39 0 -39 39q0 32 12 68h253q31 0 31 -38z" />
    <glyph glyph-name="Abreve" unicode="&#x102;" horiz-adv-x="710" 
d="M535 0h166l-237 655q-11 30 -27 41t-51 11q-67 0 -131 -27l-233 -645q-5 -16 3.5 -25.5t26.5 -9.5h162l33 111h216l26 -83q9 -28 46 -28zM291 257l64 209l64 -209h-128zM311 912q9 -59 46 -59q23 0 34 18t12 63h81q17 0 23 -5.5t5 -18.5q-6 -72 -47 -110.5t-109 -38.5
q-137 0 -158 148q34 27 81 27q28 0 32 -24z" />
    <glyph glyph-name="abreve" unicode="&#x103;" horiz-adv-x="602" 
d="M239 418q-75 0 -143 -33q-20 30 -20 65q0 33 66 64.5t150 31.5q233 0 233 -219v-155q0 -39 30 -39h27q10 -32 10 -60q0 -30 -32 -55t-80 -25q-78 0 -117 66q-46 -71 -140 -71q-83 0 -135 50t-52 126q0 79 56.5 125t148.5 46q66 0 98 -16v29q0 70 -100 70zM272 116
q52 0 69 56v55q-21 7 -54 7q-31 0 -49 -18t-18 -46q0 -25 15 -39.5t37 -14.5zM253 737q9 -59 46 -59q23 0 34 18t12 63h81q17 0 23 -5.5t5 -18.5q-6 -72 -47 -110.5t-109 -38.5q-137 0 -158 148q34 27 81 27q28 0 32 -24z" />
    <glyph glyph-name="Aogonek" unicode="&#x104;" horiz-adv-x="710" 
d="M585 0h-50q-37 0 -46 28l-26 83h-216l-33 -111h-162q-18 0 -26.5 9.5t-3.5 25.5l233 645q64 27 131 27q35 0 51 -11t27 -41l237 -655q-69 -49 -69 -107q0 -17 11 -27t29 -10q13 0 21 3q26 8 26 -19v-63q-29 -17 -86 -17q-56 0 -91 29.5t-35 79.5q0 36 21 72.5t57 58.5z
M355 466l-64 -209h128z" />
    <glyph glyph-name="aogonek" unicode="&#x105;" horiz-adv-x="602" 
d="M272 116q52 0 69 56v55q-21 7 -54 7q-31 0 -49 -18t-18 -46q0 -25 15 -39.5t37 -14.5zM555 133h27q10 -32 10 -60q0 -23 -19 -43.5t-51 -30.5q-67 -48 -67 -106q0 -17 11 -27t29 -10q13 0 21 3q26 8 26 -19v-63q-29 -17 -86 -17q-56 0 -91 29.5t-35 79.5q0 38 22.5 76
t66.5 62q-36 18 -56 52q-46 -71 -140 -71q-83 0 -135 50t-52 126q0 79 56.5 125t148.5 46q66 0 98 -16v29q0 70 -100 70q-75 0 -143 -33q-20 30 -20 65q0 33 66 64.5t150 31.5q233 0 233 -219v-155q0 -39 30 -39z" />
    <glyph glyph-name="Cacute" unicode="&#x106;" horiz-adv-x="710" 
d="M512 448q-38 108 -131 108q-65 0 -104 -49t-39 -137q0 -100 60.5 -163t161.5 -63q100 0 165 37q11 -15 20.5 -40.5t9.5 -43.5q0 -37 -73.5 -73t-164.5 -36q-161 0 -267 106t-106 273q0 154 95.5 249.5t244.5 95.5q99 0 172.5 -38t110.5 -102q11 -19 11 -39q0 -28 -34 -48
q-56 -32 -132 -37zM503 856l-131 -94q-19 -13 -32 -13q-12 0 -25 13l-50 54l109 116q19 20 33 20q19 0 37 -15q35 -30 59 -81z" />
    <glyph glyph-name="cacute" unicode="&#x107;" horiz-adv-x="566" 
d="M527 83q0 -30 -57 -62.5t-140 -32.5q-123 0 -206.5 81.5t-83.5 212.5q0 115 73 189.5t197 74.5q75 0 133 -28.5t86 -74.5q11 -18 11 -37q0 -27 -37 -48q-43 -24 -118 -33q-18 81 -78 81q-39 0 -61 -32t-22 -90q0 -70 43 -113t116 -43q70 0 118 30q26 -38 26 -75zM425 682
l-131 -94q-19 -13 -32 -13q-12 0 -25 13l-50 54l109 116q19 20 33 20q19 0 37 -15q35 -30 59 -81z" />
    <glyph glyph-name="Ccircumflex" unicode="&#x108;" horiz-adv-x="710" 
d="M512 448q-38 108 -131 108q-65 0 -104 -49t-39 -137q0 -100 60.5 -163t161.5 -63q100 0 165 37q11 -15 20.5 -40.5t9.5 -43.5q0 -37 -73.5 -73t-164.5 -36q-161 0 -267 106t-106 273q0 154 95.5 249.5t244.5 95.5q99 0 172.5 -38t110.5 -102q11 -19 11 -39q0 -28 -34 -48
q-56 -32 -132 -37zM378 836l-88 -87q-38 14 -65 43q-12 14 -12 26q0 11 10 20l124 109h40q23 0 40 -16l128 -112l-49 -54q-15 -15 -27 -15t-28 14z" />
    <glyph glyph-name="ccircumflex" unicode="&#x109;" horiz-adv-x="566" 
d="M527 83q0 -30 -57 -62.5t-140 -32.5q-123 0 -206.5 81.5t-83.5 212.5q0 115 73 189.5t197 74.5q75 0 133 -28.5t86 -74.5q11 -18 11 -37q0 -27 -37 -48q-43 -24 -118 -33q-18 81 -78 81q-39 0 -61 -32t-22 -90q0 -70 43 -113t116 -43q70 0 118 30q26 -38 26 -75zM298 662
l-88 -87q-38 14 -65 43q-12 14 -12 26q0 11 10 20l124 109h40q23 0 40 -16l128 -112l-49 -54q-15 -15 -27 -15t-28 14z" />
    <glyph glyph-name="Cdotaccent" unicode="&#x10a;" horiz-adv-x="710" 
d="M512 448q-38 108 -131 108q-65 0 -104 -49t-39 -137q0 -100 60.5 -163t161.5 -63q100 0 165 37q11 -15 20.5 -40.5t9.5 -43.5q0 -37 -73.5 -73t-164.5 -36q-161 0 -267 106t-106 273q0 154 95.5 249.5t244.5 95.5q99 0 172.5 -38t110.5 -102q11 -19 11 -39q0 -28 -34 -48
q-56 -32 -132 -37zM381 765q-33 0 -56.5 23.5t-23.5 60.5q0 34 20.5 55t53.5 21t56.5 -23.5t23.5 -60.5q0 -34 -20.5 -55t-53.5 -21z" />
    <glyph glyph-name="cdotaccent" unicode="&#x10b;" horiz-adv-x="566" 
d="M527 83q0 -30 -57 -62.5t-140 -32.5q-123 0 -206.5 81.5t-83.5 212.5q0 115 73 189.5t197 74.5q75 0 133 -28.5t86 -74.5q11 -18 11 -37q0 -27 -37 -48q-43 -24 -118 -33q-18 81 -78 81q-39 0 -61 -32t-22 -90q0 -70 43 -113t116 -43q70 0 118 30q26 -38 26 -75zM306 591
q-33 0 -56.5 23.5t-23.5 60.5q0 34 20.5 55t53.5 21t56.5 -23.5t23.5 -60.5q0 -34 -20.5 -55t-53.5 -21z" />
    <glyph glyph-name="Ccaron" unicode="&#x10c;" horiz-adv-x="710" 
d="M512 448q-38 108 -131 108q-65 0 -104 -49t-39 -137q0 -100 60.5 -163t161.5 -63q100 0 165 37q11 -15 20.5 -40.5t9.5 -43.5q0 -37 -73.5 -73t-164.5 -36q-161 0 -267 106t-106 273q0 154 95.5 249.5t244.5 95.5q99 0 172.5 -38t110.5 -102q11 -19 11 -39q0 -28 -34 -48
q-56 -32 -132 -37zM390 861l91 90l53 -49q16 -15 16 -28t-18 -27l-110 -97h-42q-23 0 -40 16l-117 103q14 36 33 57t37 21q8 0 20 -10z" />
    <glyph glyph-name="ccaron" unicode="&#x10d;" horiz-adv-x="566" 
d="M527 83q0 -30 -57 -62.5t-140 -32.5q-123 0 -206.5 81.5t-83.5 212.5q0 115 73 189.5t197 74.5q75 0 133 -28.5t86 -74.5q11 -18 11 -37q0 -27 -37 -48q-43 -24 -118 -33q-18 81 -78 81q-39 0 -61 -32t-22 -90q0 -70 43 -113t116 -43q70 0 118 30q26 -38 26 -75zM304 687
l91 90l53 -49q16 -15 16 -28t-18 -27l-110 -97h-42q-23 0 -40 16l-117 103q14 36 33 57t37 21q8 0 20 -10z" />
    <glyph glyph-name="Dcaron" unicode="&#x10e;" horiz-adv-x="735" 
d="M340 0h-44q-117 0 -171.5 59.5t-54.5 184.5v456h280q150 0 245.5 -95t95.5 -255q0 -161 -97 -255.5t-254 -94.5zM497 350q0 97 -39.5 145.5t-111.5 48.5h-82v-287q0 -56 17.5 -78.5t57.5 -22.5h7q72 0 111.5 48.5t39.5 145.5zM331 861l91 90l53 -49q16 -15 16 -28
t-18 -27l-110 -97h-42q-23 0 -40 16l-117 103q14 36 33 57t37 21q8 0 20 -10z" />
    <glyph glyph-name="dcaron" unicode="&#x10f;" horiz-adv-x="847" 
d="M405 730h146q38 0 38 -31v-527q0 -39 30 -39h27q10 -32 10 -60q0 -30 -32 -55t-80 -25q-41 0 -75.5 22t-51.5 64q-57 -91 -158 -91q-95 0 -157 70.5t-62 185.5q0 137 73 219.5t172 82.5q76 0 120 -47v231zM405 204v179q-26 23 -66 23q-50 0 -82.5 -44.5t-32.5 -113.5
q0 -120 86 -120q30 0 55.5 20t39.5 56zM742 742q39 0 68 -27.5t29 -72.5q-1 -92 -60 -165q-25 -31 -49.5 -46.5t-35.5 -9.5q-24 14 -30 40q42 42 51 95q-28 9 -46 34t-18 60q0 42 25.5 67t65.5 25z" />
    <glyph glyph-name="Dcroat" unicode="&#x110;" horiz-adv-x="735" 
d="M8 394h62v306h280q150 0 245.5 -95t95.5 -255q0 -161 -97 -255.5t-254 -94.5h-44q-117 0 -171.5 59.5t-54.5 184.5v62h-41q-29 0 -29 27q0 35 8 61zM497 350q0 97 -39.5 145.5t-111.5 48.5h-82v-150h105q25 0 25 -32v-56h-130v-49q0 -56 17.5 -78.5t57.5 -22.5h7
q72 0 111.5 48.5t39.5 145.5z" />
    <glyph glyph-name="dcroat" unicode="&#x111;" horiz-adv-x="671" 
d="M265 673h140v57h146q38 0 38 -31v-26h36q25 0 25 -32v-56h-61v-413q0 -39 30 -39h27q10 -32 10 -60q0 -30 -32 -55t-80 -25q-41 0 -75.5 22t-51.5 64q-57 -91 -158 -91q-95 0 -157 70.5t-62 185.5q0 137 73 219.5t172 82.5q76 0 120 -47v86h-119q-29 0 -29 27q0 35 8 61z
M405 204v179q-26 23 -66 23q-50 0 -82.5 -44.5t-32.5 -113.5q0 -120 86 -120q30 0 55.5 20t39.5 56z" />
    <glyph glyph-name="Emacron" unicode="&#x112;" horiz-adv-x="591" 
d="M264 544h263q12 62 12 114q0 42 -37 42h-432v-456q0 -125 54.5 -184.5t171.5 -59.5h251v118q0 38 -31 38h-185q-39 0 -53 22t-14 79v14h221v118q0 38 -31 38h-190v117zM449 859v-69h-257q-39 0 -39 39q0 32 12 68h253q31 0 31 -38z" />
    <glyph glyph-name="emacron" unicode="&#x113;" horiz-adv-x="594" 
d="M319 -12q-123 0 -201 79t-78 198q0 124 80.5 202.5t200.5 78.5q109 0 173 -57t64 -148q0 -51 -22 -91q-12 -21 -31 -29.5t-55 -8.5h-222q10 -46 45.5 -70t88.5 -24q76 0 122 27q24 -36 24 -70q0 -27 -54.5 -57t-134.5 -30zM324 416q-42 0 -68 -27.5t-31 -75.5h152
q8 14 8 38q0 30 -17 47.5t-44 17.5zM464 684v-69h-257q-39 0 -39 39q0 32 12 68h253q31 0 31 -38z" />
    <glyph glyph-name="Ebreve" unicode="&#x114;" horiz-adv-x="591" 
d="M264 544h263q12 62 12 114q0 42 -37 42h-432v-456q0 -125 54.5 -184.5t171.5 -59.5h251v118q0 38 -31 38h-185q-39 0 -53 22t-14 79v14h221v118q0 38 -31 38h-190v117zM255 912q9 -59 46 -59q23 0 34 18t12 63h81q17 0 23 -5.5t5 -18.5q-6 -72 -47 -110.5t-109 -38.5
q-137 0 -158 148q34 27 81 27q28 0 32 -24z" />
    <glyph glyph-name="ebreve" unicode="&#x115;" horiz-adv-x="594" 
d="M319 -12q-123 0 -201 79t-78 198q0 124 80.5 202.5t200.5 78.5q109 0 173 -57t64 -148q0 -51 -22 -91q-12 -21 -31 -29.5t-55 -8.5h-222q10 -46 45.5 -70t88.5 -24q76 0 122 27q24 -36 24 -70q0 -27 -54.5 -57t-134.5 -30zM324 416q-42 0 -68 -27.5t-31 -75.5h152
q8 14 8 38q0 30 -17 47.5t-44 17.5zM271 737q9 -59 46 -59q23 0 34 18t12 63h81q17 0 23 -5.5t5 -18.5q-6 -72 -47 -110.5t-109 -38.5q-137 0 -158 148q34 27 81 27q28 0 32 -24z" />
    <glyph glyph-name="Edotaccent" unicode="&#x116;" horiz-adv-x="591" 
d="M264 544h263q12 62 12 114q0 42 -37 42h-432v-456q0 -125 54.5 -184.5t171.5 -59.5h251v118q0 38 -31 38h-185q-39 0 -53 22t-14 79v14h221v118q0 38 -31 38h-190v117zM303 765q-33 0 -56.5 23.5t-23.5 60.5q0 34 20.5 55t53.5 21t56.5 -23.5t23.5 -60.5q0 -34 -20.5 -55
t-53.5 -21z" />
    <glyph glyph-name="edotaccent" unicode="&#x117;" horiz-adv-x="594" 
d="M319 -12q-123 0 -201 79t-78 198q0 124 80.5 202.5t200.5 78.5q109 0 173 -57t64 -148q0 -51 -22 -91q-12 -21 -31 -29.5t-55 -8.5h-222q10 -46 45.5 -70t88.5 -24q76 0 122 27q24 -36 24 -70q0 -27 -54.5 -57t-134.5 -30zM324 416q-42 0 -68 -27.5t-31 -75.5h152
q8 14 8 38q0 30 -17 47.5t-44 17.5zM318 591q-33 0 -56.5 23.5t-23.5 60.5q0 34 20.5 55t53.5 21t56.5 -23.5t23.5 -60.5q0 -34 -20.5 -55t-53.5 -21z" />
    <glyph glyph-name="Eogonek" unicode="&#x118;" horiz-adv-x="591" 
d="M504 -141q26 8 26 -19v-63q-29 -17 -86 -17q-56 0 -91 29.5t-35 79.5q0 36 21 72.5t57 58.5h-100q-117 0 -171.5 59.5t-54.5 184.5v456h432q37 0 37 -42q0 -52 -12 -114h-263v-117h190q31 0 31 -38v-118h-221v-14q0 -57 14 -79t53 -22h185q31 0 31 -38v-118h-35
q-69 -49 -69 -107q0 -17 11 -27t29 -10q14 0 21 3z" />
    <glyph glyph-name="eogonek" unicode="&#x119;" horiz-adv-x="594" 
d="M40 265q0 124 80.5 202.5t200.5 78.5q109 0 173 -57t64 -148q0 -51 -22 -91q-12 -21 -31 -29.5t-55 -8.5h-222q10 -46 45.5 -70t88.5 -24q76 0 122 27q24 -36 24 -70q0 -16 -22 -35.5t-59 -33.5q-77 -52 -77 -113q0 -17 11 -27t29 -10q14 0 21 3q26 8 26 -19v-63
q-29 -17 -86 -17q-56 0 -91 29.5t-35 79.5q0 32 17 65t46 56q-111 10 -179.5 87t-68.5 188zM324 416q-42 0 -68 -27.5t-31 -75.5h152q8 14 8 38q0 30 -17 47.5t-44 17.5z" />
    <glyph glyph-name="Ecaron" unicode="&#x11a;" horiz-adv-x="591" 
d="M527 544h-263v-117h190q31 0 31 -38v-118h-221v-14q0 -57 14 -79t53 -22h185q31 0 31 -38v-118h-251q-117 0 -171.5 59.5t-54.5 184.5v456h432q37 0 37 -42q0 -52 -12 -114zM307 861l91 90l53 -49q16 -15 16 -28t-18 -27l-110 -97h-42q-23 0 -40 16l-117 103q14 36 33 57
t37 21q8 0 20 -10z" />
    <glyph glyph-name="ecaron" unicode="&#x11b;" horiz-adv-x="594" 
d="M319 -12q-123 0 -201 79t-78 198q0 124 80.5 202.5t200.5 78.5q109 0 173 -57t64 -148q0 -51 -22 -91q-12 -21 -31 -29.5t-55 -8.5h-222q10 -46 45.5 -70t88.5 -24q76 0 122 27q24 -36 24 -70q0 -27 -54.5 -57t-134.5 -30zM324 416q-42 0 -68 -27.5t-31 -75.5h152
q8 14 8 38q0 30 -17 47.5t-44 17.5zM317 687l91 90l53 -49q16 -15 16 -28t-18 -27l-110 -97h-42q-23 0 -40 16l-117 103q14 36 33 57t37 21q8 0 20 -10z" />
    <glyph glyph-name="Gcircumflex" unicode="&#x11c;" horiz-adv-x="765" 
d="M395 386h242q35 0 51.5 -15t16.5 -48v-119q0 -92 -76.5 -154t-216.5 -62q-156 0 -262 105t-106 274q0 156 97.5 250.5t252.5 94.5q98 0 173 -39.5t114 -99.5q11 -17 11 -37q0 -26 -34 -46q-56 -32 -132 -37q-45 103 -138 103q-68 0 -109 -48t-41 -138q0 -101 55.5 -163.5
t131.5 -62.5q46 0 66 16t20 53v37h-89q-39 0 -39 44q0 46 12 92zM384 836l-88 -87q-38 14 -65 43q-12 14 -12 26q0 11 10 20l124 109h40q23 0 40 -16l128 -112l-49 -54q-15 -15 -27 -15t-28 14z" />
    <glyph glyph-name="gcircumflex" unicode="&#x11d;" horiz-adv-x="653" 
d="M405 8v54q-51 -66 -131 -73q-35 -23 -35 -60q0 -41 53 -41q51 0 82 32.5t31 87.5zM405 499v35h146q38 0 38 -31v-489q0 -110 -83.5 -185.5t-226.5 -75.5q-108 0 -165 40.5t-57 106.5q0 37 25.5 69t73.5 47q-54 30 -85 89.5t-31 138.5q0 137 73 219.5t172 82.5
q76 0 120 -47zM405 204v179q-26 23 -66 23q-50 0 -82.5 -44.5t-32.5 -113.5q0 -120 86 -120q30 0 55.5 20t39.5 56zM342 662l-88 -87q-38 14 -65 43q-12 14 -12 26q0 11 10 20l124 109h40q23 0 40 -16l128 -112l-49 -54q-15 -15 -27 -15t-28 14z" />
    <glyph glyph-name="Gbreve" unicode="&#x11e;" horiz-adv-x="765" 
d="M395 386h242q35 0 51.5 -15t16.5 -48v-119q0 -92 -76.5 -154t-216.5 -62q-156 0 -262 105t-106 274q0 156 97.5 250.5t252.5 94.5q98 0 173 -39.5t114 -99.5q11 -17 11 -37q0 -26 -34 -46q-56 -32 -132 -37q-45 103 -138 103q-68 0 -109 -48t-41 -138q0 -101 55.5 -163.5
t131.5 -62.5q46 0 66 16t20 53v37h-89q-39 0 -39 44q0 46 12 92zM339 912q9 -59 46 -59q23 0 34 18t12 63h81q17 0 23 -5.5t5 -18.5q-6 -72 -47 -110.5t-109 -38.5q-137 0 -158 148q34 27 81 27q28 0 32 -24z" />
    <glyph glyph-name="gbreve" unicode="&#x11f;" horiz-adv-x="653" 
d="M405 8v54q-51 -66 -131 -73q-35 -23 -35 -60q0 -41 53 -41q51 0 82 32.5t31 87.5zM405 499v35h146q38 0 38 -31v-489q0 -110 -83.5 -185.5t-226.5 -75.5q-108 0 -165 40.5t-57 106.5q0 37 25.5 69t73.5 47q-54 30 -85 89.5t-31 138.5q0 137 73 219.5t172 82.5
q76 0 120 -47zM405 204v179q-26 23 -66 23q-50 0 -82.5 -44.5t-32.5 -113.5q0 -120 86 -120q30 0 55.5 20t39.5 56zM297 737q9 -59 46 -59q23 0 34 18t12 63h81q17 0 23 -5.5t5 -18.5q-6 -72 -47 -110.5t-109 -38.5q-137 0 -158 148q34 27 81 27q28 0 32 -24z" />
    <glyph glyph-name="Gdotaccent" unicode="&#x120;" horiz-adv-x="765" 
d="M395 386h242q35 0 51.5 -15t16.5 -48v-119q0 -92 -76.5 -154t-216.5 -62q-156 0 -262 105t-106 274q0 156 97.5 250.5t252.5 94.5q98 0 173 -39.5t114 -99.5q11 -17 11 -37q0 -26 -34 -46q-56 -32 -132 -37q-45 103 -138 103q-68 0 -109 -48t-41 -138q0 -101 55.5 -163.5
t131.5 -62.5q46 0 66 16t20 53v37h-89q-39 0 -39 44q0 46 12 92zM383 765q-33 0 -56.5 23.5t-23.5 60.5q0 34 20.5 55t53.5 21t56.5 -23.5t23.5 -60.5q0 -34 -20.5 -55t-53.5 -21z" />
    <glyph glyph-name="gdotaccent" unicode="&#x121;" horiz-adv-x="653" 
d="M405 8v54q-51 -66 -131 -73q-35 -23 -35 -60q0 -41 53 -41q51 0 82 32.5t31 87.5zM405 499v35h146q38 0 38 -31v-489q0 -110 -83.5 -185.5t-226.5 -75.5q-108 0 -165 40.5t-57 106.5q0 37 25.5 69t73.5 47q-54 30 -85 89.5t-31 138.5q0 137 73 219.5t172 82.5
q76 0 120 -47zM405 204v179q-26 23 -66 23q-50 0 -82.5 -44.5t-32.5 -113.5q0 -120 86 -120q30 0 55.5 20t39.5 56zM344 591q-33 0 -56.5 23.5t-23.5 60.5q0 34 20.5 55t53.5 21t56.5 -23.5t23.5 -60.5q0 -34 -20.5 -55t-53.5 -21z" />
    <glyph glyph-name="Gcommaaccent" unicode="&#x122;" horiz-adv-x="765" 
d="M395 386h242q35 0 51.5 -15t16.5 -48v-119q0 -92 -76.5 -154t-216.5 -62q-156 0 -262 105t-106 274q0 156 97.5 250.5t252.5 94.5q98 0 173 -39.5t114 -99.5q11 -17 11 -37q0 -26 -34 -46q-56 -32 -132 -37q-45 103 -138 103q-68 0 -109 -48t-41 -138q0 -101 55.5 -163.5
t131.5 -62.5q46 0 66 16t20 53v37h-89q-39 0 -39 44q0 46 12 92zM505 -120q0 34 -24.5 57t-59.5 23q-36 0 -59.5 -20.5t-23.5 -50.5q0 -26 15.5 -45t40.5 -27q-9 -34 -46 -66q5 -23 23 -32q11 -6 36.5 5.5t47.5 35.5q50 53 50 120z" />
    <glyph glyph-name="gcommaaccent" unicode="&#x123;" horiz-adv-x="653" 
d="M405 8v54q-51 -66 -131 -73q-35 -23 -35 -60q0 -41 53 -41q51 0 82 32.5t31 87.5zM405 499v35h146q38 0 38 -31v-489q0 -110 -83.5 -185.5t-226.5 -75.5q-108 0 -165 40.5t-57 106.5q0 37 25.5 69t73.5 47q-54 30 -85 89.5t-31 138.5q0 137 73 219.5t172 82.5
q76 0 120 -47zM405 204v179q-26 23 -66 23q-50 0 -82.5 -44.5t-32.5 -113.5q0 -120 86 -120q30 0 55.5 20t39.5 56zM257 657q0 67 50 120q22 24 47.5 35.5t36.5 5.5q18 -9 23 -32q-37 -32 -46 -66q56 -18 56 -72q0 -30 -23.5 -50.5t-59.5 -20.5q-35 0 -59.5 23t-24.5 57z
" />
    <glyph glyph-name="Hcircumflex" unicode="&#x124;" horiz-adv-x="729" 
d="M266 669v-240h197v271h156q38 0 38 -31v-669h-156q-38 0 -38 31v242h-197v-273h-156q-38 0 -38 31v663q68 16 143 16q51 0 51 -41zM364 836l-88 -87q-38 14 -65 43q-12 14 -12 26q0 11 10 20l124 109h40q23 0 40 -16l128 -112l-49 -54q-15 -15 -27 -15t-28 14z" />
    <glyph glyph-name="hcircumflex" unicode="&#x125;" horiz-adv-x="649" 
d="M248 0h-146q-38 0 -38 31v661q60 15 135 15q49 0 49 -40v-189q57 68 147 68q85 0 130 -55.5t45 -166.5v-152q0 -39 30 -39h27q10 -32 10 -60q0 -30 -32 -55t-80 -25q-59 0 -99 36.5t-40 110.5v190q0 76 -64 76q-40 0 -74 -28v-378zM222 841l-88 -87q-38 14 -65 43
q-12 14 -12 26q0 11 10 20l124 109h40q23 0 40 -16l128 -112l-49 -54q-15 -15 -27 -15t-28 14z" />
    <glyph glyph-name="Hbar" unicode="&#x126;" horiz-adv-x="729" 
d="M657 598h46q25 0 25 -32v-56h-71v-510h-156q-38 0 -38 31v242h-197v-273h-156q-38 0 -38 31v479h-42q-29 0 -29 27q0 35 8 61h63v96q68 16 143 16q51 0 51 -41v-71h197v102h156q38 0 38 -31v-71zM266 510v-81h197v81h-197z" />
    <glyph glyph-name="hbar" unicode="&#x127;" horiz-adv-x="649" 
d="M11 673h53v49q60 15 135 15q49 0 49 -40v-24h123q25 0 25 -32v-56h-148v-107q57 68 147 68q85 0 130 -55.5t45 -166.5v-152q0 -39 30 -39h27q10 -32 10 -60q0 -30 -32 -55t-80 -25q-59 0 -99 36.5t-40 110.5v190q0 76 -64 76q-40 0 -74 -28v-378h-146q-38 0 -38 31v554
h-32q-29 0 -29 27q0 35 8 61z" />
    <glyph glyph-name="Itilde" unicode="&#x128;" horiz-adv-x="346" 
d="M270 669v-669h-156q-38 0 -38 31v663q68 16 143 16q51 0 51 -41zM236 925l74 -19q25 -7 22 -33q-7 -49 -34 -77t-63 -28q-38 0 -66 22q-27 21 -37 21t-14.5 -9.5t-7.5 -33.5q-40 -3 -74 11q-22 10 -22 29q0 12 4 28q24 84 93 84q38 0 66 -22q27 -21 37 -21q18 0 22 48z
" />
    <glyph glyph-name="itilde" unicode="&#x129;" horiz-adv-x="335" 
d="M248 501v-329q0 -39 30 -39h27q10 -32 10 -60q0 -30 -32 -55t-80 -25q-59 0 -99 36.5t-40 110.5v386q60 15 135 15q49 0 49 -40zM218 750l74 -19q25 -7 22 -33q-7 -49 -34 -77t-63 -28q-38 0 -66 22q-27 21 -37 21t-14.5 -9.5t-7.5 -33.5q-40 -3 -74 11q-22 10 -22 29
q0 12 4 28q24 84 93 84q38 0 66 -22q27 -21 37 -21q18 0 22 48z" />
    <glyph glyph-name="Imacron" unicode="&#x12a;" horiz-adv-x="346" 
d="M270 669v-669h-156q-38 0 -38 31v663q68 16 143 16q51 0 51 -41zM321 859v-69h-257q-39 0 -39 39q0 32 12 68h253q31 0 31 -38z" />
    <glyph glyph-name="imacron" unicode="&#x12b;" horiz-adv-x="335" 
d="M248 501v-329q0 -39 30 -39h27q10 -32 10 -60q0 -30 -32 -55t-80 -25q-59 0 -99 36.5t-40 110.5v386q60 15 135 15q49 0 49 -40zM304 684v-69h-257q-39 0 -39 39q0 32 12 68h253q31 0 31 -38z" />
    <glyph glyph-name="Ibreve" unicode="&#x12c;" horiz-adv-x="346" 
d="M270 0v669q0 41 -51 41q-75 0 -143 -16v-663q0 -31 38 -31h156zM128 912q9 -59 46 -59q23 0 34 18t12 63h81q17 0 23 -5.5t5 -18.5q-6 -72 -47 -110.5t-109 -38.5q-137 0 -158 148q34 27 81 27q28 0 32 -24z" />
    <glyph glyph-name="ibreve" unicode="&#x12d;" horiz-adv-x="335" 
d="M248 501v-329q0 -39 30 -39h27q10 -32 10 -60q0 -30 -32 -55t-80 -25q-59 0 -99 36.5t-40 110.5v386q60 15 135 15q49 0 49 -40zM111 737q9 -59 46 -59q23 0 34 18t12 63h81q17 0 23 -5.5t5 -18.5q-6 -72 -47 -110.5t-109 -38.5q-137 0 -158 148q34 27 81 27q28 0 32 -24
z" />
    <glyph glyph-name="Iogonek" unicode="&#x12e;" horiz-adv-x="346" 
d="M262 -141q26 8 26 -19v-63q-29 -17 -86 -17q-56 0 -91 29.5t-35 79.5q0 36 21 72.5t57 58.5h-40q-38 0 -38 31v663q68 16 143 16q51 0 51 -41v-669q-69 -49 -69 -107q0 -17 11 -27t29 -10q14 0 21 3z" />
    <glyph glyph-name="iogonek" unicode="&#x12f;" horiz-adv-x="335" 
d="M248 501v-329q0 -39 30 -39h27q10 -32 10 -60q0 -33 -36 -58q-82 -64 -82 -122q0 -17 11 -27t29 -10q13 0 21 3q26 8 26 -19v-63q-29 -17 -86 -17q-56 0 -91 29.5t-35 79.5q0 36 21 72t58 60q-39 13 -63 48t-24 91v386q60 15 135 15q49 0 49 -40zM157 586q-41 0 -70 23.5
t-29 63.5t27 62t70 22q41 0 70 -23.5t29 -63.5t-27 -62t-70 -22z" />
    <glyph glyph-name="Idotaccent" unicode="&#x130;" horiz-adv-x="346" 
d="M270 669v-669h-156q-38 0 -38 31v663q68 16 143 16q51 0 51 -41zM175 765q-33 0 -56.5 23.5t-23.5 60.5q0 34 20.5 55t53.5 21t56.5 -23.5t23.5 -60.5q0 -34 -20.5 -55t-53.5 -21z" />
    <glyph glyph-name="dotlessi" unicode="&#x131;" horiz-adv-x="335" 
d="M248 501v-329q0 -39 30 -39h27q10 -32 10 -60q0 -30 -32 -55t-80 -25q-59 0 -99 36.5t-40 110.5v386q60 15 135 15q49 0 49 -40z" />
    <glyph glyph-name="IJ" unicode="&#x132;" horiz-adv-x="782" 
d="M236 669v-669h-156q-38 0 -38 31v663q68 16 143 16q51 0 51 -41zM714 669v-430q0 -123 -56 -187t-167 -64q-73 0 -130 27t-57 60q0 47 26 87q50 -18 99 -18q91 0 91 103v447q68 16 143 16q51 0 51 -41z" />
    <glyph glyph-name="ij" unicode="&#x133;" horiz-adv-x="643" 
d="M248 501v-329q0 -39 30 -39h27q10 -32 10 -60q0 -30 -32 -55t-80 -25q-59 0 -99 36.5t-40 110.5v386q60 15 135 15q49 0 49 -40zM157 586q-41 0 -70 23.5t-29 63.5t27 62t70 22q41 0 70 -23.5t29 -63.5t-27 -62t-70 -22zM581 501v-443q0 -122 -60.5 -191.5t-124.5 -69.5
q-21 0 -41 19.5t-30 47.5q72 77 72 193v469q60 15 135 15q49 0 49 -40zM490 586q-41 0 -70 23.5t-29 63.5t27 62t70 22q41 0 70 -23.5t29 -63.5t-27 -62t-70 -22z" />
    <glyph glyph-name="Jcircumflex" unicode="&#x134;" horiz-adv-x="490" 
d="M422 669v-430q0 -123 -56 -187t-167 -64q-73 0 -130 27t-57 60q0 47 26 87q50 -18 99 -18q91 0 91 103v447q68 16 143 16q51 0 51 -41zM320 836l-88 -87q-38 14 -65 43q-12 14 -12 26q0 11 10 20l124 109h40q23 0 40 -16l128 -112l-49 -54q-15 -15 -27 -15t-28 14z" />
    <glyph glyph-name="jcircumflex" unicode="&#x135;" horiz-adv-x="315" 
d="M253 501v-443q0 -122 -60.5 -191.5t-124.5 -69.5q-21 0 -41 19.5t-30 47.5q72 77 72 193v469q60 15 135 15q49 0 49 -40zM156 662l-88 -87q-38 14 -65 43q-12 14 -12 26q0 11 10 20l124 109h40q23 0 40 -16l128 -112l-49 -54q-15 -15 -27 -15t-28 14z" />
    <glyph glyph-name="Kcommaaccent" unicode="&#x136;" horiz-adv-x="701" 
d="M636 564q-60 -96 -163 -187q61 -136 127 -207q27 -30 64 -30h14q13 -34 13 -76q0 -28 -35.5 -52t-81.5 -24q-52 0 -88 23.5t-69 70.5q-51 71 -93 182q-12 -8 -33.5 -21t-24.5 -15v-228h-156q-38 0 -38 31v663q68 16 143 16q51 0 51 -41v-238q143 113 245 281
q80 -23 110.5 -47.5t30.5 -56.5q0 -18 -16 -44zM451 -120q0 -67 -50 -120q-22 -24 -47.5 -35.5t-36.5 -5.5q-18 9 -23 32q37 32 46 66q-25 8 -40.5 27t-15.5 45q0 30 23.5 50.5t59.5 20.5q35 0 59.5 -23t24.5 -57z" />
    <glyph glyph-name="kcommaaccent" unicode="&#x137;" horiz-adv-x="615" 
d="M248 0h-146q-38 0 -38 31v691q60 15 135 15q49 0 49 -40v-338q48 32 100.5 86.5t81.5 105.5q75 -23 102.5 -45t27.5 -52q0 -21 -13 -39q-43 -62 -117 -119q37 -79 69 -124q28 -40 59 -40h25q12 -31 12 -60t-33.5 -54t-79.5 -25q-79 0 -128 80q-29 48 -63 132
q-25 -14 -43 -22v-183zM406 -120q0 34 -24.5 57t-59.5 23q-36 0 -59.5 -20.5t-23.5 -50.5q0 -26 15.5 -45t40.5 -27q-9 -34 -46 -66q5 -23 23 -32q11 -6 36.5 5.5t47.5 35.5q50 53 50 120z" />
    <glyph glyph-name="kgreenlandic" unicode="&#x138;" horiz-adv-x="615" 
d="M248 0h-146q-38 0 -38 31v495q60 15 135 15q49 0 49 -40v-137q50 32 102.5 84.5t79.5 102.5q75 -23 102.5 -45t27.5 -52q0 -21 -13 -39q-43 -62 -117 -119q37 -79 69 -124q28 -40 59 -40h25q12 -31 12 -60t-33.5 -54t-79.5 -25q-79 0 -128 80q-29 48 -63 132
q-25 -14 -43 -22v-183z" />
    <glyph glyph-name="Lacute" unicode="&#x139;" horiz-adv-x="572" 
d="M70 244v450q68 16 143 16q51 0 51 -41v-412q0 -57 14 -79t53 -22h188q31 0 31 -38v-118h-254q-117 0 -171.5 59.5t-54.5 184.5zM311 856l-131 -94q-19 -13 -32 -13q-12 0 -25 13l-50 54l109 116q19 20 33 20q19 0 37 -15q35 -30 59 -81z" />
    <glyph glyph-name="lacute" unicode="&#x13a;" horiz-adv-x="387" 
d="M60 204v488q60 15 135 15q49 0 49 -40v-460q0 -70 54 -70q33 0 58 11q23 -32 23 -79q0 -27 -41.5 -51.5t-100.5 -24.5q-83 0 -130 54t-47 157zM307 856l-131 -94q-19 -13 -32 -13q-12 0 -25 13l-50 54l109 116q19 20 33 20q19 0 37 -15q35 -30 59 -81z" />
    <glyph glyph-name="Lcommaaccent" unicode="&#x13b;" horiz-adv-x="572" 
d="M70 244v450q68 16 143 16q51 0 51 -41v-412q0 -57 14 -79t53 -22h188q31 0 31 -38v-118h-254q-117 0 -171.5 59.5t-54.5 184.5zM420 -120q0 -67 -50 -120q-22 -24 -47.5 -35.5t-36.5 -5.5q-18 9 -23 32q37 32 46 66q-25 8 -40.5 27t-15.5 45q0 30 23.5 50.5t59.5 20.5
q35 0 59.5 -23t24.5 -57z" />
    <glyph glyph-name="lcommaaccent" unicode="&#x13c;" horiz-adv-x="387" 
d="M60 204v518q60 15 135 15q49 0 49 -40v-490q0 -70 54 -70q33 0 58 11q23 -32 23 -79q0 -27 -41.5 -51.5t-100.5 -24.5q-83 0 -130 54t-47 157zM311 -120q0 34 -24.5 57t-59.5 23q-36 0 -59.5 -20.5t-23.5 -50.5q0 -26 15.5 -45t40.5 -27q-9 -34 -46 -66q5 -23 23 -32
q11 -6 36.5 5.5t47.5 35.5q50 53 50 120z" />
    <glyph glyph-name="Lcaron" unicode="&#x13d;" horiz-adv-x="572" 
d="M70 244v450q68 16 143 16q51 0 51 -41v-412q0 -57 14 -79t53 -22h188q31 0 31 -38v-118h-254q-117 0 -171.5 59.5t-54.5 184.5zM413 742q39 0 68 -27.5t29 -72.5q-1 -92 -60 -165q-25 -31 -49.5 -46.5t-35.5 -9.5q-24 14 -30 40q42 42 51 95q-28 9 -46 34t-18 60
q0 42 25.5 67t65.5 25z" />
    <glyph glyph-name="lcaron" unicode="&#x13e;" horiz-adv-x="502" 
d="M60 204v518q60 15 135 15q49 0 49 -40v-490q0 -70 54 -70q33 0 58 11q23 -32 23 -79q0 -27 -41.5 -51.5t-100.5 -24.5q-83 0 -130 54t-47 157zM397 742q39 0 68 -27.5t29 -72.5q-1 -92 -60 -165q-25 -31 -49.5 -46.5t-35.5 -9.5q-24 14 -30 40q42 42 51 95q-28 9 -46 34
t-18 60q0 42 25.5 67t65.5 25z" />
    <glyph glyph-name="Ldot" unicode="&#x13f;" horiz-adv-x="572" 
d="M70 244v450q68 16 143 16q51 0 51 -41v-412q0 -57 14 -79t53 -22h188q31 0 31 -38v-118h-254q-117 0 -171.5 59.5t-54.5 184.5zM423 305q-33 0 -56.5 23.5t-23.5 60.5q0 34 20.5 55t53.5 21t56.5 -23.5t23.5 -60.5q0 -34 -20.5 -55t-53.5 -21z" />
    <glyph glyph-name="ldot" unicode="&#x140;" horiz-adv-x="484" 
d="M60 204v518q60 15 135 15q49 0 49 -40v-490q0 -70 54 -70q33 0 58 11q23 -32 23 -79q0 -27 -41.5 -51.5t-100.5 -24.5q-83 0 -130 54t-47 157zM400 305q-33 0 -56.5 23.5t-23.5 60.5q0 34 20.5 55t53.5 21t56.5 -23.5t23.5 -60.5q0 -34 -20.5 -55t-53.5 -21z" />
    <glyph glyph-name="Lslash" unicode="&#x141;" horiz-adv-x="574" 
d="M72 242l-37 -17q-24 -11 -36 6q-19 29 -24 72l97 46v345q68 16 143 16q51 0 51 -41v-228l116 56q24 11 36 -6q19 -29 24 -72l-176 -84v-78q0 -57 14 -79t53 -22h188q31 0 31 -38v-118h-254q-117 0 -171.5 59t-54.5 183z" />
    <glyph glyph-name="lslash" unicode="&#x142;" horiz-adv-x="406" 
d="M381 405l-118 -57v-141q0 -70 54 -70q33 0 58 11q23 -32 23 -79q0 -27 -41.5 -51.5t-100.5 -24.5q-83 0 -130 54t-47 157v57l-34 -16q-24 -11 -36 6q-19 29 -24 72l94 45v354q60 15 135 15q49 0 49 -40v-242l58 28q24 11 36 -6q19 -29 24 -72z" />
    <glyph glyph-name="Nacute" unicode="&#x143;" horiz-adv-x="724" 
d="M467 18l-201 353v-371h-156q-38 0 -38 31v624q31 22 70.5 38.5t62.5 16.5q35 0 52 -28l201 -353v371h156q38 0 38 -31v-624q-31 -22 -70.5 -38.5t-62.5 -16.5q-35 0 -52 28zM497 856l-131 -94q-19 -13 -32 -13q-12 0 -25 13l-50 54l109 116q19 20 33 20q19 0 37 -15
q35 -30 59 -81z" />
    <glyph glyph-name="nacute" unicode="&#x144;" horiz-adv-x="649" 
d="M248 0h-146q-38 0 -38 31v495q60 15 135 15q49 0 49 -40v-23q57 68 147 68q85 0 130 -55.5t45 -166.5v-152q0 -39 30 -39h27q10 -32 10 -60q0 -30 -32 -55t-80 -25q-59 0 -99 36.5t-40 110.5v190q0 76 -64 76q-40 0 -74 -28v-378zM453 682l-131 -94q-19 -13 -32 -13
q-12 0 -25 13l-50 54l109 116q19 20 33 20q19 0 37 -15q35 -30 59 -81z" />
    <glyph glyph-name="Ncommaaccent" unicode="&#x145;" horiz-adv-x="724" 
d="M467 18l-201 353v-371h-156q-38 0 -38 31v624q31 22 70.5 38.5t62.5 16.5q35 0 52 -28l201 -353v371h156q38 0 38 -31v-624q-31 -22 -70.5 -38.5t-62.5 -16.5q-35 0 -52 28zM457 -120q0 -67 -50 -120q-22 -24 -47.5 -35.5t-36.5 -5.5q-18 9 -23 32q37 32 46 66
q-25 8 -40.5 27t-15.5 45q0 30 23.5 50.5t59.5 20.5q35 0 59.5 -23t24.5 -57z" />
    <glyph glyph-name="ncommaaccent" unicode="&#x146;" horiz-adv-x="649" 
d="M248 0h-146q-38 0 -38 31v495q60 15 135 15q49 0 49 -40v-23q57 68 147 68q85 0 130 -55.5t45 -166.5v-152q0 -39 30 -39h27q10 -32 10 -60q0 -30 -32 -55t-80 -25q-59 0 -99 36.5t-40 110.5v190q0 76 -64 76q-40 0 -74 -28v-378zM417 -120q0 34 -24.5 57t-59.5 23
q-36 0 -59.5 -20.5t-23.5 -50.5q0 -26 15.5 -45t40.5 -27q-9 -34 -46 -66q5 -23 23 -32q11 -6 36.5 5.5t47.5 35.5q50 53 50 120z" />
    <glyph glyph-name="Ncaron" unicode="&#x147;" horiz-adv-x="724" 
d="M467 18l-201 353v-371h-156q-38 0 -38 31v624q31 22 70.5 38.5t62.5 16.5q35 0 52 -28l201 -353v371h156q38 0 38 -31v-624q-31 -22 -70.5 -38.5t-62.5 -16.5q-35 0 -52 28zM366 861l91 90l53 -49q16 -15 16 -28t-18 -27l-110 -97h-42q-23 0 -40 16l-117 103q14 36 33 57
t37 21q8 0 20 -10z" />
    <glyph glyph-name="ncaron" unicode="&#x148;" horiz-adv-x="649" 
d="M248 0h-146q-38 0 -38 31v495q60 15 135 15q49 0 49 -40v-23q57 68 147 68q85 0 130 -55.5t45 -166.5v-152q0 -39 30 -39h27q10 -32 10 -60q0 -30 -32 -55t-80 -25q-59 0 -99 36.5t-40 110.5v190q0 76 -64 76q-40 0 -74 -28v-378zM323 687l91 90l53 -49q16 -15 16 -28
t-18 -27l-110 -97h-42q-23 0 -40 16l-117 103q14 36 33 57t37 21q8 0 20 -10z" />
    <glyph glyph-name="napostrophe" unicode="&#x149;" horiz-adv-x="770" 
d="M369 0h-146q-38 0 -38 31v495q60 15 135 15q49 0 49 -40v-23q57 68 147 68q85 0 130 -55.5t45 -166.5v-152q0 -39 30 -39h27q10 -32 10 -60q0 -30 -32 -55t-80 -25q-59 0 -99 36.5t-40 110.5v190q0 76 -64 76q-40 0 -74 -28v-378zM81 742q39 0 68 -27.5t29 -72.5
q-1 -92 -60 -165q-25 -31 -49.5 -46.5t-35.5 -9.5q-24 14 -30 40q42 42 51 95q-28 9 -46 34t-18 60q0 42 25.5 67t65.5 25z" />
    <glyph glyph-name="Eng" unicode="&#x14a;" horiz-adv-x="724" 
d="M257 682l201 -353v371h156q38 0 38 -31v-642q0 -119 -61 -190t-129 -71q-21 0 -43.5 20t-32.5 47q72 77 72 192v9l-192 337v-371h-156q-38 0 -38 31v624q31 22 70.5 38.5t62.5 16.5q35 0 52 -28z" />
    <glyph glyph-name="eng" unicode="&#x14b;" horiz-adv-x="632" 
d="M248 0h-146q-38 0 -38 31v495q60 15 135 15q49 0 49 -40v-23q57 68 147 68q85 0 130 -55.5t45 -166.5v-297q0 -122 -60.5 -191.5t-124.5 -69.5q-21 0 -41 19.5t-30 47.5q72 77 72 193v304q0 76 -64 76q-40 0 -74 -28v-378z" />
    <glyph glyph-name="Omacron" unicode="&#x14c;" horiz-adv-x="794" 
d="M750 350q0 -167 -100 -264.5t-253 -97.5t-253 97.5t-100 264.5t100 264.5t253 97.5t253 -97.5t100 -264.5zM402 144q68 0 111 50t43 148q0 96 -47 155t-117 59q-68 0 -111 -50t-43 -148q0 -96 47 -155t117 -59zM545 859v-69h-257q-39 0 -39 39q0 32 12 68h253
q31 0 31 -38z" />
    <glyph glyph-name="omacron" unicode="&#x14d;" horiz-adv-x="644" 
d="M322 546q117 0 199.5 -75.5t82.5 -203.5t-82.5 -203.5t-199.5 -75.5t-199.5 75.5t-82.5 203.5t82.5 203.5t199.5 75.5zM326 128q44 0 69 34.5t25 99.5q0 67 -27.5 105.5t-74.5 38.5q-44 0 -69 -34.5t-25 -99.5q0 -67 27.5 -105.5t74.5 -38.5zM466 684v-69h-257
q-39 0 -39 39q0 32 12 68h253q31 0 31 -38z" />
    <glyph glyph-name="Obreve" unicode="&#x14e;" horiz-adv-x="794" 
d="M750 350q0 -167 -100 -264.5t-253 -97.5t-253 97.5t-100 264.5t100 264.5t253 97.5t253 -97.5t100 -264.5zM402 144q68 0 111 50t43 148q0 96 -47 155t-117 59q-68 0 -111 -50t-43 -148q0 -96 47 -155t117 -59zM353 912q9 -59 46 -59q23 0 34 18t12 63h81q17 0 23 -5.5
t5 -18.5q-6 -72 -47 -110.5t-109 -38.5q-137 0 -158 148q34 27 81 27q28 0 32 -24z" />
    <glyph glyph-name="obreve" unicode="&#x14f;" horiz-adv-x="644" 
d="M322 546q117 0 199.5 -75.5t82.5 -203.5t-82.5 -203.5t-199.5 -75.5t-199.5 75.5t-82.5 203.5t82.5 203.5t199.5 75.5zM326 128q44 0 69 34.5t25 99.5q0 67 -27.5 105.5t-74.5 38.5q-44 0 -69 -34.5t-25 -99.5q0 -67 27.5 -105.5t74.5 -38.5zM278 737q9 -59 46 -59
q23 0 34 18t12 63h81q17 0 23 -5.5t5 -18.5q-6 -72 -47 -110.5t-109 -38.5q-137 0 -158 148q34 27 81 27q28 0 32 -24z" />
    <glyph glyph-name="Ohungarumlaut" unicode="&#x150;" horiz-adv-x="794" 
d="M750 350q0 -167 -100 -264.5t-253 -97.5t-253 97.5t-100 264.5t100 264.5t253 97.5t253 -97.5t100 -264.5zM402 144q68 0 111 50t43 148q0 96 -47 155t-117 59q-68 0 -111 -50t-43 -148q0 -96 47 -155t117 -59zM412 856l-131 -94q-19 -13 -32 -13q-12 0 -25 13l-50 54
l109 116q19 20 33 20q19 0 37 -15q35 -30 59 -81zM640 856l-131 -94q-19 -13 -32 -13q-12 0 -25 13l-50 54l109 116q19 20 33 20q19 0 37 -15q35 -30 59 -81z" />
    <glyph glyph-name="ohungarumlaut" unicode="&#x151;" horiz-adv-x="644" 
d="M322 546q117 0 199.5 -75.5t82.5 -203.5t-82.5 -203.5t-199.5 -75.5t-199.5 75.5t-82.5 203.5t82.5 203.5t199.5 75.5zM326 128q44 0 69 34.5t25 99.5q0 67 -27.5 105.5t-74.5 38.5q-44 0 -69 -34.5t-25 -99.5q0 -67 27.5 -105.5t74.5 -38.5zM337 682l-131 -94
q-19 -13 -32 -13q-12 0 -25 13l-50 54l109 116q19 20 33 20q19 0 37 -15q35 -30 59 -81zM565 682l-131 -94q-19 -13 -32 -13q-12 0 -25 13l-50 54l109 116q19 20 33 20q19 0 37 -15q35 -30 59 -81z" />
    <glyph glyph-name="OE" unicode="&#x152;" horiz-adv-x="1014" 
d="M44 350q0 162 91.5 262t231.5 100q74 0 126 -36v24h432q37 0 37 -42q0 -52 -12 -114h-263v-117h190q31 0 31 -38v-118h-221v-14q0 -57 14 -79t53 -22h185q31 0 31 -38v-118h-251q-106 0 -161 49q-79 -61 -191 -61q-140 0 -231.5 100t-91.5 262zM493 244v283
q-40 29 -101 29q-68 0 -111 -50t-43 -148q0 -96 47 -155t117 -59q58 0 95 30q-4 28 -4 70z" />
    <glyph glyph-name="oe" unicode="&#x153;" horiz-adv-x="974" 
d="M704 416q-42 0 -68 -27.5t-31 -75.5h152q8 13 8 38q0 30 -17 47.5t-44 17.5zM326 128q44 0 69 34.5t25 99.5q0 67 -27.5 105.5t-74.5 38.5q-44 0 -69 -34.5t-25 -99.5q0 -67 27.5 -105.5t74.5 -38.5zM511 77q-67 -89 -203 -89q-109 0 -188.5 75.5t-79.5 203.5t79.5 203.5
t188.5 75.5q136 0 203 -89q71 89 200 89q102 0 164.5 -57.5t62.5 -147.5q0 -51 -22 -91q-12 -21 -31 -29.5t-55 -8.5h-222q10 -46 45.5 -70t88.5 -24q76 0 122 27q24 -36 24 -70q0 -27 -54.5 -57t-134.5 -30q-60 0 -109.5 24t-78.5 65z" />
    <glyph glyph-name="Racute" unicode="&#x154;" horiz-adv-x="664" 
d="M266 0h-156q-38 0 -38 31v669h238q136 0 214.5 -67.5t78.5 -185.5q0 -68 -31 -121t-84 -86q23 -48 52 -75q26 -25 63 -25h18q13 -34 13 -74q0 -29 -32.5 -53.5t-79.5 -24.5q-78 0 -135 70q-50 61 -71 138q-36 4 -50 10v-206zM266 544v-188q13 -4 37 -4q47 0 75 24t28 71
t-28 72t-78 25h-34zM430 856l-131 -94q-19 -13 -32 -13q-12 0 -25 13l-50 54l109 116q19 20 33 20q19 0 37 -15q35 -30 59 -81z" />
    <glyph glyph-name="racute" unicode="&#x155;" horiz-adv-x="500" 
d="M64 31v495q60 15 135 15q49 0 49 -40v-39q49 84 146 84q42 0 70 -16t28 -39q0 -27 -22.5 -55.5t-55.5 -48.5q-26 19 -66 19q-39 0 -65 -26t-35 -72v-308h-146q-38 0 -38 31zM403 682l-131 -94q-19 -13 -32 -13q-12 0 -25 13l-50 54l109 116q19 20 33 20q19 0 37 -15
q35 -30 59 -81z" />
    <glyph glyph-name="Rcommaaccent" unicode="&#x156;" horiz-adv-x="664" 
d="M266 0h-156q-38 0 -38 31v669h238q136 0 214.5 -67.5t78.5 -185.5q0 -68 -31 -121t-84 -86q23 -48 52 -75q26 -25 63 -25h18q13 -34 13 -74q0 -29 -32.5 -53.5t-79.5 -24.5q-78 0 -135 70q-50 61 -71 138q-36 4 -50 10v-206zM266 544v-188q13 -4 37 -4q47 0 75 24t28 71
t-28 72t-78 25h-34zM424 -120q0 34 -24.5 57t-59.5 23q-36 0 -59.5 -20.5t-23.5 -50.5q0 -26 15.5 -45t40.5 -27q-9 -34 -46 -66q5 -23 23 -32q11 -6 36.5 5.5t47.5 35.5q50 53 50 120z" />
    <glyph glyph-name="rcommaaccent" unicode="&#x157;" horiz-adv-x="500" 
d="M64 31v495q60 15 135 15q49 0 49 -40v-39q49 84 146 84q42 0 70 -16t28 -39q0 -27 -22.5 -55.5t-55.5 -48.5q-26 19 -66 19q-39 0 -65 -26t-35 -72v-308h-146q-38 0 -38 31zM241 -120q0 -67 -50 -120q-22 -24 -47.5 -35.5t-36.5 -5.5q-18 9 -23 32q37 32 46 66
q-25 8 -40.5 27t-15.5 45q0 30 23.5 50.5t59.5 20.5q35 0 59.5 -23t24.5 -57z" />
    <glyph glyph-name="Rcaron" unicode="&#x158;" horiz-adv-x="664" 
d="M266 0h-156q-38 0 -38 31v669h238q136 0 214.5 -67.5t78.5 -185.5q0 -68 -31 -121t-84 -86q23 -48 52 -75q26 -25 63 -25h18q13 -34 13 -74q0 -29 -32.5 -53.5t-79.5 -24.5q-78 0 -135 70q-50 61 -71 138q-36 4 -50 10v-206zM266 544v-188q13 -4 37 -4q47 0 75 24t28 71
t-28 72t-78 25h-34zM310 861l91 90l53 -49q16 -15 16 -28t-18 -27l-110 -97h-42q-23 0 -40 16l-117 103q14 36 33 57t37 21q8 0 20 -10z" />
    <glyph glyph-name="rcaron" unicode="&#x159;" horiz-adv-x="500" 
d="M64 31v495q60 15 135 15q49 0 49 -40v-39q49 84 146 84q42 0 70 -16t28 -39q0 -27 -22.5 -55.5t-55.5 -48.5q-26 19 -66 19q-39 0 -65 -26t-35 -72v-308h-146q-38 0 -38 31zM272 687l91 90l53 -49q16 -15 16 -28t-18 -27l-110 -97h-42q-23 0 -40 16l-117 103q14 36 33 57
t37 21q8 0 20 -10z" />
    <glyph glyph-name="Sacute" unicode="&#x15a;" horiz-adv-x="613" 
d="M286 144q91 0 91 46q0 23 -25.5 39t-99.5 39q-104 32 -154 87.5t-50 139.5q0 95 69.5 156t183.5 61q88 0 151.5 -32t95.5 -84q11 -18 11 -39q0 -31 -34 -48q-55 -27 -129 -32q-23 79 -89 79q-29 0 -47 -15.5t-18 -39.5q0 -26 26 -45t91 -39q111 -34 161.5 -85.5
t50.5 -132.5q0 -94 -67 -152.5t-193 -58.5q-99 0 -169 35t-70 74q0 47 30 86q80 -39 184 -39zM425 856l-131 -94q-19 -13 -32 -13q-12 0 -25 13l-50 54l109 116q19 20 33 20q19 0 37 -15q35 -30 59 -81z" />
    <glyph glyph-name="sacute" unicode="&#x15b;" horiz-adv-x="515" 
d="M459 461q12 -19 12 -34q0 -22 -24 -37q-41 -27 -105 -30q-18 56 -66 56q-21 0 -32.5 -10t-11.5 -24q0 -20 15 -32.5t51 -22.5q95 -25 137 -65.5t42 -106.5q0 -74 -57 -120.5t-160 -46.5q-76 0 -137 29.5t-61 63.5q0 39 26 75q68 -38 146 -38q59 0 59 29q0 14 -10 23
t-38 15q-197 45 -197 196q0 73 56.5 119t149.5 46q70 0 124 -22.5t81 -62.5zM377 682l-131 -94q-19 -13 -32 -13q-12 0 -25 13l-50 54l109 116q19 20 33 20q19 0 37 -15q35 -30 59 -81z" />
    <glyph glyph-name="Scircumflex" unicode="&#x15c;" horiz-adv-x="613" 
d="M286 144q91 0 91 46q0 23 -25.5 39t-99.5 39q-104 32 -154 87.5t-50 139.5q0 95 69.5 156t183.5 61q88 0 151.5 -32t95.5 -84q11 -18 11 -39q0 -31 -34 -48q-55 -27 -129 -32q-23 79 -89 79q-29 0 -47 -15.5t-18 -39.5q0 -26 26 -45t91 -39q111 -34 161.5 -85.5
t50.5 -132.5q0 -94 -67 -152.5t-193 -58.5q-99 0 -169 35t-70 74q0 47 30 86q80 -39 184 -39zM295 836l-88 -87q-38 14 -65 43q-12 14 -12 26q0 11 10 20l124 109h40q23 0 40 -16l128 -112l-49 -54q-15 -15 -27 -15t-28 14z" />
    <glyph glyph-name="scircumflex" unicode="&#x15d;" horiz-adv-x="515" 
d="M459 461q12 -19 12 -34q0 -22 -24 -37q-41 -27 -105 -30q-18 56 -66 56q-21 0 -32.5 -10t-11.5 -24q0 -20 15 -32.5t51 -22.5q95 -25 137 -65.5t42 -106.5q0 -74 -57 -120.5t-160 -46.5q-76 0 -137 29.5t-61 63.5q0 39 26 75q68 -38 146 -38q59 0 59 29q0 14 -10 23
t-38 15q-197 45 -197 196q0 73 56.5 119t149.5 46q70 0 124 -22.5t81 -62.5zM252 662l-88 -87q-38 14 -65 43q-12 14 -12 26q0 11 10 20l124 109h40q23 0 40 -16l128 -112l-49 -54q-15 -15 -27 -15t-28 14z" />
    <glyph glyph-name="Scedilla" unicode="&#x15e;" horiz-adv-x="613" 
d="M286 144q91 0 91 46q0 23 -25.5 39t-99.5 39q-104 32 -154 87.5t-50 139.5q0 95 69.5 156t183.5 61q88 0 151.5 -32t95.5 -84q11 -18 11 -39q0 -31 -34 -48q-55 -27 -129 -32q-23 79 -89 79q-29 0 -47 -15.5t-18 -39.5q0 -26 26 -45t91 -39q111 -34 161.5 -85.5
t50.5 -132.5q0 -76 -44.5 -130t-128.5 -72l-30 -57q33 -7 52 -29t19 -51q0 -47 -37 -76.5t-95 -29.5q-45 0 -76 10v66q0 25 27 19q12 -3 23 -3q33 0 33 23q0 27 -51 33q-17 8 -17 16q0 3 2 7l34 64q-89 6 -149.5 39t-60.5 69q0 47 30 86q80 -39 184 -39z" />
    <glyph glyph-name="scedilla" unicode="&#x15f;" horiz-adv-x="515" 
d="M459 461q12 -19 12 -34q0 -22 -24 -37q-41 -27 -105 -30q-18 56 -66 56q-21 0 -32.5 -10t-11.5 -24q0 -20 15 -32.5t51 -22.5q95 -25 137 -65.5t42 -106.5q0 -58 -36 -100.5t-102 -57.5l-30 -57q33 -7 52 -29t19 -51q0 -47 -37 -76.5t-95 -29.5q-45 0 -76 10v66
q0 25 27 19q12 -3 23 -3q33 0 33 23q0 27 -51 33q-17 8 -17 16q0 3 2 7l34 65q-66 7 -113.5 34.5t-47.5 56.5q0 39 26 75q68 -38 146 -38q59 0 59 29q0 14 -10 23t-38 15q-197 45 -197 196q0 73 56.5 119t149.5 46q70 0 124 -22.5t81 -62.5z" />
    <glyph glyph-name="Scaron" unicode="&#x160;" horiz-adv-x="613" 
d="M286 144q91 0 91 46q0 23 -25.5 39t-99.5 39q-104 32 -154 87.5t-50 139.5q0 95 69.5 156t183.5 61q88 0 151.5 -32t95.5 -84q11 -18 11 -39q0 -31 -34 -48q-55 -27 -129 -32q-23 79 -89 79q-29 0 -47 -15.5t-18 -39.5q0 -26 26 -45t91 -39q111 -34 161.5 -85.5
t50.5 -132.5q0 -94 -67 -152.5t-193 -58.5q-99 0 -169 35t-70 74q0 47 30 86q80 -39 184 -39zM302 861l91 90l53 -49q16 -15 16 -28t-18 -27l-110 -97h-42q-23 0 -40 16l-117 103q14 36 33 57t37 21q8 0 20 -10z" />
    <glyph glyph-name="scaron" unicode="&#x161;" horiz-adv-x="515" 
d="M459 461q12 -19 12 -34q0 -22 -24 -37q-41 -27 -105 -30q-18 56 -66 56q-21 0 -32.5 -10t-11.5 -24q0 -20 15 -32.5t51 -22.5q95 -25 137 -65.5t42 -106.5q0 -74 -57 -120.5t-160 -46.5q-76 0 -137 29.5t-61 63.5q0 39 26 75q68 -38 146 -38q59 0 59 29q0 14 -10 23
t-38 15q-197 45 -197 196q0 73 56.5 119t149.5 46q70 0 124 -22.5t81 -62.5zM258 687l91 90l53 -49q16 -15 16 -28t-18 -27l-110 -97h-42q-23 0 -40 16l-117 103q14 36 33 57t37 21q8 0 20 -10z" />
    <glyph glyph-name="Tcommaaccent" unicode="&#x162;" horiz-adv-x="640" 
d="M44 700h533q31 0 31 -38v-118h-191v-544h-30l-32 -60q33 -7 52 -29t19 -51q0 -47 -37 -76.5t-95 -29.5q-45 0 -76 10v66q0 25 27 19q12 -3 23 -3q33 0 33 23q0 27 -51 33q-17 8 -17 16q0 3 2 7l40 75h-14q-38 0 -38 31v513h-154q-37 0 -37 42q0 52 12 114z" />
    <glyph glyph-name="tcommaaccent" unicode="&#x163;" horiz-adv-x="481" 
d="M35 534h77v145q60 15 135 15q49 0 49 -40v-120h122q31 0 31 -38v-102h-153v-196q0 -38 15 -54t49 -16q40 0 68 11q23 -29 23 -68q0 -24 -30 -47t-78 -32l-27 -52q33 -7 52 -29t19 -51q0 -47 -37 -76.5t-95 -29.5q-45 0 -76 10v66q0 25 27 19q12 -3 23 -3q33 0 33 23
q0 27 -51 33q-17 8 -17 16q0 3 2 7l38 72q-122 34 -122 202v195h-51q-37 0 -37 42q0 56 11 98z" />
    <glyph glyph-name="Tcaron" unicode="&#x164;" horiz-adv-x="640" 
d="M44 700h533q31 0 31 -38v-118h-191v-544h-156q-38 0 -38 31v513h-154q-37 0 -37 42q0 52 12 114zM320 861l91 90l53 -49q16 -15 16 -28t-18 -27l-110 -97h-42q-23 0 -40 16l-117 103q14 36 33 57t37 21q8 0 20 -10z" />
    <glyph glyph-name="tcaron" unicode="&#x165;" horiz-adv-x="669" 
d="M35 534h77v145q60 15 135 15q49 0 49 -40v-120h122q31 0 31 -38v-102h-153v-196q0 -38 15 -54t49 -16q40 0 68 11q23 -29 23 -68q0 -30 -43.5 -56.5t-108.5 -26.5q-88 0 -137.5 54t-49.5 157v195h-51q-37 0 -37 42q0 56 11 98zM564 742q39 0 68 -27.5t29 -72.5
q-1 -92 -60 -165q-25 -31 -49.5 -46.5t-35.5 -9.5q-24 14 -30 40q42 42 51 95q-28 9 -46 34t-18 60q0 42 25.5 67t65.5 25z" />
    <glyph glyph-name="Tbar" unicode="&#x166;" horiz-adv-x="640" 
d="M417 385h86q25 0 25 -32v-56h-111v-297h-156q-38 0 -38 31v266h-83q-29 0 -29 27q0 35 8 61h104v159h-154q-37 0 -37 42q0 52 12 114h533q31 0 31 -38v-118h-191v-159z" />
    <glyph glyph-name="tbar" unicode="&#x167;" horiz-adv-x="481" 
d="M296 314h93q25 0 25 -32v-56h-118v-28q0 -38 15 -54t49 -16q40 0 68 11q23 -29 23 -68q0 -30 -43.5 -56.5t-108.5 -26.5q-90 0 -138.5 54t-48.5 157v27h-40q-29 0 -29 27q0 35 8 61h61v80h-51q-37 0 -37 42q0 56 11 98h77v145q60 15 135 15q49 0 49 -40v-120h122
q31 0 31 -38v-102h-153v-80z" />
    <glyph glyph-name="Utilde" unicode="&#x168;" horiz-adv-x="728" 
d="M68 290v404q68 16 143 16q51 0 51 -41v-393q0 -64 27.5 -98t74.5 -34q48 0 75 33.5t27 98.5v424h156q38 0 38 -31v-379q0 -141 -79.5 -221.5t-216.5 -80.5q-136 0 -216 80.5t-80 221.5zM426 925l74 -19q25 -7 22 -33q-7 -49 -34 -77t-63 -28q-38 0 -66 22q-27 21 -37 21
t-14.5 -9.5t-7.5 -33.5q-40 -3 -74 11q-22 10 -22 29q0 12 4 28q24 84 93 84q38 0 66 -22q27 -21 37 -21q18 0 22 48z" />
    <glyph glyph-name="utilde" unicode="&#x169;" horiz-adv-x="626" 
d="M568 503v-273q0 -111 -70.5 -176t-184.5 -65q-115 0 -185 65t-70 176v296q60 15 135 15q49 0 49 -40v-277q0 -42 18.5 -65t52.5 -23t52.5 23.5t18.5 64.5v310h146q38 0 38 -31zM375 750l74 -19q25 -7 22 -33q-7 -49 -34 -77t-63 -28q-38 0 -66 22q-27 21 -37 21
t-14.5 -9.5t-7.5 -33.5q-40 -3 -74 11q-22 10 -22 29q0 12 4 28q24 84 93 84q38 0 66 -22q27 -21 37 -21q18 0 22 48z" />
    <glyph glyph-name="Umacron" unicode="&#x16a;" horiz-adv-x="728" 
d="M68 290v404q68 16 143 16q51 0 51 -41v-393q0 -64 27.5 -98t74.5 -34q48 0 75 33.5t27 98.5v424h156q38 0 38 -31v-379q0 -141 -79.5 -221.5t-216.5 -80.5q-136 0 -216 80.5t-80 221.5zM512 859v-69h-257q-39 0 -39 39q0 32 12 68h253q31 0 31 -38z" />
    <glyph glyph-name="umacron" unicode="&#x16b;" horiz-adv-x="626" 
d="M568 503v-273q0 -111 -70.5 -176t-184.5 -65q-115 0 -185 65t-70 176v296q60 15 135 15q49 0 49 -40v-277q0 -42 18.5 -65t52.5 -23t52.5 23.5t18.5 64.5v310h146q38 0 38 -31zM461 684v-69h-257q-39 0 -39 39q0 32 12 68h253q31 0 31 -38z" />
    <glyph glyph-name="Ubreve" unicode="&#x16c;" horiz-adv-x="728" 
d="M68 694v-404q0 -141 80 -221.5t216 -80.5q137 0 216.5 80.5t79.5 221.5v379q0 31 -38 31h-156v-424q0 -65 -27 -98.5t-75 -33.5q-47 0 -74.5 34t-27.5 98v393q0 41 -51 41q-75 0 -143 -16zM320 912q9 -59 46 -59q23 0 34 18t12 63h81q17 0 23 -5.5t5 -18.5
q-6 -72 -47 -110.5t-109 -38.5q-137 0 -158 148q34 27 81 27q28 0 32 -24z" />
    <glyph glyph-name="ubreve" unicode="&#x16d;" horiz-adv-x="626" 
d="M568 230v273q0 31 -38 31h-146v-310q0 -41 -18.5 -64.5t-52.5 -23.5t-52.5 23t-18.5 65v277q0 40 -49 40q-75 0 -135 -15v-296q0 -111 70 -176t185 -65q114 0 184.5 65t70.5 176zM269 737q9 -59 46 -59q23 0 34 18t12 63h81q17 0 23 -5.5t5 -18.5q-6 -72 -47 -110.5
t-109 -38.5q-137 0 -158 148q34 27 81 27q28 0 32 -24z" />
    <glyph glyph-name="Uring" unicode="&#x16e;" horiz-adv-x="728" 
d="M68 694v-404q0 -141 80 -221.5t216 -80.5q137 0 216.5 80.5t79.5 221.5v379q0 31 -38 31h-156v-424q0 -65 -27 -98.5t-75 -33.5q-47 0 -74.5 34t-27.5 98v393q0 41 -51 41q-75 0 -143 -16zM364 953q47 0 78 -30t31 -74t-31 -74t-78 -30t-78 30t-31 74t31 74t78 30z
M365 817q13 0 21.5 8t8.5 23q0 14 -9 23.5t-23 9.5q-13 0 -21.5 -8t-8.5 -23q0 -14 9 -23.5t23 -9.5z" />
    <glyph glyph-name="uring" unicode="&#x16f;" horiz-adv-x="626" 
d="M568 503v-273q0 -111 -70.5 -176t-184.5 -65q-115 0 -185 65t-70 176v296q60 15 135 15q49 0 49 -40v-277q0 -42 18.5 -65t52.5 -23t52.5 23.5t18.5 64.5v310h146q38 0 38 -31zM313 779q47 0 78 -30t31 -74t-31 -74t-78 -30t-78 30t-31 74t31 74t78 30zM314 643
q13 0 21.5 8t8.5 23q0 14 -9 23.5t-23 9.5q-13 0 -21.5 -8t-8.5 -23q0 -14 9 -23.5t23 -9.5z" />
    <glyph glyph-name="Uhungarumlaut" unicode="&#x170;" horiz-adv-x="728" 
d="M68 290v404q68 16 143 16q51 0 51 -41v-393q0 -64 27.5 -98t74.5 -34q48 0 75 33.5t27 98.5v424h156q38 0 38 -31v-379q0 -141 -79.5 -221.5t-216.5 -80.5q-136 0 -216 80.5t-80 221.5zM389 856l-131 -94q-19 -13 -32 -13q-12 0 -25 13l-50 54l109 116q19 20 33 20
q19 0 37 -15q35 -30 59 -81zM617 856l-131 -94q-19 -13 -32 -13q-12 0 -25 13l-50 54l109 116q19 20 33 20q19 0 37 -15q35 -30 59 -81z" />
    <glyph glyph-name="uhungarumlaut" unicode="&#x171;" horiz-adv-x="626" 
d="M568 503v-273q0 -111 -70.5 -176t-184.5 -65q-115 0 -185 65t-70 176v296q60 15 135 15q49 0 49 -40v-277q0 -42 18.5 -65t52.5 -23t52.5 23.5t18.5 64.5v310h146q38 0 38 -31zM333 682l-131 -94q-19 -13 -32 -13q-12 0 -25 13l-50 54l109 116q19 20 33 20q19 0 37 -15
q35 -30 59 -81zM561 682l-131 -94q-19 -13 -32 -13q-12 0 -25 13l-50 54l109 116q19 20 33 20q19 0 37 -15q35 -30 59 -81z" />
    <glyph glyph-name="Uogonek" unicode="&#x172;" horiz-adv-x="728" 
d="M68 290v404q68 16 143 16q51 0 51 -41v-393q0 -64 27.5 -98t74.5 -34q48 0 75 33.5t27 98.5v424h156q38 0 38 -31v-379q0 -105 -46 -178.5t-129 -103.5q-79 -54 -79 -115q0 -17 11 -27t29 -10q14 0 21 3q26 8 26 -19v-63q-29 -17 -86 -17q-56 0 -91 29.5t-35 79.5
q0 70 61 120q-126 6 -200 86t-74 215z" />
    <glyph glyph-name="uogonek" unicode="&#x173;" horiz-adv-x="626" 
d="M568 503v-273q0 -75 -33.5 -130.5t-92.5 -83.5q-91 -56 -91 -123q0 -17 11 -27t29 -10q13 0 21 3q26 8 26 -19v-63q-29 -17 -86 -17q-56 0 -91 29.5t-35 79.5q0 32 17 65t46 56q-105 7 -168 71t-63 169v296q60 15 135 15q49 0 49 -40v-277q0 -42 18.5 -65t52.5 -23
t52.5 23.5t18.5 64.5v310h146q38 0 38 -31z" />
    <glyph glyph-name="Wcircumflex" unicode="&#x174;" horiz-adv-x="1132" 
d="M886 36q-10 -20 -26.5 -28t-50.5 -8h-119l-117 457q-40 -197 -130 -421q-8 -20 -25 -28t-52 -8h-119l-211 653q35 24 76.5 40.5t68.5 16.5q42 0 53 -38l121 -453q34 85 66.5 220.5t51.5 260.5h121q37 0 54 -10t23 -33l113 -438q34 90 67.5 223.5t53.5 257.5h113
q43 0 61 -17t11 -49q-29 -139 -83.5 -300t-120.5 -298zM573 836l-88 -87q-38 14 -65 43q-12 14 -12 26q0 11 10 20l124 109h40q23 0 40 -16l128 -112l-49 -54q-15 -15 -27 -15t-28 14z" />
    <glyph glyph-name="wcircumflex" unicode="&#x175;" horiz-adv-x="882" 
d="M539 489l66 -290q38 118 66 335h106q40 0 56 -16t11 -46q-15 -94 -51 -214t-81 -222q-9 -20 -26 -28t-51 -8h-113l-74 333q-31 -187 -75 -297q-8 -20 -25 -28t-52 -8h-101l-161 494q31 22 68 36t60 14q25 0 37.5 -9t17.5 -32l72 -303q46 151 64 334h112q35 0 51.5 -10.5
t22.5 -34.5zM448 662l-88 -87q-38 14 -65 43q-12 14 -12 26q0 11 10 20l124 109h40q23 0 40 -16l128 -112l-49 -54q-15 -15 -27 -15t-28 14z" />
    <glyph glyph-name="Ycircumflex" unicode="&#x176;" horiz-adv-x="679" 
d="M431 0h-156q-38 0 -38 31v210l-214 383q29 34 68.5 60t71.5 26q27 0 42 -29l136 -271q41 61 77 142t51 148h139q59 0 44 -51q-26 -93 -87 -204t-134 -203v-242zM338 836l-88 -87q-38 14 -65 43q-12 14 -12 26q0 11 10 20l124 109h40q23 0 40 -16l128 -112l-49 -54
q-15 -15 -27 -15t-28 14z" />
    <glyph glyph-name="ycircumflex" unicode="&#x177;" horiz-adv-x="632" 
d="M568 503v-491q0 -113 -73 -186.5t-216 -73.5q-96 0 -153.5 40t-57.5 103q0 38 22 69t61 48q-89 47 -89 198v311q60 15 135 15q49 0 49 -40v-292q0 -76 63 -76q38 0 75 28v378h146q38 0 38 -31zM384 56q-41 -48 -95 -62q-39 -28 -39 -65q0 -20 12 -31t34 -11
q41 0 64.5 31.5t23.5 89.5v48zM314 662l-88 -87q-38 14 -65 43q-12 14 -12 26q0 11 10 20l124 109h40q23 0 40 -16l128 -112l-49 -54q-15 -15 -27 -15t-28 14z" />
    <glyph glyph-name="Ydieresis" unicode="&#x178;" horiz-adv-x="679" 
d="M431 0h-156q-38 0 -38 31v210l-214 383q29 34 68.5 60t71.5 26q27 0 42 -29l136 -271q41 61 77 142t51 148h139q59 0 44 -51q-26 -93 -87 -204t-134 -203v-242zM244 793q-33 0 -56.5 23.5t-23.5 60.5q0 34 20.5 55t53.5 21t56.5 -23.5t23.5 -60.5q0 -34 -20.5 -55
t-53.5 -21zM445 793q-33 0 -56.5 23.5t-23.5 60.5q0 34 20.5 55t53.5 21t56.5 -23.5t23.5 -60.5q0 -34 -20.5 -55t-53.5 -21z" />
    <glyph glyph-name="Zacute" unicode="&#x179;" horiz-adv-x="635" 
d="M44 110l277 434h-221q-37 0 -37 42q0 52 12 114h430q42 0 59 -30q19 -34 26 -80l-277 -434h251q31 0 31 -38v-118h-466q-42 0 -59 30q-19 34 -26 80zM456 856l-131 -94q-19 -13 -32 -13q-12 0 -25 13l-50 54l109 116q19 20 33 20q19 0 37 -15q35 -30 59 -81z" />
    <glyph glyph-name="zacute" unicode="&#x17a;" horiz-adv-x="526" 
d="M250 394h-162q-37 0 -37 42q0 56 11 98h341q42 0 59 -30q20 -35 26 -75l-206 -284h181q31 0 31 -38v-107h-369q-42 0 -59 30q-20 35 -26 75zM397 682l-131 -94q-19 -13 -32 -13q-12 0 -25 13l-50 54l109 116q19 20 33 20q19 0 37 -15q35 -30 59 -81z" />
    <glyph glyph-name="Zdotaccent" unicode="&#x17b;" horiz-adv-x="635" 
d="M44 110l277 434h-221q-37 0 -37 42q0 52 12 114h430q42 0 59 -30q19 -34 26 -80l-277 -434h251q31 0 31 -38v-118h-466q-42 0 -59 30q-19 34 -26 80zM320 765q-33 0 -56.5 23.5t-23.5 60.5q0 34 20.5 55t53.5 21t56.5 -23.5t23.5 -60.5q0 -34 -20.5 -55t-53.5 -21z" />
    <glyph glyph-name="zdotaccent" unicode="&#x17c;" horiz-adv-x="526" 
d="M250 394h-162q-37 0 -37 42q0 56 11 98h341q42 0 59 -30q20 -35 26 -75l-206 -284h181q31 0 31 -38v-107h-369q-42 0 -59 30q-20 35 -26 75zM263 591q-33 0 -56.5 23.5t-23.5 60.5q0 34 20.5 55t53.5 21t56.5 -23.5t23.5 -60.5q0 -34 -20.5 -55t-53.5 -21z" />
    <glyph glyph-name="Zcaron" unicode="&#x17d;" horiz-adv-x="635" 
d="M44 110l277 434h-221q-37 0 -37 42q0 52 12 114h430q42 0 59 -30q19 -34 26 -80l-277 -434h251q31 0 31 -38v-118h-466q-42 0 -59 30q-19 34 -26 80zM325 861l91 90l53 -49q16 -15 16 -28t-18 -27l-110 -97h-42q-23 0 -40 16l-117 103q14 36 33 57t37 21q8 0 20 -10z" />
    <glyph glyph-name="zcaron" unicode="&#x17e;" horiz-adv-x="526" 
d="M250 394h-162q-37 0 -37 42q0 56 11 98h341q42 0 59 -30q20 -35 26 -75l-206 -284h181q31 0 31 -38v-107h-369q-42 0 -59 30q-20 35 -26 75zM264 687l91 90l53 -49q16 -15 16 -28t-18 -27l-110 -97h-42q-23 0 -40 16l-117 103q14 36 33 57t37 21q8 0 20 -10z" />
    <glyph glyph-name="longs" unicode="&#x17f;" horiz-adv-x="469" 
d="M112 534v36q0 84 47 128t135 44q68 0 119.5 -25.5t51.5 -52.5q0 -38 -26 -71q-32 14 -81 14q-62 0 -62 -51v-556h-146q-38 0 -38 31v363h-51q-37 0 -37 42q0 56 11 98h77z" />
    <glyph glyph-name="uni0191" unicode="&#x191;" horiz-adv-x="568" 
d="M266 237v-210q0 -119 -61 -190t-129 -71q-21 0 -43.5 20t-32.5 47q72 77 72 192v675h431q37 0 37 -42q0 -52 -12 -114h-262v-151h189q31 0 31 -38v-118h-220z" />
    <glyph glyph-name="florin" unicode="&#x192;" horiz-adv-x="469" 
d="M296 394v-469q0 -84 -47 -128t-135 -44q-68 0 -119.5 25.5t-51.5 52.5q0 39 26 71q32 -14 81 -14q62 0 62 51v455h-51q-37 0 -37 42q0 56 11 98h77v36q0 84 47 128t135 44q68 0 119.5 -25.5t51.5 -52.5q0 -38 -26 -71q-32 14 -81 14q-62 0 -62 -51v-22h122q31 0 31 -38
v-102h-153z" />
    <glyph glyph-name="Aringacute" unicode="&#x1fa;" horiz-adv-x="710" 
d="M701 0h-166q-37 0 -46 28l-27 85h-213l-35 -113h-162q-18 0 -26.5 9.5t-3.5 25.5l233 645q1 0 7 3t10 4q-26 28 -26 69q0 31 16.5 56.5t44.5 37.5l-34 36l83 90q16 15 26 15q14 0 28 -12q26 -20 46 -61l-84 -60q41 -5 66.5 -34t25.5 -68q0 -37 -22 -64q13 -12 22 -37z
M355 456l-61 -197h122zM356 724q13 0 21.5 8t8.5 23q0 14 -9 23.5t-23 9.5q-13 0 -21.5 -8t-8.5 -23q0 -14 9 -23.5t23 -9.5z" />
    <glyph glyph-name="aringacute" unicode="&#x1fb;" horiz-adv-x="602" 
d="M239 418q-75 0 -143 -33q-20 30 -20 65q0 34 64.5 65t151.5 31q233 0 233 -219v-155q0 -39 30 -39h27q10 -32 10 -60q0 -30 -32 -55t-80 -25q-78 0 -117 66q-46 -71 -140 -71q-83 0 -135 50t-52 126q0 79 56.5 125t148.5 46q66 0 98 -16v29q0 70 -100 70zM393 827
l-84 -60q41 -5 66.5 -34t25.5 -68q0 -44 -31 -74t-78 -30t-78 30t-31 74q0 31 16.5 56.5t44.5 37.5l-34 36l83 90q16 15 26 15q14 0 28 -12q26 -20 46 -61zM272 116q52 0 69 56v55q-21 7 -54 7q-31 0 -49 -18t-18 -46q0 -25 15 -39.5t37 -14.5zM293 633q13 0 21.5 8t8.5 23
q0 14 -9 23.5t-23 9.5q-13 0 -21.5 -8t-8.5 -23q0 -14 9 -23.5t23 -9.5z" />
    <glyph glyph-name="AEacute" unicode="&#x1fc;" horiz-adv-x="929" 
d="M205 0h-158q-23 0 -31 13t1 29l299 623q57 35 134 35h390q37 0 37 -42q0 -52 -12 -114h-263v-117h190q31 0 31 -38v-118h-221v-14q0 -57 14 -79t53 -22h185q31 0 31 -38v-118h-251q-160 0 -205 113h-175zM408 259v205l-90 -205h90zM715 856l-131 -94q-19 -13 -32 -13
q-12 0 -25 13l-50 54l109 116q19 20 33 20q19 0 37 -15q35 -30 59 -81z" />
    <glyph glyph-name="aeacute" unicode="&#x1fd;" horiz-adv-x="895" 
d="M620 -12q-124 0 -195 82q-27 -38 -75 -60t-109 -22q-98 0 -151.5 49.5t-53.5 126.5q0 79 56.5 125t148.5 46q66 0 98 -16v29q0 70 -100 70q-75 0 -143 -33q-20 30 -20 65q0 34 64.5 65t151.5 31q108 0 165 -71q68 71 176 71q101 0 163.5 -57.5t62.5 -147.5q0 -51 -22 -91
q-12 -21 -31 -29.5t-55 -8.5h-222q10 -46 45.5 -70t88.5 -24q76 0 122 27q24 -36 24 -70q0 -27 -54.5 -57t-134.5 -30zM625 416q-42 0 -68 -27.5t-31 -75.5h152q8 13 8 38q0 30 -17 47.5t-44 17.5zM272 116q69 0 69 111q-21 7 -54 7q-31 0 -49 -18t-18 -46q0 -25 15 -39.5
t37 -14.5zM574 682l-131 -94q-19 -13 -32 -13q-12 0 -25 13l-50 54l109 116q19 20 33 20q19 0 37 -15q35 -30 59 -81z" />
    <glyph glyph-name="Oslashacute" unicode="&#x1fe;" horiz-adv-x="794" 
d="M135 0h-72q-20 0 -26 9t4 20l78 85q-75 96 -75 236q0 167 100 264.5t253 97.5q122 0 213 -65l49 53h72q20 0 26 -9t-4 -20l-78 -85q75 -96 75 -236q0 -167 -100 -264.5t-253 -97.5q-124 0 -214 64zM402 144q68 0 111 50t43 148q0 52 -16 98l-237 -257q42 -39 99 -39z
M238 358q0 -53 16 -98l236 257q-42 39 -98 39q-68 0 -111 -50t-43 -148zM527 856l-131 -94q-19 -13 -32 -13q-12 0 -25 13l-50 54l109 116q19 20 33 20q19 0 37 -15q35 -30 59 -81z" />
    <glyph glyph-name="oslashacute" unicode="&#x1ff;" horiz-adv-x="644" 
d="M510 534h67q20 0 26 -9t-4 -20l-55 -60q60 -73 60 -178q0 -128 -82.5 -203.5t-199.5 -75.5q-89 0 -159 44l-29 -32h-67q-20 0 -26 9t4 20l54 59q-59 73 -59 179q0 128 82.5 203.5t199.5 75.5q88 0 158 -44zM224 272q0 -24 3 -45l147 160q-24 19 -56 19q-44 0 -69 -34.5
t-25 -99.5zM326 128q44 0 69 34.5t25 99.5q0 27 -4 44l-147 -159q23 -19 57 -19zM451 682l-131 -94q-19 -13 -32 -13q-12 0 -25 13l-50 54l109 116q19 20 33 20q19 0 37 -15q35 -30 59 -81z" />
    <glyph glyph-name="Scommaaccent" unicode="&#x218;" horiz-adv-x="613" 
d="M286 144q91 0 91 46q0 23 -25.5 39t-99.5 39q-104 32 -154 87.5t-50 139.5q0 95 69.5 156t183.5 61q88 0 151.5 -32t95.5 -84q11 -18 11 -39q0 -31 -34 -48q-55 -27 -129 -32q-23 79 -89 79q-29 0 -47 -15.5t-18 -39.5q0 -26 26 -45t91 -39q111 -34 161.5 -85.5
t50.5 -132.5q0 -94 -67 -152.5t-193 -58.5q-99 0 -169 35t-70 74q0 47 30 86q80 -39 184 -39zM417 -120q0 -67 -50 -120q-22 -24 -47.5 -35.5t-36.5 -5.5q-18 9 -23 32q37 32 46 66q-25 8 -40.5 27t-15.5 45q0 30 23.5 50.5t59.5 20.5q35 0 59.5 -23t24.5 -57z" />
    <glyph glyph-name="scommaaccent" unicode="&#x219;" horiz-adv-x="515" 
d="M459 461q12 -19 12 -34q0 -22 -24 -37q-41 -27 -105 -30q-18 56 -66 56q-21 0 -32.5 -10t-11.5 -24q0 -20 15 -32.5t51 -22.5q95 -25 137 -65.5t42 -106.5q0 -74 -57 -120.5t-160 -46.5q-76 0 -137 29.5t-61 63.5q0 39 26 75q68 -38 146 -38q59 0 59 29q0 14 -10 23
t-38 15q-197 45 -197 196q0 73 56.5 119t149.5 46q70 0 124 -22.5t81 -62.5zM358 -120q0 34 -24.5 57t-59.5 23q-36 0 -59.5 -20.5t-23.5 -50.5q0 -26 15.5 -45t40.5 -27q-9 -34 -46 -66q5 -23 23 -32q11 -6 36.5 5.5t47.5 35.5q50 53 50 120z" />
    <glyph glyph-name="uni021A" unicode="&#x21a;" horiz-adv-x="640" 
d="M44 700h533q31 0 31 -38v-118h-191v-544h-156q-38 0 -38 31v513h-154q-37 0 -37 42q0 52 12 114zM404 -120q0 -67 -50 -120q-22 -24 -47.5 -35.5t-36.5 -5.5q-18 9 -23 32q37 32 46 66q-25 8 -40.5 27t-15.5 45q0 30 23.5 50.5t59.5 20.5q35 0 59.5 -23t24.5 -57z" />
    <glyph glyph-name="uni021B" unicode="&#x21b;" horiz-adv-x="481" 
d="M35 534h77v145q60 15 135 15q49 0 49 -40v-120h122q31 0 31 -38v-102h-153v-196q0 -38 15 -54t49 -16q40 0 68 11q23 -29 23 -68q0 -30 -43.5 -56.5t-108.5 -26.5q-88 0 -137.5 54t-49.5 157v195h-51q-37 0 -37 42q0 56 11 98zM372 -120q0 -67 -50 -120
q-22 -24 -47.5 -35.5t-36.5 -5.5q-18 9 -23 32q37 32 46 66q-25 8 -40.5 27t-15.5 45q0 30 23.5 50.5t59.5 20.5q35 0 59.5 -23t24.5 -57z" />
    <glyph glyph-name="dotlessj" unicode="&#x237;" horiz-adv-x="315" 
d="M253 501v-443q0 -122 -60.5 -191.5t-124.5 -69.5q-21 0 -41 19.5t-30 47.5q72 77 72 193v469q60 15 135 15q49 0 49 -40z" />
    <glyph glyph-name="apostrophe" unicode="&#x2bc;" horiz-adv-x="420" 
d="M207 742q39 0 68 -27.5t29 -72.5q-1 -92 -60 -165q-25 -31 -49.5 -46.5t-35.5 -9.5q-24 14 -30 40q42 42 51 95q-28 9 -46 34t-18 60q0 42 25.5 67t65.5 25z" />
    <glyph glyph-name="circumflex" unicode="&#x2c6;" horiz-adv-x="420" 
d="M204 642l-88 -87q-38 14 -65 43q-12 14 -12 26q0 11 10 20l124 109h40q23 0 40 -16l128 -112l-49 -54q-15 -15 -27 -15t-28 14z" />
    <glyph glyph-name="caron" unicode="&#x2c7;" horiz-adv-x="420" 
d="M210 667l91 90l53 -49q16 -15 16 -28t-18 -27l-110 -97h-42q-23 0 -40 16l-117 103q14 36 33 57t37 21q8 0 20 -10z" />
    <glyph glyph-name="uni02C9" unicode="&#x2c9;" horiz-adv-x="420" 
d="M358 665v-69h-257q-39 0 -39 39q0 32 12 68h253q31 0 31 -38z" />
    <glyph glyph-name="breve" unicode="&#x2d8;" horiz-adv-x="420" 
d="M165 717q9 -59 46 -59q23 0 34 18t12 63h81q17 0 23 -5.5t5 -18.5q-6 -72 -47 -110.5t-109 -38.5q-137 0 -158 148q34 27 81 27q28 0 32 -24z" />
    <glyph glyph-name="dotaccent" unicode="&#x2d9;" horiz-adv-x="420" 
d="M213 571q-33 0 -56.5 23.5t-23.5 60.5q0 34 20.5 55t53.5 21t56.5 -23.5t23.5 -60.5q0 -34 -20.5 -55t-53.5 -21z" />
    <glyph glyph-name="ring" unicode="&#x2da;" horiz-adv-x="420" 
d="M210 759q47 0 78 -30t31 -74t-31 -74t-78 -30t-78 30t-31 74t31 74t78 30zM211 623q13 0 21.5 8t8.5 23q0 14 -9 23.5t-23 9.5q-13 0 -21.5 -8t-8.5 -23q0 -14 9 -23.5t23 -9.5z" />
    <glyph glyph-name="ogonek" unicode="&#x2db;" horiz-adv-x="420" 
d="M290 -141q26 8 26 -19v-63q-29 -17 -86 -17q-56 0 -91 29.5t-35 79.5q0 36 21 72.5t57 58.5h116q-69 -49 -69 -107q0 -17 11 -27t29 -10q13 0 21 3z" />
    <glyph glyph-name="tilde" unicode="&#x2dc;" horiz-adv-x="420" 
d="M272 731l74 -19q25 -7 22 -33q-7 -49 -34 -77t-63 -28q-38 0 -66 22q-27 21 -37 21t-14.5 -9.5t-7.5 -33.5q-40 -3 -74 11q-22 10 -22 29q0 12 4 28q24 84 93 84q38 0 66 -22q27 -21 37 -21q18 0 22 48z" />
    <glyph glyph-name="hungarumlaut" unicode="&#x2dd;" horiz-adv-x="420" 
d="M215 662l-131 -94q-19 -13 -32 -13q-12 0 -25 13l-50 54l109 116q19 20 33 20q19 0 37 -15q35 -30 59 -81zM443 662l-131 -94q-19 -13 -32 -13q-12 0 -25 13l-50 54l109 116q19 20 33 20q19 0 37 -15q35 -30 59 -81z" />
    <glyph glyph-name="gravecomb" unicode="&#x300;" horiz-adv-x="0" 
d="M-236 568l-131 94q24 51 59 81q18 15 37 15q14 0 33 -20l109 -116l-50 -54q-13 -13 -25 -13q-13 0 -32 13z" />
    <glyph glyph-name="acutecomb" unicode="&#x301;" horiz-adv-x="0" 
d="M-129 662l-131 -94q-19 -13 -32 -13q-12 0 -25 13l-50 54l109 116q19 20 33 20q19 0 37 -15q35 -30 59 -81z" />
    <glyph glyph-name="uni0302" unicode="&#x302;" horiz-adv-x="0" 
d="M-248 642l-88 -87q-38 14 -65 43q-12 14 -12 26q0 11 10 20l124 109h40q23 0 40 -16l128 -112l-49 -54q-15 -15 -27 -15t-28 14z" />
    <glyph glyph-name="tildecomb" unicode="&#x303;" horiz-adv-x="0" 
d="M-186 731l74 -19q25 -7 22 -33q-7 -49 -34 -77t-63 -28q-38 0 -66 22q-27 21 -37 21t-14.5 -9.5t-7.5 -33.5q-40 -3 -74 11q-22 10 -22 29q0 12 4 28q24 84 93 84q38 0 66 -22q27 -21 37 -21q18 0 22 48z" />
    <glyph glyph-name="uni0304" unicode="&#x304;" horiz-adv-x="0" 
d="M-100 665v-69h-257q-39 0 -39 39q0 32 12 68h253q31 0 31 -38z" />
    <glyph glyph-name="uni0306" unicode="&#x306;" horiz-adv-x="0" 
d="M-293 717q9 -59 46 -59q23 0 34 18t12 63h81q17 0 23 -5.5t5 -18.5q-6 -72 -47 -110.5t-109 -38.5q-137 0 -158 148q34 27 81 27q28 0 32 -24z" />
    <glyph glyph-name="uni0307" unicode="&#x307;" horiz-adv-x="0" 
d="M-245 571q-33 0 -56.5 23.5t-23.5 60.5q0 34 20.5 55t53.5 21t56.5 -23.5t23.5 -60.5q0 -34 -20.5 -55t-53.5 -21z" />
    <glyph glyph-name="uni0308" unicode="&#x308;" horiz-adv-x="0" 
d="M-346 571q-33 0 -56.5 23.5t-23.5 60.5q0 34 20.5 55t53.5 21t56.5 -23.5t23.5 -60.5q0 -34 -20.5 -55t-53.5 -21zM-145 571q-33 0 -56.5 23.5t-23.5 60.5q0 34 20.5 55t53.5 21t56.5 -23.5t23.5 -60.5q0 -34 -20.5 -55t-53.5 -21z" />
    <glyph glyph-name="uni030A" unicode="&#x30a;" horiz-adv-x="0" 
d="M-248 759q47 0 78 -30t31 -74t-31 -74t-78 -30t-78 30t-31 74t31 74t78 30zM-247 623q13 0 21.5 8t8.5 23q0 14 -9 23.5t-23 9.5q-13 0 -21.5 -8t-8.5 -23q0 -14 9 -23.5t23 -9.5z" />
    <glyph glyph-name="uni030C" unicode="&#x30c;" horiz-adv-x="0" 
d="M-248 667l91 90l53 -49q16 -15 16 -28t-18 -27l-110 -97h-42q-23 0 -40 16l-117 103q14 36 33 57t37 21q8 0 20 -10z" />
    <glyph glyph-name="uni0327" unicode="&#x327;" horiz-adv-x="0" 
d="M-276 -246q-45 0 -76 10v66q0 25 27 19q12 -3 23 -3q33 0 33 23q0 27 -51 33q-17 8 -17 16q0 3 2 7l40 75h112l-32 -60q33 -7 52 -29t19 -51q0 -47 -37 -76.5t-95 -29.5z" />
    <glyph glyph-name="uni03A9" unicode="&#x3a9;" horiz-adv-x="802" 
d="M635 156h78q31 0 31 -38v-118h-317v94q0 22 8 34.5t32 31.5q93 74 93 198q0 91 -43 144.5t-116 53.5t-116 -53.5t-43 -144.5q0 -124 93 -198q24 -19 32 -31.5t8 -34.5v-94h-280q-37 0 -37 42q0 52 12 114h97q-55 38 -87 100t-32 129q0 141 97 234t256 93t256 -93t97 -234
q0 -67 -32 -129t-87 -100z" />
    <glyph glyph-name="uni0400" unicode="&#x400;" horiz-adv-x="591" 
d="M527 544h-263v-117h190q31 0 31 -38v-118h-221v-14q0 -57 14 -79t53 -22h185q31 0 31 -38v-118h-251q-117 0 -171.5 59.5t-54.5 184.5v456h432q37 0 37 -42q0 -52 -12 -114zM304 762l-131 94q24 51 59 81q18 15 37 15q14 0 33 -20l109 -116l-50 -54q-13 -13 -25 -13
q-13 0 -32 13z" />
    <glyph glyph-name="afii10023" unicode="&#x401;" horiz-adv-x="591" 
d="M527 544h-263v-117h190q31 0 31 -38v-118h-221v-14q0 -57 14 -79t53 -22h185q31 0 31 -38v-118h-251q-117 0 -171.5 59.5t-54.5 184.5v456h432q37 0 37 -42q0 -52 -12 -114zM204 765q-33 0 -56.5 23.5t-23.5 60.5q0 34 20.5 55t53.5 21t56.5 -23.5t23.5 -60.5
q0 -34 -20.5 -55t-53.5 -21zM405 765q-33 0 -56.5 23.5t-23.5 60.5q0 34 20.5 55t53.5 21t56.5 -23.5t23.5 -60.5q0 -34 -20.5 -55t-53.5 -21z" />
    <glyph glyph-name="afii10051" unicode="&#x402;" horiz-adv-x="773" 
d="M527 54v160q0 41 -12.5 58.5t-38.5 17.5q-29 0 -59 -23v-267h-156q-38 0 -38 31v513h-154q-37 0 -37 42q0 52 12 114h533q31 0 31 -38v-118h-191v-151q56 53 129 53q85 0 130 -55.5t45 -166.5v-168q0 -119 -61 -190t-129 -71q-21 0 -43.5 20t-32.5 47q72 77 72 192z" />
    <glyph glyph-name="afii10052" unicode="&#x403;" horiz-adv-x="568" 
d="M72 700h437q31 0 31 -38v-118h-274v-544h-156q-38 0 -38 31v669zM448 856l-131 -94q-19 -13 -32 -13q-12 0 -25 13l-50 54l109 116q19 20 33 20q19 0 37 -15q35 -30 59 -81z" />
    <glyph glyph-name="afii10053" unicode="&#x404;" horiz-adv-x="710" 
d="M512 448q-38 108 -131 108q-56 0 -93.5 -37.5t-47.5 -105.5h213q31 0 31 -38v-108h-228q50 -123 204 -123q100 0 165 37q11 -15 20.5 -40.5t9.5 -43.5q0 -37 -73.5 -73t-164.5 -36q-161 0 -267 106t-106 273q0 154 95.5 249.5t244.5 95.5q99 0 172.5 -38t110.5 -102
q11 -19 11 -39q0 -28 -34 -48q-56 -32 -132 -37z" />
    <glyph glyph-name="afii10054" unicode="&#x405;" horiz-adv-x="613" 
d="M286 144q91 0 91 46q0 23 -25.5 39t-99.5 39q-104 32 -154 87.5t-50 139.5q0 95 69.5 156t183.5 61q88 0 151.5 -32t95.5 -84q11 -18 11 -39q0 -31 -34 -48q-55 -27 -129 -32q-23 79 -89 79q-29 0 -47 -15.5t-18 -39.5q0 -26 26 -45t91 -39q111 -34 161.5 -85.5
t50.5 -132.5q0 -94 -67 -152.5t-193 -58.5q-99 0 -169 35t-70 74q0 47 30 86q80 -39 184 -39z" />
    <glyph glyph-name="afii10055" unicode="&#x406;" horiz-adv-x="346" 
d="M270 669v-669h-156q-38 0 -38 31v663q68 16 143 16q51 0 51 -41z" />
    <glyph glyph-name="afii10056" unicode="&#x407;" horiz-adv-x="346" 
d="M270 669v-669h-156q-38 0 -38 31v663q68 16 143 16q51 0 51 -41zM75 765q-33 0 -56.5 23.5t-23.5 60.5q0 34 20.5 55t53.5 21t56.5 -23.5t23.5 -60.5q0 -34 -20.5 -55t-53.5 -21zM276 765q-33 0 -56.5 23.5t-23.5 60.5q0 34 20.5 55t53.5 21t56.5 -23.5t23.5 -60.5
q0 -34 -20.5 -55t-53.5 -21z" />
    <glyph glyph-name="afii10057" unicode="&#x408;" horiz-adv-x="490" 
d="M422 669v-430q0 -123 -56 -187t-167 -64q-73 0 -130 27t-57 60q0 47 26 87q50 -18 99 -18q91 0 91 103v447q68 16 143 16q51 0 51 -41z" />
    <glyph glyph-name="afii10058" unicode="&#x409;" horiz-adv-x="1128" 
d="M218 700h466q38 0 38 -31v-233q56 27 133 27q104 0 170.5 -58.5t66.5 -157.5q0 -122 -79 -184.5t-227 -62.5h-32q-117 0 -171.5 59.5t-54.5 184.5v300h-118q-6 -182 -27 -318q-18 -123 -72 -180.5t-145 -57.5q-58 0 -108 27t-50 58q0 47 26 87q38 -16 77 -16q33 0 51 24
t28 89q28 186 28 443zM789 156h10q99 0 99 80q0 42 -24 60.5t-72 18.5q-46 0 -80 -12v-46q0 -57 14 -79t53 -22z" />
    <glyph glyph-name="afii10059" unicode="&#x40a;" horiz-adv-x="1043" 
d="M266 669v-240h177v271h156q38 0 38 -31v-233q56 27 133 27q104 0 170.5 -58.5t66.5 -157.5q0 -122 -79 -184.5t-227 -62.5h-32q-117 0 -171.5 59.5t-54.5 184.5v29h-177v-273h-156q-38 0 -38 31v663q68 16 143 16q51 0 51 -41zM704 156h10q99 0 99 80q0 42 -24 60.5
t-72 18.5q-46 0 -80 -12v-46q0 -57 14 -79t53 -22z" />
    <glyph glyph-name="afii10060" unicode="&#x40b;" horiz-adv-x="805" 
d="M721 224v-42q0 -39 30 -39h27q10 -32 10 -65t-34 -59t-83 -26q-60 0 -102 36.5t-42 110.5v74q0 41 -12.5 58.5t-38.5 17.5q-29 0 -59 -23v-267h-156q-38 0 -38 31v513h-154q-37 0 -37 42q0 52 12 114h533q31 0 31 -38v-118h-191v-151q56 53 129 53q85 0 130 -55.5
t45 -166.5z" />
    <glyph glyph-name="afii10061" unicode="&#x40c;" horiz-adv-x="701" 
d="M636 564q-60 -96 -163 -187q61 -136 127 -207q27 -30 64 -30h14q13 -34 13 -76q0 -28 -35.5 -52t-81.5 -24q-52 0 -88 23.5t-69 70.5q-51 71 -93 182q-12 -8 -33.5 -21t-24.5 -15v-228h-156q-38 0 -38 31v663q68 16 143 16q51 0 51 -41v-238q143 113 245 281
q80 -23 110.5 -47.5t30.5 -56.5q0 -18 -16 -44zM477 856l-131 -94q-19 -13 -32 -13q-12 0 -25 13l-50 54l109 116q19 20 33 20q19 0 37 -15q35 -30 59 -81z" />
    <glyph glyph-name="uni040D" unicode="&#x40d;" horiz-adv-x="724" 
d="M652 0h-156q-38 0 -38 31v340l-201 -353q-17 -28 -52 -28q-23 0 -62.5 16.5t-70.5 38.5v649q68 16 143 16q51 0 51 -41v-340l201 353q17 28 52 28q23 0 62.5 -16.5t70.5 -38.5v-655zM362 762l-131 94q24 51 59 81q18 15 37 15q14 0 33 -20l109 -116l-50 -54
q-13 -13 -25 -13q-13 0 -32 13z" />
    <glyph glyph-name="afii10062" unicode="&#x40e;" horiz-adv-x="680" 
d="M202 0h92q102 127 195 296.5t156 328.5q5 12 5 23q0 24 -19 38t-54 14h-109q-47 -143 -115 -277l-117 245q-11 23 -23.5 30.5t-36.5 7.5q-30 0 -66 -19t-68 -55q164 -320 204 -398q-62 -98 -102 -150q-14 -17 -14 -33q0 -22 19 -36.5t53 -14.5zM302 912q9 -59 46 -59
q23 0 34 18t12 63h81q17 0 23 -5.5t5 -18.5q-6 -72 -47 -110.5t-109 -38.5q-137 0 -158 148q34 27 81 27q28 0 32 -24z" />
    <glyph glyph-name="afii10145" unicode="&#x40f;" horiz-adv-x="732" 
d="M331 156h135v544h156q38 0 38 -31v-669h-184v-147h-156q-38 0 -38 31v116q-110 3 -161 62.5t-51 181.5v450q68 16 143 16q51 0 51 -41v-412q0 -57 14 -79t53 -22z" />
    <glyph glyph-name="afii10017" unicode="&#x410;" horiz-adv-x="710" 
d="M701 0h-166q-37 0 -46 28l-26 83h-216l-33 -111h-162q-18 0 -26.5 9.5t-3.5 25.5l233 645q64 27 131 27q35 0 51 -11t27 -41zM355 466l-64 -209h128z" />
    <glyph glyph-name="afii10018" unicode="&#x411;" horiz-adv-x="674" 
d="M331 156h10q99 0 99 80q0 42 -24 60.5t-72 18.5q-46 0 -80 -12v-46q0 -57 14 -79t53 -22zM70 700h452q31 0 31 -38v-118h-289v-108q56 27 133 27q104 0 170.5 -58.5t66.5 -157.5q0 -122 -79 -184.5t-227 -62.5h-32q-117 0 -171.5 59.5t-54.5 184.5v456z" />
    <glyph glyph-name="afii10019" unicode="&#x412;" horiz-adv-x="673" 
d="M434 215q0 31 -20 49.5t-56 18.5h-93v-36q0 -56 17.5 -78.5t57.5 -22.5h18q36 0 56 18.5t20 50.5zM411 488q0 29 -17.5 48t-52.5 19h-77v-134h77q35 0 52.5 19t17.5 48zM70 700h275q126 0 193 -51t67 -139q0 -50 -25.5 -90.5t-67.5 -58.5q53 -19 84.5 -60.5t31.5 -103.5
q0 -89 -68 -143t-198 -54h-66q-117 0 -171.5 59.5t-54.5 184.5v456z" />
    <glyph glyph-name="afii10020" unicode="&#x413;" horiz-adv-x="568" 
d="M72 700h437q31 0 31 -38v-118h-274v-544h-156q-38 0 -38 31v669z" />
    <glyph glyph-name="afii10021" unicode="&#x414;" horiz-adv-x="691" 
d="M391 544h-61q-13 -214 -53 -388h114v388zM585 669v-512h43q38 0 38 -31v-273h-156q-38 0 -38 31v116h-254v-147h-156q-38 0 -38 31v273h62q54 211 64 543h397q38 0 38 -31z" />
    <glyph glyph-name="afii10022" unicode="&#x415;" horiz-adv-x="591" 
d="M527 544h-263v-117h190q31 0 31 -38v-118h-221v-14q0 -57 14 -79t53 -22h185q31 0 31 -38v-118h-251q-117 0 -171.5 59.5t-54.5 184.5v456h432q37 0 37 -42q0 -52 -12 -114z" />
    <glyph glyph-name="afii10024" unicode="&#x416;" horiz-adv-x="1038" 
d="M218 386q-100 86 -153 178q-13 23 -13 44q0 32 30.5 56.5t110.5 47.5q46 -80 109 -153.5t120 -120.5v256q68 16 143 16q51 0 51 -41v-231q57 47 120 120.5t109 153.5q80 -23 110.5 -47.5t30.5 -56.5q0 -21 -13 -44q-53 -92 -153 -178q48 -136 110 -216q22 -30 63 -30h16
q13 -34 13 -76q0 -30 -35 -53t-82 -23q-51 0 -88 27t-71 82q-43 68 -75 177q-43 -29 -55 -36v-238h-156q-38 0 -38 31v207q-12 7 -55 36q-32 -109 -75 -177q-34 -55 -71 -82t-88 -27q-47 0 -82 23t-35 53q0 42 13 76h16q41 0 63 30q62 80 110 216z" />
    <glyph glyph-name="afii10025" unicode="&#x417;" horiz-adv-x="621" 
d="M244 280h-12q-37 0 -37 42q0 56 12 104h45q113 0 113 71q0 26 -19 42.5t-48 16.5q-31 0 -55.5 -20.5t-35.5 -58.5q-74 5 -129 32q-34 17 -34 48q0 21 11 39q32 52 98 84t161 32q109 0 177 -56.5t68 -145.5q0 -51 -26.5 -91t-67.5 -60q51 -20 81.5 -60t30.5 -94
q0 -95 -74 -156t-211 -61q-99 0 -170 35t-71 74q0 47 30 86q80 -39 180 -39q123 0 123 64q0 72 -140 72z" />
    <glyph glyph-name="afii10026" unicode="&#x418;" horiz-adv-x="724" 
d="M652 0h-156q-38 0 -38 31v340l-201 -353q-17 -28 -52 -28q-23 0 -62.5 16.5t-70.5 38.5v649q68 16 143 16q51 0 51 -41v-340l201 353q17 28 52 28q23 0 62.5 -16.5t70.5 -38.5v-655z" />
    <glyph glyph-name="afii10027" unicode="&#x419;" horiz-adv-x="724" 
d="M652 0h-156q-38 0 -38 31v340l-201 -353q-17 -28 -52 -28q-23 0 -62.5 16.5t-70.5 38.5v649q68 16 143 16q51 0 51 -41v-340l201 353q17 28 52 28q23 0 62.5 -16.5t70.5 -38.5v-655zM320 912q9 -59 46 -59q23 0 34 18t12 63h81q17 0 23 -5.5t5 -18.5q-6 -72 -47 -110.5
t-109 -38.5q-137 0 -158 148q34 27 81 27q28 0 32 -24z" />
    <glyph glyph-name="afii10028" unicode="&#x41a;" horiz-adv-x="701" 
d="M636 564q-60 -96 -163 -187q61 -136 127 -207q27 -30 64 -30h14q13 -34 13 -76q0 -28 -35.5 -52t-81.5 -24q-52 0 -88 23.5t-69 70.5q-51 71 -93 182q-12 -8 -33.5 -21t-24.5 -15v-228h-156q-38 0 -38 31v663q68 16 143 16q51 0 51 -41v-238q143 113 245 281
q80 -23 110.5 -47.5t30.5 -56.5q0 -18 -16 -44z" />
    <glyph glyph-name="afii10029" unicode="&#x41b;" horiz-adv-x="804" 
d="M732 669v-669h-156q-38 0 -38 31v513h-128q-6 -182 -27 -318q-18 -123 -72 -180.5t-145 -57.5q-58 0 -108 27t-50 58q0 47 26 87q38 -16 77 -16q33 0 51 24t28 89q28 186 28 443h476q38 0 38 -31z" />
    <glyph glyph-name="afii10030" unicode="&#x41c;" horiz-adv-x="911" 
d="M613 700h135q35 0 38 -28l73 -672h-160q-39 0 -42 33l-33 385l-96 -194q-13 -24 -50 -24h-85l-109 218l-36 -418h-157q-41 0 -38 33l68 633q76 44 135 44q19 0 30 -7t21 -26l147 -290z" />
    <glyph glyph-name="afii10031" unicode="&#x41d;" horiz-adv-x="729" 
d="M266 669v-240h197v271h156q38 0 38 -31v-669h-156q-38 0 -38 31v242h-197v-273h-156q-38 0 -38 31v663q68 16 143 16q51 0 51 -41z" />
    <glyph glyph-name="afii10032" unicode="&#x41e;" horiz-adv-x="794" 
d="M750 350q0 -167 -100 -264.5t-253 -97.5t-253 97.5t-100 264.5t100 264.5t253 97.5t253 -97.5t100 -264.5zM402 144q68 0 111 50t43 148q0 96 -47 155t-117 59q-68 0 -111 -50t-43 -148q0 -96 47 -155t117 -59z" />
    <glyph glyph-name="afii10033" unicode="&#x41f;" horiz-adv-x="729" 
d="M657 669v-669h-156q-38 0 -38 31v513h-197v-544h-156q-38 0 -38 31v669h547q38 0 38 -31z" />
    <glyph glyph-name="afii10034" unicode="&#x420;" horiz-adv-x="657" 
d="M266 0h-156q-38 0 -38 31v669h255q137 0 215.5 -70.5t78.5 -195.5q0 -117 -77 -187t-197 -70q-39 0 -81 11v-188zM266 544v-206q25 -5 51 -5q51 0 80.5 27t29.5 78q0 52 -28 79t-79 27h-54z" />
    <glyph glyph-name="afii10035" unicode="&#x421;" horiz-adv-x="710" 
d="M512 448q-38 108 -131 108q-65 0 -104 -49t-39 -137q0 -100 60.5 -163t161.5 -63q100 0 165 37q11 -15 20.5 -40.5t9.5 -43.5q0 -37 -73.5 -73t-164.5 -36q-161 0 -267 106t-106 273q0 154 95.5 249.5t244.5 95.5q99 0 172.5 -38t110.5 -102q11 -19 11 -39q0 -28 -34 -48
q-56 -32 -132 -37z" />
    <glyph glyph-name="afii10036" unicode="&#x422;" horiz-adv-x="640" 
d="M44 700h533q31 0 31 -38v-118h-191v-544h-156q-38 0 -38 31v513h-154q-37 0 -37 42q0 52 12 114z" />
    <glyph glyph-name="afii10037" unicode="&#x423;" horiz-adv-x="680" 
d="M294 0h-92q-34 0 -53 14.5t-19 36.5q0 16 14 33q40 52 102 150q-40 78 -204 398q32 36 68 55t66 19q24 0 36.5 -7.5t23.5 -30.5l117 -245q68 134 115 277h109q35 0 54 -14t19 -38q0 -11 -5 -23q-63 -159 -156 -328.5t-195 -296.5z" />
    <glyph glyph-name="afii10038" unicode="&#x424;" horiz-adv-x="816" 
d="M778 357q0 -107 -79 -180.5t-194 -84.5v-92h-156q-38 0 -38 31v57q-115 11 -194 84.5t-79 180.5t79 180.5t194 84.5v76q68 16 143 16q51 0 51 -41v-47q115 -11 194 -84.5t79 -180.5zM227 362q0 -46 24 -80.5t65 -48.5v246q-37 -6 -63 -37t-26 -80zM589 347q0 46 -24 80.5
t-65 48.5v-246q37 6 63 37t26 80z" />
    <glyph glyph-name="afii10039" unicode="&#x425;" horiz-adv-x="714" 
d="M225 686l143 -186q69 95 95 200h149q62 0 44 -51q-58 -165 -186 -279l219 -282q-77 -98 -137 -98q-20 0 -38 24l-167 214q-77 -96 -111 -228h-149q-61 0 -44 51q63 186 204 306l-197 255q77 98 137 98q20 0 38 -24z" />
    <glyph glyph-name="afii10040" unicode="&#x426;" horiz-adv-x="766" 
d="M741 125v-272h-156q-38 0 -38 31v116h-251q-117 0 -171.5 59.5t-54.5 184.5v450q68 16 143 16q51 0 51 -41v-412q0 -57 14 -79t53 -22h135v544h156q38 0 38 -31v-513h43q38 0 38 -31z" />
    <glyph glyph-name="afii10041" unicode="&#x427;" horiz-adv-x="699" 
d="M433 31v197q-48 -32 -128 -32q-106 0 -174.5 70.5t-68.5 196.5v231q68 16 143 16q51 0 51 -41v-212q0 -51 28 -77.5t77 -26.5q43 0 72 16v331h156q38 0 38 -31v-669h-156q-38 0 -38 31z" />
    <glyph glyph-name="afii10042" unicode="&#x428;" horiz-adv-x="954" 
d="M573 156h115v544h156q38 0 38 -31v-669h-586q-117 0 -171.5 59.5t-54.5 184.5v450q68 16 143 16q51 0 51 -41v-412q0 -57 14 -79t53 -22h48v544h156q38 0 38 -31v-513z" />
    <glyph glyph-name="afii10043" unicode="&#x429;" horiz-adv-x="988" 
d="M963 125v-272h-156q-38 0 -38 31v116h-473q-117 0 -171.5 59.5t-54.5 184.5v450q68 16 143 16q51 0 51 -41v-412q0 -57 14 -79t53 -22h48v544h156q38 0 38 -31v-513h115v544h156q38 0 38 -31v-513h43q38 0 38 -31z" />
    <glyph glyph-name="afii10044" unicode="&#x42a;" horiz-adv-x="823" 
d="M484 156h10q99 0 99 80q0 42 -24 60.5t-72 18.5q-46 0 -80 -12v-46q0 -57 14 -79t53 -22zM223 244v300h-154q-37 0 -37 42q0 52 12 114h335q38 0 38 -31v-233q56 27 133 27q104 0 170.5 -58.5t66.5 -157.5q0 -122 -79 -184.5t-227 -62.5h-32q-117 0 -171.5 59.5
t-54.5 184.5z" />
    <glyph glyph-name="afii10045" unicode="&#x42b;" horiz-adv-x="984" 
d="M912 669v-669h-156q-38 0 -38 31v663q68 16 143 16q51 0 51 -41zM331 156h10q99 0 99 80q0 42 -24 60.5t-72 18.5q-46 0 -80 -12v-46q0 -57 14 -79t53 -22zM70 244v450q68 16 143 16q51 0 51 -41v-233q56 27 133 27q104 0 170.5 -58.5t66.5 -157.5q0 -122 -79 -184.5
t-227 -62.5h-32q-117 0 -171.5 59.5t-54.5 184.5z" />
    <glyph glyph-name="afii10046" unicode="&#x42c;" horiz-adv-x="670" 
d="M331 156h10q99 0 99 80q0 42 -24 60.5t-72 18.5q-46 0 -80 -12v-46q0 -57 14 -79t53 -22zM70 244v450q68 16 143 16q51 0 51 -41v-233q56 27 133 27q104 0 170.5 -58.5t66.5 -157.5q0 -122 -79 -184.5t-227 -62.5h-32q-117 0 -171.5 59.5t-54.5 184.5z" />
    <glyph glyph-name="afii10047" unicode="&#x42d;" horiz-adv-x="710" 
d="M198 448q-76 5 -132 37q-34 20 -34 48q0 20 11 39q37 64 110.5 102t172.5 38q149 0 244.5 -95.5t95.5 -249.5q0 -167 -106 -273t-267 -106q-91 0 -164.5 36t-73.5 73q0 18 9.5 43.5t20.5 40.5q65 -37 165 -37q74 0 126.5 32t76.5 91h-190q-37 0 -37 42q0 59 12 104h231
q-9 68 -46.5 105.5t-93.5 37.5q-93 0 -131 -108z" />
    <glyph glyph-name="afii10048" unicode="&#x42e;" horiz-adv-x="1076" 
d="M1032 350q0 -167 -100 -264.5t-253 -97.5q-133 0 -227.5 75t-118.5 207h-67v-270h-156q-38 0 -38 31v663q68 16 143 16q51 0 51 -41v-243h66q22 133 117.5 209.5t229.5 76.5q153 0 253 -97.5t100 -264.5zM684 144q68 0 111 50t43 148q0 96 -47 155t-117 59
q-68 0 -111 -50t-43 -148q0 -96 47 -155t117 -59z" />
    <glyph glyph-name="afii10049" unicode="&#x42f;" horiz-adv-x="664" 
d="M398 356v188h-34q-50 0 -78 -25t-28 -72t28 -71t75 -24q24 0 37 4zM592 662v-662h-156q-38 0 -38 31v175q-14 -6 -50 -10q-21 -77 -71 -138q-57 -70 -135 -70q-47 0 -79.5 24.5t-32.5 53.5q0 40 13 74h18q37 0 63 25q29 27 52 75q-53 33 -84 86t-31 121q0 118 78.5 185.5
t214.5 67.5h207q31 0 31 -38z" />
    <glyph glyph-name="afii10065" unicode="&#x430;" horiz-adv-x="602" 
d="M239 418q-75 0 -143 -33q-20 30 -20 65q0 33 66 64.5t150 31.5q233 0 233 -219v-155q0 -39 30 -39h27q10 -32 10 -60q0 -30 -32 -55t-80 -25q-78 0 -117 66q-46 -71 -140 -71q-83 0 -135 50t-52 126q0 79 56.5 125t148.5 46q66 0 98 -16v29q0 70 -100 70zM272 116
q52 0 69 56v55q-21 7 -54 7q-31 0 -49 -18t-18 -46q0 -25 15 -39.5t37 -14.5z" />
    <glyph glyph-name="afii10066" unicode="&#x431;" horiz-adv-x="645" 
d="M52 310q0 128 30 206.5t80.5 113t133.5 50.5l102 19q63 12 125 46q34 -29 40 -77q3 -29 -47 -62t-120 -47l-68 -13q-43 -9 -63.5 -36.5t-25.5 -98.5q59 72 160 72q87 0 148 -65t61 -173q0 -110 -78 -183.5t-197 -73.5q-127 0 -204 88.5t-77 233.5zM334 128q41 0 66.5 30
t25.5 82q0 51 -25 77t-71 26q-52 0 -96 -44v-3q0 -75 28 -121.5t72 -46.5z" />
    <glyph glyph-name="afii10067" unicode="&#x432;" horiz-adv-x="569" 
d="M300 408h-59v-84h59q18 0 28.5 11.5t10.5 30.5t-10.5 30.5t-28.5 11.5zM241 216v-48q0 -42 28 -42h32q53 0 53 45t-55 45h-58zM62 188v346h244q94 0 148 -43.5t54 -107.5q0 -73 -59 -103q38 -13 61 -44.5t23 -73.5q0 -70 -53.5 -116t-153.5 -46h-84q-92 0 -136 45.5
t-44 142.5z" />
    <glyph glyph-name="afii10068" unicode="&#x433;" horiz-adv-x="486" 
d="M248 394v-394h-146q-38 0 -38 31v503h367q31 0 31 -38v-102h-214z" />
    <glyph glyph-name="afii10069" unicode="&#x434;" horiz-adv-x="614" 
d="M415 -87v87h-211v-118h-146q-38 0 -38 31v227h61q45 140 60 394h344q38 0 38 -31v-363h38q38 0 38 -31v-227h-146q-38 0 -38 31zM253 140h96v254h-52q-11 -139 -44 -254z" />
    <glyph glyph-name="afii10070" unicode="&#x435;" horiz-adv-x="594" 
d="M319 -12q-123 0 -201 79t-78 198q0 124 80.5 202.5t200.5 78.5q109 0 173 -57t64 -148q0 -51 -22 -91q-12 -21 -31 -29.5t-55 -8.5h-222q10 -46 45.5 -70t88.5 -24q76 0 122 27q24 -36 24 -70q0 -27 -54.5 -57t-134.5 -30zM324 416q-42 0 -68 -27.5t-31 -75.5h152
q8 14 8 38q0 30 -17 47.5t-44 17.5z" />
    <glyph glyph-name="afii10072" unicode="&#x436;" horiz-adv-x="838" 
d="M510 0h-144q-38 0 -38 31v172q-6 3 -41 23q-12 -72 -45 -139q-46 -94 -119 -94q-43 0 -73 24t-30 52q0 37 12 68h20q17 0 27 8.5t23 30.5q34 58 61 137q-59 50 -95 102q-13 18 -13 39q0 30 27.5 52t102.5 45q53 -99 143 -175v150q60 15 133 15q49 0 49 -40v-125
q89 76 143 175q75 -23 102.5 -45t27.5 -52q0 -21 -13 -39q-36 -52 -95 -102q24 -75 61 -137q13 -22 23 -30.5t27 -8.5h20q12 -32 12 -68q0 -28 -30 -52t-73 -24q-73 0 -119 94q-32 66 -46 139q-19 -12 -40 -23v-203z" />
    <glyph glyph-name="afii10073" unicode="&#x437;" horiz-adv-x="541" 
d="M222 206h-15q-32 0 -32 41q0 44 11 79h34q80 0 80 51q0 15 -13 27t-38 12q-54 0 -72 -56q-64 3 -105 30q-24 15 -24 37q0 15 12 34q27 40 83.5 62.5t128.5 22.5q94 0 152.5 -43.5t58.5 -107.5q0 -83 -81 -120q43 -15 69 -46t26 -73q0 -74 -62.5 -121t-165.5 -47
q-88 0 -151 30.5t-63 63.5q0 34 24 70q66 -34 142 -34q92 0 92 46q0 42 -91 42z" />
    <glyph glyph-name="afii10074" unicode="&#x438;" horiz-adv-x="631" 
d="M64 48v478q60 15 135 15q49 0 49 -40v-221l147 237q15 24 44 24q15 0 37 -6q49 -15 91 -48v-487h-146q-38 0 -38 31v224l-147 -237q-15 -24 -44 -24q-15 0 -37 6q-49 15 -91 48z" />
    <glyph glyph-name="afii10075" unicode="&#x439;" horiz-adv-x="631" 
d="M64 526v-478q42 -33 91 -48q22 -6 37 -6q29 0 44 24l147 237v-224q0 -31 38 -31h146v487q-42 33 -91 48q-22 6 -37 6q-29 0 -44 -24l-147 -237v221q0 40 -49 40q-75 0 -135 -15zM271 737q9 -59 46 -59q23 0 34 18t12 63h81q17 0 23 -5.5t5 -18.5q-6 -72 -47 -110.5
t-109 -38.5q-137 0 -158 148q34 27 81 27q28 0 32 -24z" />
    <glyph glyph-name="afii10076" unicode="&#x43a;" horiz-adv-x="615" 
d="M248 0h-146q-38 0 -38 31v495q60 15 135 15q49 0 49 -40v-137q50 32 102.5 84.5t79.5 102.5q75 -23 102.5 -45t27.5 -52q0 -21 -13 -39q-43 -62 -117 -119q37 -79 69 -124q28 -40 59 -40h25q12 -31 12 -60t-33.5 -54t-79.5 -25q-79 0 -128 80q-29 48 -63 132
q-25 -14 -43 -22v-183z" />
    <glyph glyph-name="afii10077" unicode="&#x43b;" horiz-adv-x="676" 
d="M158 534h416q38 0 38 -31v-503h-146q-38 0 -38 31v363h-96q-4 -128 -15 -204q-14 -104 -56 -153t-120 -49q-53 0 -93 24t-40 52q0 40 23 75q20 -11 48 -11t42.5 21.5t21.5 80.5q13 125 15 304z" />
    <glyph glyph-name="afii10078" unicode="&#x43c;" horiz-adv-x="767" 
d="M288 508l94 -189l107 215h134q36 0 39 -31l59 -503h-147q-36 0 -39 31l-31 284l-64 -129q-10 -17 -32 -17h-75l-73 146l-34 -315h-141q-41 0 -38 31l54 466q76 44 136 44q19 0 30 -7t21 -26z" />
    <glyph glyph-name="afii10079" unicode="&#x43d;" horiz-adv-x="617" 
d="M248 206v-206h-146q-38 0 -38 31v495q60 15 135 15q49 0 49 -40v-155h121v188h146q38 0 38 -31v-503h-146q-38 0 -38 31v175h-121z" />
    <glyph glyph-name="afii10080" unicode="&#x43e;" horiz-adv-x="644" 
d="M322 546q117 0 199.5 -75.5t82.5 -203.5t-82.5 -203.5t-199.5 -75.5t-199.5 75.5t-82.5 203.5t82.5 203.5t199.5 75.5zM326 128q44 0 69 34.5t25 99.5q0 67 -27.5 105.5t-74.5 38.5q-44 0 -69 -34.5t-25 -99.5q0 -67 27.5 -105.5t74.5 -38.5z" />
    <glyph glyph-name="afii10081" unicode="&#x43f;" horiz-adv-x="617" 
d="M64 31v503h451q38 0 38 -31v-503h-146q-38 0 -38 31v363h-121v-394h-146q-38 0 -38 31z" />
    <glyph glyph-name="afii10082" unicode="&#x440;" horiz-adv-x="653" 
d="M248 35v-248h-146q-38 0 -38 31v708q60 15 135 15q49 0 49 -40v-32q54 77 146 77q95 0 157 -70.5t62 -185.5q0 -137 -73 -219.5t-172 -82.5q-76 0 -120 47zM248 330v-179q26 -23 66 -23q50 0 82.5 44.5t32.5 113.5q0 120 -86 120q-30 0 -55.5 -20t-39.5 -56z" />
    <glyph glyph-name="afii10083" unicode="&#x441;" horiz-adv-x="566" 
d="M527 83q0 -30 -57 -62.5t-140 -32.5q-123 0 -206.5 81.5t-83.5 212.5q0 115 73 189.5t197 74.5q75 0 133 -28.5t86 -74.5q11 -18 11 -37q0 -27 -37 -48q-43 -24 -118 -33q-18 81 -78 81q-39 0 -61 -32t-22 -90q0 -70 43 -113t116 -43q70 0 118 30q26 -38 26 -75z" />
    <glyph glyph-name="afii10084" unicode="&#x442;" horiz-adv-x="554" 
d="M369 394v-394h-146q-38 0 -38 31v363h-122q-37 0 -37 42q0 56 11 98h460q31 0 31 -38v-102h-159z" />
    <glyph glyph-name="afii10085" unicode="&#x443;" horiz-adv-x="632" 
d="M568 503v-491q0 -113 -73 -186.5t-216 -73.5q-96 0 -153.5 40t-57.5 103q0 38 22 69t61 48q-89 47 -89 198v311q60 15 135 15q49 0 49 -40v-292q0 -76 63 -76q38 0 75 28v378h146q38 0 38 -31zM384 56q-41 -48 -95 -62q-39 -28 -39 -65q0 -20 12 -31t34 -11
q41 0 64.5 31.5t23.5 89.5v48z" />
    <glyph glyph-name="afii10086" unicode="&#x444;" horiz-adv-x="804" 
d="M485 -193h-136q-38 0 -38 31v157q-126 16 -199.5 87.5t-73.5 184.5q0 112 73.5 183.5t199.5 88.5v183q60 15 125 15q49 0 49 -40v-157q130 -14 205.5 -86.5t75.5 -186.5t-75.5 -186.5t-205.5 -86.5v-187zM585 261q0 52 -27.5 90t-72.5 51v-276q47 10 73.5 45.5t26.5 89.5
zM219 273q0 -50 25 -87.5t67 -51.5v271q-43 -11 -67.5 -45.5t-24.5 -86.5z" />
    <glyph glyph-name="afii10087" unicode="&#x445;" horiz-adv-x="590" 
d="M330 75l-52 70q-39 -51 -62 -145h-136q-62 0 -44 51q41 118 151 213l-142 189q66 87 123 87q25 0 44 -25l95 -127q36 48 52 146h137q59 0 44 -51q-32 -111 -143 -215l73 -98q16 -22 28.5 -29.5t33.5 -7.5h20q12 -29 12 -61q0 -29 -29.5 -54t-73.5 -25q-70 0 -131 82z" />
    <glyph glyph-name="afii10088" unicode="&#x446;" horiz-adv-x="645" 
d="M246 501v-286q0 -45 10.5 -60t39.5 -15h76v394h146q38 0 38 -31v-363h36q38 0 38 -31v-227h-146q-38 0 -38 31v87h-204q-92 0 -136 45.5t-44 142.5v338q60 15 135 15q49 0 49 -40z" />
    <glyph glyph-name="afii10089" unicode="&#x447;" horiz-adv-x="612" 
d="M52 372v154q60 15 135 15q49 0 49 -40v-128q0 -84 56 -84q43 0 72 27v218h146q38 0 38 -31v-503h-146q-38 0 -38 31v164q-51 -54 -127 -54q-83 0 -133.5 60t-51.5 171z" />
    <glyph glyph-name="afii10090" unicode="&#x448;" horiz-adv-x="836" 
d="M246 501v-286q0 -45 10.5 -60t39.5 -15h29v394h146q38 0 38 -31v-363h79v394h146q38 0 38 -31v-503h-530q-92 0 -136 45.5t-44 142.5v338q60 15 135 15q49 0 49 -40z" />
    <glyph glyph-name="afii10091" unicode="&#x449;" horiz-adv-x="861" 
d="M246 501v-286q0 -45 10.5 -60t39.5 -15h29v394h146q38 0 38 -31v-363h79v394h146q38 0 38 -31v-363h36q38 0 38 -31v-227h-146q-38 0 -38 31v87h-420q-92 0 -136 45.5t-44 142.5v338q60 15 135 15q49 0 49 -40z" />
    <glyph glyph-name="afii10092" unicode="&#x44a;" horiz-adv-x="696" 
d="M369 252v-47q0 -45 10.5 -60t39.5 -15q60 0 60 67q0 63 -63 63q-26 0 -47 -8zM369 503v-132q46 19 99 19q83 0 139 -51t56 -137q0 -95 -67.5 -148.5t-195.5 -53.5h-35q-92 0 -136 45.5t-44 142.5v206h-122q-37 0 -37 42q0 56 11 98h294q38 0 38 -31z" />
    <glyph glyph-name="afii10093" unicode="&#x44b;" horiz-adv-x="881" 
d="M277 0h-35q-92 0 -136 45.5t-44 142.5v338q60 15 135 15q49 0 49 -40v-130q46 19 99 19q83 0 139 -51t56 -137q0 -95 -67.5 -148.5t-195.5 -53.5zM246 252v-47q0 -45 10.5 -60t39.5 -15q60 0 60 67q0 63 -63 63q-26 0 -47 -8zM788 501v-329q0 -39 30 -39h27
q10 -32 10 -60q0 -30 -32 -55t-80 -25q-59 0 -99 36.5t-40 110.5v386q60 15 135 15q49 0 49 -40z" />
    <glyph glyph-name="afii10094" unicode="&#x44c;" horiz-adv-x="573" 
d="M277 0h-35q-92 0 -136 45.5t-44 142.5v338q60 15 135 15q49 0 49 -40v-130q46 19 99 19q83 0 139 -51t56 -137q0 -95 -67.5 -148.5t-195.5 -53.5zM246 252v-47q0 -45 10.5 -60t39.5 -15q60 0 60 67q0 63 -63 63q-26 0 -47 -8z" />
    <glyph glyph-name="afii10095" unicode="&#x44d;" horiz-adv-x="580" 
d="M343 201h-110q-37 0 -37 42q0 47 12 88h147q-19 75 -87 75q-31 0 -51 -17t-34 -56q-63 7 -105 30q-38 21 -38 43q0 19 11 37q28 46 86 74.5t133 28.5q124 0 197 -74.5t73 -189.5q0 -131 -83.5 -212.5t-206.5 -81.5q-83 0 -140 32.5t-57 62.5q0 37 26 75q48 -30 118 -30
q109 0 146 73z" />
    <glyph glyph-name="afii10096" unicode="&#x44e;" horiz-adv-x="895" 
d="M573 546q117 0 199.5 -75.5t82.5 -203.5t-82.5 -203.5t-199.5 -75.5q-101 0 -179 58t-98 160h-48v-206h-146q-38 0 -38 31v495q60 15 135 15q49 0 49 -40v-155h52q25 94 100.5 147t172.5 53zM577 128q44 0 69 34.5t25 99.5q0 67 -27.5 105.5t-74.5 38.5q-44 0 -69 -34.5
t-25 -99.5q0 -67 27.5 -105.5t74.5 -38.5z" />
    <glyph glyph-name="afii10097" unicode="&#x44f;" horiz-adv-x="582" 
d="M146 -12q-42 0 -70 21.5t-28 44.5q0 32 12 66h20q25 0 41 16q25 26 38 60q-92 52 -92 152q0 85 64.5 135.5t164.5 50.5h184q38 0 38 -31v-503h-146q-38 0 -38 31v134q-15 -3 -30 -3q-14 -57 -44 -103q-46 -71 -114 -71zM246 348q0 -26 19.5 -42.5t48.5 -16.5h20v120h-25
q-63 0 -63 -61z" />
    <glyph glyph-name="uni0450" unicode="&#x450;" horiz-adv-x="594" 
d="M319 -12q-123 0 -201 79t-78 198q0 124 80.5 202.5t200.5 78.5q109 0 173 -57t64 -148q0 -51 -22 -91q-12 -21 -31 -29.5t-55 -8.5h-222q10 -46 45.5 -70t88.5 -24q76 0 122 27q24 -36 24 -70q0 -27 -54.5 -57t-134.5 -30zM324 416q-42 0 -68 -27.5t-31 -75.5h152
q8 14 8 38q0 30 -17 47.5t-44 17.5zM314 588l-131 94q24 51 59 81q18 15 37 15q14 0 33 -20l109 -116l-50 -54q-13 -13 -25 -13q-13 0 -32 13z" />
    <glyph glyph-name="afii10071" unicode="&#x451;" horiz-adv-x="594" 
d="M319 -12q-123 0 -201 79t-78 198q0 124 80.5 202.5t200.5 78.5q109 0 173 -57t64 -148q0 -51 -22 -91q-12 -21 -31 -29.5t-55 -8.5h-222q10 -46 45.5 -70t88.5 -24q76 0 122 27q24 -36 24 -70q0 -27 -54.5 -57t-134.5 -30zM324 416q-42 0 -68 -27.5t-31 -75.5h152
q8 14 8 38q0 30 -17 47.5t-44 17.5zM214 591q-33 0 -56.5 23.5t-23.5 60.5q0 34 20.5 55t53.5 21t56.5 -23.5t23.5 -60.5q0 -34 -20.5 -55t-53.5 -21zM415 591q-33 0 -56.5 23.5t-23.5 60.5q0 34 20.5 55t53.5 21t56.5 -23.5t23.5 -60.5q0 -34 -20.5 -55t-53.5 -21z" />
    <glyph glyph-name="afii10099" unicode="&#x452;" horiz-adv-x="632" 
d="M11 673h53v49q60 15 135 15q49 0 49 -40v-24h123q25 0 25 -32v-56h-148v-107q57 68 147 68q85 0 130 -55.5t45 -166.5v-297q0 -122 -60.5 -191.5t-124.5 -69.5q-21 0 -41 19.5t-30 47.5q72 77 72 193v304q0 76 -64 76q-40 0 -74 -28v-378h-146q-38 0 -38 31v554h-32
q-29 0 -29 27q0 35 8 61z" />
    <glyph glyph-name="afii10100" unicode="&#x453;" horiz-adv-x="486" 
d="M248 394v-394h-146q-38 0 -38 31v503h367q31 0 31 -38v-102h-214zM381 682l-131 -94q-19 -13 -32 -13q-12 0 -25 13l-50 54l109 116q19 20 33 20q19 0 37 -15q35 -30 59 -81z" />
    <glyph glyph-name="afii10101" unicode="&#x454;" horiz-adv-x="566" 
d="M384 201h-147q37 -73 146 -73q70 0 118 30q26 -38 26 -75q0 -30 -57 -62.5t-140 -32.5q-123 0 -206.5 81.5t-83.5 212.5q0 115 73 189.5t197 74.5q75 0 133 -28.5t86 -74.5q11 -18 11 -37q0 -22 -38 -43q-42 -23 -105 -30q-14 39 -34 56t-51 17q-68 0 -88 -75h129
q31 0 31 -38v-92z" />
    <glyph glyph-name="afii10102" unicode="&#x455;" horiz-adv-x="515" 
d="M459 461q12 -19 12 -34q0 -22 -24 -37q-41 -27 -105 -30q-18 56 -66 56q-21 0 -32.5 -10t-11.5 -24q0 -20 15 -32.5t51 -22.5q95 -25 137 -65.5t42 -106.5q0 -74 -57 -120.5t-160 -46.5q-76 0 -137 29.5t-61 63.5q0 39 26 75q68 -38 146 -38q59 0 59 29q0 14 -10 23
t-38 15q-197 45 -197 196q0 73 56.5 119t149.5 46q70 0 124 -22.5t81 -62.5z" />
    <glyph glyph-name="afii10103" unicode="&#x456;" horiz-adv-x="335" 
d="M248 501v-329q0 -39 30 -39h27q10 -32 10 -60q0 -30 -32 -55t-80 -25q-59 0 -99 36.5t-40 110.5v386q60 15 135 15q49 0 49 -40zM157 586q-41 0 -70 23.5t-29 63.5t27 62t70 22q41 0 70 -23.5t29 -63.5t-27 -62t-70 -22z" />
    <glyph glyph-name="afii10104" unicode="&#x457;" horiz-adv-x="335" 
d="M248 501v-329q0 -39 30 -39h27q10 -32 10 -60q0 -30 -32 -55t-80 -25q-59 0 -99 36.5t-40 110.5v386q60 15 135 15q49 0 49 -40zM58 591q-33 0 -56.5 23.5t-23.5 60.5q0 34 20.5 55t53.5 21t56.5 -23.5t23.5 -60.5q0 -34 -20.5 -55t-53.5 -21zM259 591q-33 0 -56.5 23.5
t-23.5 60.5q0 34 20.5 55t53.5 21t56.5 -23.5t23.5 -60.5q0 -34 -20.5 -55t-53.5 -21z" />
    <glyph glyph-name="afii10105" unicode="&#x458;" horiz-adv-x="315" 
d="M253 501v-443q0 -122 -60.5 -191.5t-124.5 -69.5q-21 0 -41 19.5t-30 47.5q72 77 72 193v469q60 15 135 15q49 0 49 -40zM162 586q-41 0 -70 23.5t-29 63.5t27 62t70 22q41 0 70 -23.5t29 -63.5t-27 -62t-70 -22z" />
    <glyph glyph-name="afii10106" unicode="&#x459;" horiz-adv-x="934" 
d="M607 503v-132q46 19 99 19q83 0 139 -51t56 -137q0 -95 -67.5 -148.5t-195.5 -53.5h-35q-92 0 -136 45.5t-44 142.5v206h-91q-4 -128 -15 -204q-14 -104 -56 -153t-120 -49q-53 0 -93 24t-40 52q0 40 23 75q20 -11 48 -11t42.5 21.5t21.5 80.5q13 125 15 304h411
q38 0 38 -31zM607 252v-47q0 -45 10.5 -60t39.5 -15q60 0 60 67q0 63 -63 63q-26 0 -47 -8z" />
    <glyph glyph-name="afii10107" unicode="&#x45a;" horiz-adv-x="875" 
d="M364 346v188h146q38 0 38 -31v-132q46 19 99 19q83 0 139 -51t56 -137q0 -95 -67.5 -148.5t-195.5 -53.5h-35q-92 0 -136 45.5t-44 142.5v18h-116v-206h-146q-38 0 -38 31v495q60 15 135 15q49 0 49 -40v-155h116zM548 252v-47q0 -45 10.5 -60t39.5 -15q60 0 60 67
q0 63 -63 63q-26 0 -47 -8z" />
    <glyph glyph-name="afii10108" unicode="&#x45b;" horiz-adv-x="649" 
d="M11 673h53v49q60 15 135 15q49 0 49 -40v-24h123q25 0 25 -32v-56h-148v-107q57 68 147 68q85 0 130 -55.5t45 -166.5v-152q0 -39 30 -39h27q10 -32 10 -60q0 -30 -32 -55t-80 -25q-59 0 -99 36.5t-40 110.5v190q0 76 -64 76q-40 0 -74 -28v-378h-146q-38 0 -38 31v554
h-32q-29 0 -29 27q0 35 8 61z" />
    <glyph glyph-name="afii10109" unicode="&#x45c;" horiz-adv-x="615" 
d="M248 0h-146q-38 0 -38 31v495q60 15 135 15q49 0 49 -40v-137q50 32 102.5 84.5t79.5 102.5q75 -23 102.5 -45t27.5 -52q0 -21 -13 -39q-43 -62 -117 -119q37 -79 69 -124q28 -40 59 -40h25q12 -31 12 -60t-33.5 -54t-79.5 -25q-79 0 -128 80q-29 48 -63 132
q-25 -14 -43 -22v-183zM430 682l-131 -94q-19 -13 -32 -13q-12 0 -25 13l-50 54l109 116q19 20 33 20q19 0 37 -15q35 -30 59 -81z" />
    <glyph glyph-name="uni045D" unicode="&#x45d;" horiz-adv-x="631" 
d="M64 526v-478q42 -33 91 -48q22 -6 37 -6q29 0 44 24l147 237v-224q0 -31 38 -31h146v487q-42 33 -91 48q-22 6 -37 6q-29 0 -44 -24l-147 -237v221q0 40 -49 40q-75 0 -135 -15zM308 588l-131 94q24 51 59 81q18 15 37 15q14 0 33 -20l109 -116l-50 -54q-13 -13 -25 -13
q-13 0 -32 13z" />
    <glyph glyph-name="afii10110" unicode="&#x45e;" horiz-adv-x="632" 
d="M568 503v-491q0 -113 -73 -186.5t-216 -73.5q-96 0 -153.5 40t-57.5 103q0 38 22 69t61 48q-89 47 -89 198v311q60 15 135 15q49 0 49 -40v-292q0 -76 63 -76q38 0 75 28v378h146q38 0 38 -31zM384 56q-41 -48 -95 -62q-39 -28 -39 -65q0 -20 12 -31t34 -11
q41 0 64.5 31.5t23.5 89.5v48zM269 737q9 -59 46 -59q23 0 34 18t12 63h81q17 0 23 -5.5t5 -18.5q-6 -72 -47 -110.5t-109 -38.5q-137 0 -158 148q34 27 81 27q28 0 32 -24z" />
    <glyph glyph-name="afii10193" unicode="&#x45f;" horiz-adv-x="620" 
d="M246 501v-286q0 -45 10.5 -60t39.5 -15h76v394h146q38 0 38 -31v-503h-137v-118h-146q-38 0 -38 31v87q-89 2 -131 47.5t-42 140.5v338q60 15 135 15q49 0 49 -40z" />
    <glyph glyph-name="afii10050" unicode="&#x490;" horiz-adv-x="568" 
d="M540 793v-249h-274v-544h-156q-38 0 -38 31v669h274v118q68 16 143 16q51 0 51 -41z" />
    <glyph glyph-name="afii10098" unicode="&#x491;" horiz-adv-x="486" 
d="M248 394v-394h-146q-38 0 -38 31v503h214v107q60 15 135 15q49 0 49 -40v-222h-214z" />
    <glyph glyph-name="Wgrave" unicode="&#x1e80;" horiz-adv-x="1132" 
d="M886 36q-10 -20 -26.5 -28t-50.5 -8h-119l-117 457q-40 -197 -130 -421q-8 -20 -25 -28t-52 -8h-119l-211 653q35 24 76.5 40.5t68.5 16.5q42 0 53 -38l121 -453q34 85 66.5 220.5t51.5 260.5h121q37 0 54 -10t23 -33l113 -438q34 90 67.5 223.5t53.5 257.5h113
q43 0 61 -17t11 -49q-29 -139 -83.5 -300t-120.5 -298zM566 762l-131 94q24 51 59 81q18 15 37 15q14 0 33 -20l109 -116l-50 -54q-13 -13 -25 -13q-13 0 -32 13z" />
    <glyph glyph-name="wgrave" unicode="&#x1e81;" horiz-adv-x="882" 
d="M539 489l66 -290q38 118 66 335h106q40 0 56 -16t11 -46q-15 -94 -51 -214t-81 -222q-9 -20 -26 -28t-51 -8h-113l-74 333q-31 -187 -75 -297q-8 -20 -25 -28t-52 -8h-101l-161 494q31 22 68 36t60 14q25 0 37.5 -9t17.5 -32l72 -303q46 151 64 334h112q35 0 51.5 -10.5
t22.5 -34.5zM433 588l-131 94q24 51 59 81q18 15 37 15q14 0 33 -20l109 -116l-50 -54q-13 -13 -25 -13q-13 0 -32 13z" />
    <glyph glyph-name="Wacute" unicode="&#x1e82;" horiz-adv-x="1132" 
d="M886 36q-10 -20 -26.5 -28t-50.5 -8h-119l-117 457q-40 -197 -130 -421q-8 -20 -25 -28t-52 -8h-119l-211 653q35 24 76.5 40.5t68.5 16.5q42 0 53 -38l121 -453q34 85 66.5 220.5t51.5 260.5h121q37 0 54 -10t23 -33l113 -438q34 90 67.5 223.5t53.5 257.5h113
q43 0 61 -17t11 -49q-29 -139 -83.5 -300t-120.5 -298zM690 856l-131 -94q-19 -13 -32 -13q-12 0 -25 13l-50 54l109 116q19 20 33 20q19 0 37 -15q35 -30 59 -81z" />
    <glyph glyph-name="wacute" unicode="&#x1e83;" horiz-adv-x="882" 
d="M539 489l66 -290q38 118 66 335h106q40 0 56 -16t11 -46q-15 -94 -51 -214t-81 -222q-9 -20 -26 -28t-51 -8h-113l-74 333q-31 -187 -75 -297q-8 -20 -25 -28t-52 -8h-101l-161 494q31 22 68 36t60 14q25 0 37.5 -9t17.5 -32l72 -303q46 151 64 334h112q35 0 51.5 -10.5
t22.5 -34.5zM565 682l-131 -94q-19 -13 -32 -13q-12 0 -25 13l-50 54l109 116q19 20 33 20q19 0 37 -15q35 -30 59 -81z" />
    <glyph glyph-name="Wdieresis" unicode="&#x1e84;" horiz-adv-x="1132" 
d="M886 36q-10 -20 -26.5 -28t-50.5 -8h-119l-117 457q-40 -197 -130 -421q-8 -20 -25 -28t-52 -8h-119l-211 653q35 24 76.5 40.5t68.5 16.5q42 0 53 -38l121 -453q34 85 66.5 220.5t51.5 260.5h121q37 0 54 -10t23 -33l113 -438q34 90 67.5 223.5t53.5 257.5h113
q43 0 61 -17t11 -49q-29 -139 -83.5 -300t-120.5 -298zM476 765q-33 0 -56.5 23.5t-23.5 60.5q0 34 20.5 55t53.5 21t56.5 -23.5t23.5 -60.5q0 -34 -20.5 -55t-53.5 -21zM677 765q-33 0 -56.5 23.5t-23.5 60.5q0 34 20.5 55t53.5 21t56.5 -23.5t23.5 -60.5q0 -34 -20.5 -55
t-53.5 -21z" />
    <glyph glyph-name="wdieresis" unicode="&#x1e85;" horiz-adv-x="882" 
d="M539 489l66 -290q38 118 66 335h106q40 0 56 -16t11 -46q-15 -94 -51 -214t-81 -222q-9 -20 -26 -28t-51 -8h-113l-74 333q-31 -187 -75 -297q-8 -20 -25 -28t-52 -8h-101l-161 494q31 22 68 36t60 14q25 0 37.5 -9t17.5 -32l72 -303q46 151 64 334h112q35 0 51.5 -10.5
t22.5 -34.5zM351 591q-33 0 -56.5 23.5t-23.5 60.5q0 34 20.5 55t53.5 21t56.5 -23.5t23.5 -60.5q0 -34 -20.5 -55t-53.5 -21zM552 591q-33 0 -56.5 23.5t-23.5 60.5q0 34 20.5 55t53.5 21t56.5 -23.5t23.5 -60.5q0 -34 -20.5 -55t-53.5 -21z" />
    <glyph glyph-name="Ygrave" unicode="&#x1ef2;" horiz-adv-x="679" 
d="M431 0h-156q-38 0 -38 31v210l-214 383q29 34 68.5 60t71.5 26q27 0 42 -29l136 -271q41 61 77 142t51 148h139q59 0 44 -51q-26 -93 -87 -204t-134 -203v-242zM328 762l-131 94q24 51 59 81q18 15 37 15q14 0 33 -20l109 -116l-50 -54q-13 -13 -25 -13q-13 0 -32 13z
" />
    <glyph glyph-name="ygrave" unicode="&#x1ef3;" horiz-adv-x="632" 
d="M568 503v-491q0 -113 -73 -186.5t-216 -73.5q-96 0 -153.5 40t-57.5 103q0 38 22 69t61 48q-89 47 -89 198v311q60 15 135 15q49 0 49 -40v-292q0 -76 63 -76q38 0 75 28v378h146q38 0 38 -31zM384 56q-41 -48 -95 -62q-39 -28 -39 -65q0 -20 12 -31t34 -11
q41 0 64.5 31.5t23.5 89.5v48zM307 588l-131 94q24 51 59 81q18 15 37 15q14 0 33 -20l109 -116l-50 -54q-13 -13 -25 -13q-13 0 -32 13z" />
    <glyph glyph-name="thinspace" unicode="&#x2009;" horiz-adv-x="200" 
 />
    <glyph glyph-name="uni2010" unicode="&#x2010;" horiz-adv-x="442" 
d="M374 262h-269q-37 0 -37 39q0 56 13 101h255q38 0 38 -31v-109z" />
    <glyph glyph-name="figuredash" unicode="&#x2012;" horiz-adv-x="666" 
d="M598 262h-493q-37 0 -37 39q0 56 13 101h479q38 0 38 -31v-109z" />
    <glyph glyph-name="endash" unicode="&#x2013;" horiz-adv-x="500" 
d="M500 262h-463q-37 0 -37 39q0 56 13 101h449q38 0 38 -31v-109z" />
    <glyph glyph-name="emdash" unicode="&#x2014;" horiz-adv-x="1000" 
d="M1000 262h-963q-37 0 -37 39q0 56 13 101h949q38 0 38 -31v-109z" />
    <glyph glyph-name="afii00208" unicode="&#x2015;" horiz-adv-x="1000" 
d="M910 262h-783q-37 0 -37 39q0 56 13 101h769q38 0 38 -31v-109z" />
    <glyph glyph-name="uni2016" unicode="&#x2016;" horiz-adv-x="503" 
d="M80 -102v838q45 13 97 13q41 0 41 -28v-851h-103q-35 0 -35 28zM285 -102v838q45 13 97 13q41 0 41 -28v-851h-103q-35 0 -35 28z" />
    <glyph glyph-name="underscoredbl" unicode="&#x2017;" horiz-adv-x="580" 
d="M50 -15h462q28 0 28 -35v-63h-472q-28 0 -28 36q0 37 10 62zM50 -157h462q28 0 28 -35v-63h-472q-28 0 -28 36q0 37 10 62z" />
    <glyph glyph-name="quoteleft" unicode="&#x2018;" horiz-adv-x="340" 
d="M173 413q-39 0 -68 27.5t-29 72.5q0 93 59 163q27 31 56.5 47.5t40.5 10.5q22 -11 29 -40q-50 -45 -61 -95q28 -9 46 -34t18 -60q0 -42 -25.5 -67t-65.5 -25z" />
    <glyph glyph-name="quoteright" unicode="&#x2019;" horiz-adv-x="340" 
d="M167 742q39 0 68 -27.5t29 -72.5q0 -93 -59 -163q-27 -31 -56.5 -47.5t-40.5 -10.5q-22 11 -29 40q50 45 61 95q-28 9 -46 34t-18 60q0 42 25.5 67t65.5 25z" />
    <glyph glyph-name="quotesinglbase" unicode="&#x201a;" horiz-adv-x="340" 
d="M167 180q39 0 68 -27.5t29 -72.5q0 -93 -59 -163q-27 -31 -56.5 -47.5t-40.5 -10.5q-22 11 -29 40q50 45 61 95q-28 9 -46 34t-18 60q0 42 25.5 67t65.5 25z" />
    <glyph glyph-name="quotereversed" unicode="&#x201b;" horiz-adv-x="340" 
d="M173 742q40 0 65.5 -25t25.5 -67q0 -35 -18 -60t-46 -34q11 -50 61 -95q-7 -29 -29 -40q-11 -6 -40.5 10.5t-56.5 47.5q-59 70 -59 163q0 45 29 72.5t68 27.5z" />
    <glyph glyph-name="quotedblleft" unicode="&#x201c;" horiz-adv-x="578" 
d="M173 413q-39 0 -68 27.5t-29 72.5q0 93 59 163q27 31 56.5 47.5t40.5 10.5q22 -11 29 -40q-50 -45 -61 -95q28 -9 46 -34t18 -60q0 -42 -25.5 -67t-65.5 -25zM411 413q-39 0 -68 27.5t-29 72.5q0 93 59 163q27 31 56.5 47.5t40.5 10.5q22 -11 29 -40q-50 -45 -61 -95
q28 -9 46 -34t18 -60q0 -42 -25.5 -67t-65.5 -25z" />
    <glyph glyph-name="quotedblright" unicode="&#x201d;" horiz-adv-x="578" 
d="M405 742q39 0 68 -27.5t29 -72.5q0 -93 -59 -163q-27 -31 -56.5 -47.5t-40.5 -10.5q-22 11 -29 40q50 45 61 95q-28 9 -46 34t-18 60q0 42 25.5 67t65.5 25zM167 742q39 0 68 -27.5t29 -72.5q0 -93 -59 -163q-27 -31 -56.5 -47.5t-40.5 -10.5q-22 11 -29 40q50 45 61 95
q-28 9 -46 34t-18 60q0 42 25.5 67t65.5 25z" />
    <glyph glyph-name="quotedblbase" unicode="&#x201e;" horiz-adv-x="578" 
d="M405 180q39 0 68 -27.5t29 -72.5q0 -93 -59 -163q-27 -31 -56.5 -47.5t-40.5 -10.5q-22 11 -29 40q50 45 61 95q-28 9 -46 34t-18 60q0 42 25.5 67t65.5 25zM167 180q39 0 68 -27.5t29 -72.5q0 -93 -59 -163q-27 -31 -56.5 -47.5t-40.5 -10.5q-22 11 -29 40q50 45 61 95
q-28 9 -46 34t-18 60q0 42 25.5 67t65.5 25z" />
    <glyph glyph-name="uni201F" unicode="&#x201f;" horiz-adv-x="578" 
d="M173 742q40 0 65.5 -25t25.5 -67q0 -35 -18 -60t-46 -34q11 -50 61 -95q-7 -29 -29 -40q-11 -6 -40.5 10.5t-56.5 47.5q-59 70 -59 163q0 45 29 72.5t68 27.5zM411 742q40 0 65.5 -25t25.5 -67q0 -35 -18 -60t-46 -34q11 -50 61 -95q-7 -29 -29 -40q-11 -6 -40.5 10.5
t-56.5 47.5q-59 70 -59 163q0 45 29 72.5t68 27.5z" />
    <glyph glyph-name="dagger" unicode="&#x2020;" horiz-adv-x="574" 
d="M202 430l-124 -12q-20 -2 -29 10t-9 38q0 56 14 114l151 -15l-10 165q59 18 135 18q51 0 48 -38l-9 -145l122 13q23 2 33 -6t10 -30v-126l-162 14v-561h-138q-32 0 -32 25v536z" />
    <glyph glyph-name="daggerdbl" unicode="&#x2021;" horiz-adv-x="582" 
d="M206 430l-124 -12q-20 -2 -29 10t-9 38q0 56 14 114l151 -15l-10 165q59 18 135 18q51 0 48 -38l-9 -145l122 13q23 2 33 -6t10 -30v-126l-162 14v-243l119 12q23 2 33 -6t10 -30v-126l-165 15l9 -145q3 -38 -48 -38q-76 0 -135 18l10 165l-127 -13q-20 -2 -29 10t-9 38
q0 56 14 114l148 -14v243z" />
    <glyph glyph-name="bullet" unicode="&#x2022;" horiz-adv-x="473" 
d="M241 171q-66 0 -113.5 46t-47.5 122q0 70 42.5 112t109.5 42q66 0 113.5 -46t47.5 -122q0 -70 -42.5 -112t-109.5 -42z" />
    <glyph glyph-name="onedotenleader" unicode="&#x2024;" horiz-adv-x="340" 
d="M167 180q39 0 68 -27.5t29 -72.5q0 -42 -25.5 -67t-65.5 -25q-39 0 -68 27.5t-29 72.5q0 42 25.5 67t65.5 25z" />
    <glyph glyph-name="twodotenleader" unicode="&#x2025;" horiz-adv-x="680" 
d="M167 180q39 0 68 -27.5t29 -72.5q0 -42 -25.5 -67t-65.5 -25q-39 0 -68 27.5t-29 72.5q0 42 25.5 67t65.5 25zM507 180q39 0 68 -27.5t29 -72.5q0 -42 -25.5 -67t-65.5 -25q-39 0 -68 27.5t-29 72.5q0 42 25.5 67t65.5 25z" />
    <glyph glyph-name="ellipsis" unicode="&#x2026;" horiz-adv-x="1020" 
d="M167 180q39 0 68 -27.5t29 -72.5q0 -42 -25.5 -67t-65.5 -25q-39 0 -68 27.5t-29 72.5q0 42 25.5 67t65.5 25zM507 180q39 0 68 -27.5t29 -72.5q0 -42 -25.5 -67t-65.5 -25q-39 0 -68 27.5t-29 72.5q0 42 25.5 67t65.5 25zM847 180q39 0 68 -27.5t29 -72.5
q0 -42 -25.5 -67t-65.5 -25q-39 0 -68 27.5t-29 72.5q0 42 25.5 67t65.5 25z" />
    <glyph glyph-name="perthousand" unicode="&#x2030;" horiz-adv-x="1325" 
d="M379 0h-87q-38 0 -26 30l281 670h87q38 0 26 -30zM410 520q0 -85 -53 -136.5t-132 -51.5t-132 51.5t-53 136.5t53 136.5t132 51.5t132 -51.5t53 -136.5zM268 517q0 36 -13 55t-33 19q-17 0 -28.5 -17.5t-11.5 -50.5q0 -36 13 -55t33 -19q17 0 28.5 17.5t11.5 50.5z
M886 180q0 -85 -53 -136.5t-132 -51.5t-132 51.5t-53 136.5t53 136.5t132 51.5t132 -51.5t53 -136.5zM744 177q0 36 -13 55t-33 19q-17 0 -28.5 -17.5t-11.5 -50.5q0 -36 13 -55t33 -19q17 0 28.5 17.5t11.5 50.5zM1285 180q0 -85 -53 -136.5t-132 -51.5t-132 51.5
t-53 136.5t53 136.5t132 51.5t132 -51.5t53 -136.5zM1143 177q0 36 -13 55t-33 19q-17 0 -28.5 -17.5t-11.5 -50.5q0 -36 13 -55t33 -19q17 0 28.5 17.5t11.5 50.5z" />
    <glyph glyph-name="minute" unicode="&#x2032;" horiz-adv-x="349" 
d="M191 397h-95q-20 0 -29 7.5t-6 21.5l61 264q48 17 120 17q28 0 39 -11.5t5 -29.5z" />
    <glyph glyph-name="second" unicode="&#x2033;" horiz-adv-x="564" 
d="M191 397h-95q-20 0 -29 7.5t-6 21.5l61 264q48 17 120 17q28 0 39 -11.5t5 -29.5zM406 397h-95q-20 0 -29 7.5t-6 21.5l61 264q48 17 120 17q28 0 39 -11.5t5 -29.5z" />
    <glyph glyph-name="guilsinglleft" unicode="&#x2039;" horiz-adv-x="348" 
d="M288 94l-223 157q-17 13 -17 36v74l205 144q15 10 25 10q22 0 22 -33q0 -34 -9 -83l-129 -87l109 -74q17 -12 17 -34v-110z" />
    <glyph glyph-name="guilsinglright" unicode="&#x203a;" horiz-adv-x="348" 
d="M283 251l-223 -157v110q0 22 17 34l109 74l-129 87q-9 49 -9 83q0 33 22 33q10 0 25 -10l205 -144v-74q0 -23 -17 -36z" />
    <glyph glyph-name="exclamdbl" unicode="&#x203c;" horiz-adv-x="616" 
d="M167 -12q-41 0 -70 23.5t-29 63.5t27 62t70 22q41 0 70 -23.5t29 -63.5t-27 -62t-70 -22zM93 233q-24 171 -24 354v107q68 16 143 16q51 0 51 -41v-82q0 -179 -28 -385h-104q-33 0 -38 31zM451 -12q-41 0 -70 23.5t-29 63.5t27 62t70 22q41 0 70 -23.5t29 -63.5t-27 -62
t-70 -22zM377 233q-24 171 -24 354v107q68 16 143 16q51 0 51 -41v-82q0 -179 -28 -385h-104q-33 0 -38 31z" />
    <glyph glyph-name="uni203E" unicode="&#x203e;" horiz-adv-x="420" 
d="M358 665v-69h-257q-39 0 -39 39q0 32 12 68h253q31 0 31 -38z" />
    <glyph glyph-name="fraction" unicode="&#x2044;" horiz-adv-x="210" 
d="M21 0h-87q-38 0 -26 30l281 670h87q38 0 26 -30z" />
    <glyph glyph-name="zerosuperior" unicode="&#x2070;" 
d="M386 492q0 -102 -48 -159t-132 -57t-132 57t-48 159t48 159t132 57t132 -57t48 -159zM249 490q0 111 -45 111q-21 0 -31 -24t-10 -83q0 -111 45 -111q21 0 31 24t10 83z" />
    <glyph glyph-name="uni2071" unicode="&#x2071;" 
d="M262 560v-164q0 -21 14 -21h18q7 -22 7 -42q0 -21 -21 -37.5t-54 -16.5q-43 0 -67 26.5t-24 77.5v195q46 11 90 11q37 0 37 -29zM199 612q-27 0 -47.5 15.5t-20.5 41.5t18.5 41t48.5 15q27 0 47.5 -15.5t20.5 -41.5t-18.5 -41t-48.5 -15z" />
    <glyph glyph-name="foursuperior" unicode="&#x2074;" 
d="M213 446v114q-20 -20 -41 -54t-30 -60h71zM343 446h19q30 0 30 -25v-71h-49v-66h-99q-30 0 -30 25v41h-135q-19 0 -28 5t-16 20q-10 26 -13 59q18 68 69.5 139t109.5 113q47 19 103 19q39 0 39 -29v-230z" />
    <glyph glyph-name="fivesuperior" unicode="&#x2075;" 
d="M182 379q50 0 50 42q0 40 -54 40q-19 0 -46 -5q-14 -3 -27 -3q-14 0 -28 11l-22 18l28 218h243q30 0 30 -25v-77h-153l-7 -47q20 6 43 6q58 0 94.5 -34.5t36.5 -97.5q0 -66 -46 -107.5t-126 -41.5q-63 0 -109.5 25.5t-46.5 51.5q0 28 22 57q62 -31 118 -31z" />
    <glyph glyph-name="sixsuperior" unicode="&#x2076;" 
d="M252 563q-11 36 -38 36q-19 0 -31.5 -17.5t-12.5 -54.5q23 17 74 17q61 0 101.5 -36t40.5 -93q0 -60 -46.5 -99.5t-121.5 -39.5q-85 0 -138 57.5t-53 149.5v7q0 102 50.5 160t133.5 58q95 0 142 -63q11 -15 11 -27t-5 -18t-19 -14q-29 -17 -88 -23zM205 450q-16 0 -36 -8
q2 -31 17 -49t33 -18q38 0 38 35q0 40 -52 40z" />
    <glyph glyph-name="sevensuperior" unicode="&#x2077;" 
d="M373 616q-95 -159 -135 -332h-108q-25 0 -31 11t1 31q39 142 115 267h-145q-33 0 -33 33q0 32 7 74h269q19 0 28 -5t16 -20q13 -28 16 -59z" />
    <glyph glyph-name="eightsuperior" unicode="&#x2078;" 
d="M366 592q0 -58 -59 -85q43 -22 61.5 -44.5t18.5 -57.5q0 -59 -50 -94t-129 -35q-81 0 -132 35t-51 89q0 60 67 93q-51 37 -51 91q0 53 43.5 89t119.5 36q74 0 118 -33.5t44 -83.5zM242 399q0 12 -11.5 20.5t-45.5 24.5q-20 -20 -20 -42q0 -13 11.5 -21.5t28.5 -8.5t27 8
t10 19zM176 590q0 -12 8 -21t31 -21q17 20 17 39q0 26 -28 26q-12 0 -20 -6.5t-8 -16.5z" />
    <glyph glyph-name="ninesuperior" unicode="&#x2079;" 
d="M176 426q-61 0 -105 40t-44 100q0 63 46.5 102.5t118.5 39.5q86 0 140 -56.5t54 -148.5v-13q0 -102 -52.5 -158t-139.5 -56q-53 0 -98 25t-45 49q0 29 18 57q44 -27 102 -27q68 0 72 62q-26 -16 -67 -16zM194 600q-11 0 -20 -8.5t-9 -23.5q0 -41 41 -41q23 0 35 9
q-4 64 -47 64z" />
    <glyph glyph-name="uni207A" unicode="&#x207a;" 
d="M261 616v-80h64q30 0 30 -25v-61h-94v-110h-79q-30 0 -30 25v85h-65q-30 0 -30 28q0 29 8 58h87v99q35 11 76 11q33 0 33 -30z" />
    <glyph glyph-name="uni207B" unicode="&#x207b;" 
d="M65 535h260q30 0 30 -25v-61h-268q-30 0 -30 28q0 29 8 58z" />
    <glyph glyph-name="uni207C" unicode="&#x207c;" 
d="M65 605h260q30 0 30 -25v-61h-268q-30 0 -30 28q0 29 8 58zM65 465h260q30 0 30 -25v-61h-268q-30 0 -30 28q0 29 8 58z" />
    <glyph glyph-name="uni207D" unicode="&#x207d;" 
d="M128 492q0 69 20.5 133.5t58.5 107.5q20 22 41 22q32 0 60 -48q-58 -105 -58 -215t58 -215q-28 -48 -60 -48q-21 0 -41 22q-38 43 -58.5 107.5t-20.5 133.5z" />
    <glyph glyph-name="uni207E" unicode="&#x207e;" 
d="M284 492q0 -69 -20.5 -133.5t-58.5 -107.5q-20 -22 -41 -22q-32 0 -60 48q58 105 58 215t-58 215q28 48 60 48q21 0 41 -22q38 -43 58.5 -107.5t20.5 -133.5z" />
    <glyph glyph-name="uni207F" unicode="&#x207f;" 
d="M45 307v291q46 11 90 11q37 0 37 -29v-6q38 38 84 38q48 0 74.5 -32.5t26.5 -91.5v-92q0 -21 14 -21h18q7 -22 7 -42q0 -21 -21 -37.5t-54 -16.5q-43 0 -67 26.5t-24 77.5v98q0 37 -26 37q-15 0 -32 -10v-225h-95q-32 0 -32 24z" />
    <glyph glyph-name="zeroinferior" unicode="&#x2080;" 
d="M386 81q0 -102 -48 -159t-132 -57t-132 57t-48 159t48 159t132 57t132 -57t48 -159zM249 79q0 111 -45 111q-21 0 -31 -24t-10 -83q0 -111 45 -111q21 0 31 24t10 83z" />
    <glyph glyph-name="oneinferior" unicode="&#x2081;" 
d="M305 264v-391h-109q-30 0 -30 25v243l-44 -28q-39 19 -56 45q-11 15 -11 27q0 14 24 29l120 75h76q30 0 30 -25z" />
    <glyph glyph-name="twoinferior" unicode="&#x2082;" 
d="M369 -127h-261q-34 0 -44 25q-10 24 -13 59q75 32 125.5 82.5t50.5 106.5q0 38 -27 38q-29 0 -41 -54q-58 2 -96 19q-24 11 -24 29t9 37q18 38 58.5 60t94.5 22q76 0 120.5 -41.5t44.5 -110.5q0 -42 -25.5 -87.5t-70.5 -77.5h69q30 0 30 -25v-82z" />
    <glyph glyph-name="threeinferior" unicode="&#x2083;" 
d="M178 35q-19 2 -26.5 5.5t-14.5 15.5q-14 24 -18 54l66 72h-105q-37 0 -37 33q0 31 9 74h244q30 0 41 -20q14 -24 18 -54l-98 -98q50 -8 80 -39.5t30 -77.5q0 -58 -46 -96.5t-125 -38.5q-63 0 -110.5 26t-47.5 51q0 29 18 57q62 -31 122 -31q50 0 50 34q0 28 -50 33z" />
    <glyph glyph-name="fourinferior" unicode="&#x2084;" 
d="M213 35v114q-20 -20 -41 -54t-30 -60h71zM343 35h19q30 0 30 -25v-71h-49v-66h-99q-30 0 -30 25v41h-135q-19 0 -28 5t-16 20q-10 26 -13 59q18 68 69.5 139t109.5 113q47 19 103 19q39 0 39 -29v-230z" />
    <glyph glyph-name="fiveinferior" unicode="&#x2085;" 
d="M182 -32q50 0 50 42q0 40 -54 40q-19 0 -46 -5q-14 -3 -27 -3q-14 0 -28 11l-22 18l28 218h243q30 0 30 -25v-77h-153l-7 -47q20 6 43 6q58 0 94.5 -34.5t36.5 -97.5q0 -66 -46 -107.5t-126 -41.5q-63 0 -109.5 25.5t-46.5 51.5q0 28 22 57q62 -31 118 -31z" />
    <glyph glyph-name="sixinferior" unicode="&#x2086;" 
d="M252 152q-11 36 -38 36q-19 0 -31.5 -17.5t-12.5 -54.5q23 17 74 17q61 0 101.5 -36t40.5 -93q0 -60 -46.5 -99.5t-121.5 -39.5q-85 0 -138 57.5t-53 149.5v7q0 102 50.5 160t133.5 58q95 0 142 -63q11 -15 11 -27t-5 -18t-19 -14q-29 -17 -88 -23zM205 39q-16 0 -36 -8
q2 -31 17 -49t33 -18q38 0 38 35q0 40 -52 40z" />
    <glyph glyph-name="seveninferior" unicode="&#x2087;" 
d="M373 205q-95 -159 -135 -332h-108q-25 0 -31 11t1 31q39 142 115 267h-145q-33 0 -33 33q0 32 7 74h269q19 0 28 -5t16 -20q13 -28 16 -59z" />
    <glyph glyph-name="eightinferior" unicode="&#x2088;" 
d="M366 181q0 -58 -59 -85q43 -22 61.5 -44.5t18.5 -57.5q0 -59 -50 -94t-129 -35q-81 0 -132 35t-51 89q0 60 67 93q-51 38 -51 91t43.5 89t119.5 36q74 0 118 -33.5t44 -83.5zM242 -12q0 12 -11.5 20.5t-45.5 24.5q-20 -20 -20 -42q0 -13 11.5 -21.5t28.5 -8.5t27 8t10 19
zM176 179q0 -12 8 -21t31 -21q17 20 17 39q0 26 -28 26q-12 0 -20 -6.5t-8 -16.5z" />
    <glyph glyph-name="nineinferior" unicode="&#x2089;" 
d="M176 15q-61 0 -105 40t-44 100q0 63 46.5 102.5t118.5 39.5q86 0 140 -56.5t54 -148.5v-13q0 -102 -52.5 -158t-139.5 -56q-53 0 -98 25t-45 49q0 29 18 57q43 -27 102 -27q68 0 72 62q-26 -16 -67 -16zM194 189q-11 0 -20 -8.5t-9 -23.5q0 -41 41 -41q23 0 35 9
q-4 64 -47 64z" />
    <glyph glyph-name="uni208A" unicode="&#x208a;" 
d="M261 205v-80h64q30 0 30 -25v-61h-94v-110h-79q-30 0 -30 25v85h-65q-30 0 -30 28q0 29 8 58h87v99q35 11 76 11q33 0 33 -30z" />
    <glyph glyph-name="uni208B" unicode="&#x208b;" 
d="M65 124h260q30 0 30 -25v-61h-268q-30 0 -30 28q0 29 8 58z" />
    <glyph glyph-name="uni208C" unicode="&#x208c;" 
d="M65 194h260q30 0 30 -25v-61h-268q-30 0 -30 28q0 29 8 58zM65 54h260q30 0 30 -25v-61h-268q-30 0 -30 28q0 29 8 58z" />
    <glyph glyph-name="uni208D" unicode="&#x208d;" 
d="M128 81q0 69 20.5 133.5t58.5 107.5q20 22 41 22q32 0 60 -48q-58 -105 -58 -215t58 -215q-28 -48 -60 -48q-21 0 -41 22q-38 43 -58.5 107.5t-20.5 133.5z" />
    <glyph glyph-name="uni208E" unicode="&#x208e;" 
d="M284 81q0 -69 -20.5 -133.5t-58.5 -107.5q-20 -22 -41 -22q-32 0 -60 48q58 105 58 215t-58 215q28 48 60 48q21 0 41 -22q38 -43 58.5 -107.5t20.5 -133.5z" />
    <glyph glyph-name="uni2090" unicode="&#x2090;" 
d="M159 114q-44 0 -87 -16q-17 22 -17 42t40 40.5t95 20.5q145 0 145 -133v-83q0 -21 14 -21h18q7 -22 7 -42q0 -21 -21.5 -37.5t-53.5 -16.5q-47 0 -66 37q-29 -40 -83 -40q-52 0 -85 31t-33 78q0 48 34.5 76.5t90.5 28.5q34 0 55 -8v10q0 33 -53 33zM179 -47q27 0 34 25
v25q-9 4 -26 4q-34 0 -34 -29q0 -11 8 -18t18 -7z" />
    <glyph glyph-name="uni2091" unicode="&#x2091;" 
d="M220 -135q-76 0 -124.5 48t-48.5 120q0 75 49 121.5t125 46.5q69 0 108 -34t39 -91q0 -30 -14 -57q-13 -24 -53 -24h-123q9 -41 66 -41q47 0 78 16q17 -23 17 -49q0 -19 -34 -37.5t-85 -18.5zM223 115q-17 0 -30.5 -13t-17.5 -34h73q5 7 5 17q0 30 -30 30z" />
    <glyph glyph-name="uni2092" unicode="&#x2092;" 
d="M380 33q0 -77 -51 -122.5t-123 -45.5t-123 45.5t-51 122.5t51 122.5t123 45.5t123 -45.5t51 -122.5zM254 30q0 36 -14 56.5t-37 20.5q-45 0 -45 -71q0 -36 14 -56.5t37 -20.5q45 0 45 71z" />
    <glyph glyph-name="uni2093" unicode="&#x2093;" 
d="M297 -132q-43 0 -81 50l-23 30q-17 -34 -22 -75h-98q-37 0 -25 34q24 68 83 122l-82 108q46 61 85 61q18 0 30 -16l49 -64q15 29 21 76h99q19 0 25 -8t0 -26q-21 -66 -82 -125l39 -51q15 -20 32 -20h18q7 -22 7 -42q0 -21 -21.5 -37.5t-53.5 -16.5z" />
    <glyph glyph-name="uni2094" unicode="&#x2094;" 
d="M192 201q76 0 124.5 -48t48.5 -120q0 -75 -49 -121.5t-125 -46.5q-69 0 -108 34t-39 91q0 30 14 57q13 24 53 24h123q-9 41 -66 41q-47 0 -78 -16q-17 23 -17 49q0 19 34 37.5t85 18.5zM189 -49q17 0 30.5 13t17.5 34h-73q-5 -7 -5 -17q0 -30 30 -30z" />
    <glyph glyph-name="uni20A0" unicode="&#x20a0;" horiz-adv-x="813" 
d="M366 524q-24 66 -77 66q-40 0 -63 -31t-23 -87q0 -65 36 -106t105 -41q34 0 66 9v157h336q28 0 28 -33q0 -47 -9 -89h-184v-60h128q24 0 24 -30v-92h-152v-2q0 -36 11.5 -50t40.5 -14h124q24 0 24 -29v-92h-195q-91 0 -133.5 46.5t-42.5 143.5v33q-36 -20 -101 -20
q-117 0 -197 75t-80 192q0 108 73 175t186 67q73 0 125 -26.5t79 -71.5q7 -14 7 -28q0 -21 -23 -33q-47 -27 -113 -29z" />
    <glyph glyph-name="colonmonetary" unicode="&#x20a1;" horiz-adv-x="710" 
d="M534 766l-17 -75q100 -35 150 -119q11 -19 11 -39q0 -28 -34 -48q-56 -32 -132 -37q-15 40 -36 64l-82 -360q32 -8 66 -8q100 0 165 37q11 -15 20.5 -40.5t9.5 -43.5q0 -37 -73.5 -73t-164.5 -36q-21 0 -59 4l-18 -80h-26q-15 0 -20.5 5t-3.5 17l15 69q-15 4 -45 16
l-24 -107h-26q-15 0 -20.5 5t-3.5 17l25 111q-78 49 -122.5 133t-44.5 189q0 148 89 242t229 102l18 77h26q15 0 20.5 -5t3.5 -17l-13 -55q18 -1 48 -7l19 84h26q15 0 20.5 -5t3.5 -17zM302 203q24 -22 42 -31l85 375q-21 9 -47 9zM238 370q0 -58 22 -108l64 282
q-86 -39 -86 -174z" />
    <glyph glyph-name="uni20A2" unicode="&#x20a2;" horiz-adv-x="710" 
d="M512 453q-38 108 -131 108q-64 0 -103.5 -51.5t-39.5 -139.5q0 -135 89 -195v239q45 12 100 12q36 0 36 -33v-36q15 31 45.5 50t66.5 19q32 0 50 -12t18 -31q0 -49 -57 -87q-20 15 -49 15t-48.5 -21.5t-25.5 -59.5v-91q91 0 162 42q11 -15 20.5 -40.5t9.5 -43.5
q0 -37 -73.5 -73t-164.5 -36q-161 0 -267 106t-106 273q0 154 95.5 249.5t244.5 95.5q99 0 172.5 -38t110.5 -102q11 -19 11 -37q0 -25 -34 -45q-56 -32 -132 -37z" />
    <glyph glyph-name="franc" unicode="&#x20a3;" horiz-adv-x="568" 
d="M266 426h186q25 0 25 -32v-36h-211v-47h186q25 0 25 -32v-36h-211v-243h-156q-38 0 -38 31v212h-50q-27 0 -27 25q0 20 7 43h70v47h-50q-27 0 -27 25q0 20 7 43h70v274h431q37 0 37 -42q0 -52 -12 -114h-262v-118z" />
    <glyph glyph-name="lira" unicode="&#x20a4;" horiz-adv-x="622" 
d="M47 406h56v58q0 116 64.5 182t184.5 66q78 0 136 -36t84 -94q10 -21 10 -41q0 -28 -32 -45q-52 -28 -127 -30q-15 90 -69 90q-25 0 -41 -21t-16 -63v-66h153q25 0 25 -32v-36h-178v-47h153q25 0 25 -32v-36h-182q-8 -44 -34 -67h300q31 0 31 -38v-118h-507q-31 0 -31 38
v98q39 32 48 87h-33q-27 0 -27 25q0 20 7 43h56v47h-36q-27 0 -27 25q0 20 7 43z" />
    <glyph glyph-name="uni20A6" unicode="&#x20a6;" horiz-adv-x="740" 
d="M660 441h50q25 0 25 -32v-36h-75v-47h50q25 0 25 -32v-36h-75v-213q-31 -23 -69.5 -39t-61.5 -16q-33 0 -50 28l-205 342v-360h-156q-38 0 -38 31v227h-48q-27 0 -27 25q0 20 7 43h68v47h-48q-27 0 -27 25q0 20 7 43h68v214q31 23 69.5 39t61.5 16q33 0 50 -28l205 -342
v360h156q38 0 38 -31v-228z" />
    <glyph glyph-name="peseta" unicode="&#x20a7;" horiz-adv-x="1255" 
d="M985 0h-208q-110 0 -161 52.5t-51 158.5v183h-37q-13 -100 -86.5 -157.5t-185.5 -59.5v-177h-146q-38 0 -38 31v669h175q106 0 175 -43t94 -123h49v145q60 15 125 15q49 0 49 -40v-120h92q31 0 31 -38v-6q54 56 150 56q130 0 187 -85q12 -19 12 -34q0 -22 -24 -37
q-41 -27 -105 -30q-12 56 -46 56q-16 0 -25 -10t-9 -24q0 -31 51 -48q88 -29 126 -66t38 -98q0 -85 -55.5 -127.5t-176.5 -42.5zM818 376q0 12 1 18h-80v-186q0 -38 15 -54t49 -16h192q22 0 31 6t9 20q0 13 -16 23t-56 22q-67 20 -106 63t-39 104zM347 444q0 54 -20 82.5
t-51 28.5h-20v-222h20q31 0 51 28.5t20 82.5z" />
    <glyph glyph-name="uni20A8" unicode="&#x20a8;" horiz-adv-x="1032" 
d="M266 0h-156q-38 0 -38 31v669h186q136 0 214.5 -67.5t78.5 -185.5q0 -121 -94 -194q15 -43 36 -76q19 -32 53 -32h21q16 -37 16 -78q0 -30 -33.5 -54.5t-78.5 -24.5q-88 0 -136 94q-27 54 -40 114h-29v-196zM976 461q12 -19 12 -34q0 -22 -24 -37q-41 -27 -105 -30
q-13 56 -51 56q-19 0 -29 -10t-10 -24q0 -37 67 -58q158 -51 158 -170q0 -72 -50.5 -119t-151.5 -47q-75 0 -129 29.5t-54 63.5q0 39 26 75q68 -38 131 -38q54 0 54 27q0 14 -11.5 23.5t-42.5 20.5q-90 32 -130.5 77.5t-40.5 114.5q0 73 54 119t141 46q128 0 186 -85z
M266 548v-202h17q33 0 52 25.5t19 75.5t-19 75.5t-52 25.5h-17z" />
    <glyph glyph-name="uni20A9" unicode="&#x20a9;" horiz-adv-x="1132" 
d="M29 457h70l-63 196q35 24 76.5 40.5t68.5 16.5q42 0 53 -38l57 -215h134q27 108 48 243h121q37 0 54 -10t23 -33l51 -200h133q28 115 50 243h113q43 0 61 -17t11 -49q-19 -89 -45 -177h47q25 0 25 -32v-36h-93q-10 -32 -15 -47h83q25 0 25 -32v-36h-132
q-49 -134 -99 -238q-10 -20 -26.5 -28t-50.5 -8h-119l-70 274h-94q-35 -117 -83 -238q-8 -20 -25 -28t-52 -8h-119l-89 274h-109q-27 0 -27 25q0 20 7 43h107l-15 47h-72q-27 0 -27 25q0 20 7 43zM396 342q10 37 13 47h-100l13 -47h74zM824 342q5 15 13 47h-97l12 -47h72z
M573 457q-10 -48 -28 -115h57zM355 219q11 30 20 55h-35zM784 219q17 47 19 55h-34z" />
    <glyph glyph-name="afii57636" unicode="&#x20aa;" horiz-adv-x="1000" 
d="M704 252h-146q-38 0 -38 31v141q0 67 -25 93.5t-81 26.5h-158v-544h-146q-38 0 -38 31v669h347q147 0 216 -67t69 -229v-152zM480 407v-131q0 -67 25 -93.5t81 -26.5h158v544h146q38 0 38 -31v-669h-347q-147 0 -216 67t-69 229v138q63 14 133 14q51 0 51 -41z" />
    <glyph glyph-name="dong" unicode="&#x20ab;" horiz-adv-x="671" 
d="M265 643h140v57h146q38 0 38 -31v-26h36q25 0 25 -32v-56h-61v-383q0 -39 30 -39h27q10 -32 10 -60q0 -30 -32 -55t-80 -25q-41 0 -75.5 22t-51.5 64q-57 -91 -158 -91q-91 0 -155 66t-64 170q0 69 22 124.5t57.5 89t78.5 51t87 17.5q76 0 120 -47v96h-119q-29 0 -29 27
q0 35 8 61zM141 -71h433q25 0 25 -32v-73h-428q-39 0 -39 37q0 36 9 68zM405 204v139q-26 23 -66 23q-46 0 -80.5 -36.5t-34.5 -101.5q0 -46 22 -73t64 -27q30 0 55.5 20t39.5 56z" />
    <glyph glyph-name="Euro" unicode="&#x20ac;" horiz-adv-x="710" 
d="M0 436h49q21 126 112.5 201t222.5 75q99 0 172.5 -38t110.5 -102q11 -19 11 -39q0 -28 -34 -48q-56 -32 -132 -37q-38 108 -131 108q-51 0 -87 -31.5t-49 -88.5h179q25 0 25 -32v-36h-211q0 -27 4 -47h182q25 0 25 -32v-36h-184q59 -109 195 -109q100 0 165 37
q11 -15 20.5 -40.5t9.5 -43.5q0 -37 -73.5 -73t-164.5 -36q-131 0 -228 71.5t-130 193.5h-39q-27 0 -27 25q0 20 7 43h46q-2 15 -2 47h-24q-27 0 -27 25q0 20 7 43z" />
    <glyph glyph-name="afii61248" unicode="&#x2105;" horiz-adv-x="1076" 
d="M433 0h-87q-38 0 -26 30l281 670h87q38 0 26 -30zM409 354q0 -24 -44 -49t-108 -25q-95 0 -160 63.5t-65 164.5q0 89 56.5 146.5t152.5 57.5q59 0 103.5 -22t66.5 -58q8 -13 8 -28q0 -22 -29 -38q-29 -17 -91 -25q-14 63 -60 63q-31 0 -48 -24.5t-17 -70.5
q0 -54 33.5 -87.5t90.5 -33.5q52 0 91 24q20 -30 20 -58zM825 424q91 0 155 -58.5t64 -157.5t-64 -157.5t-155 -58.5q-90 0 -154 58.5t-64 157.5t64 157.5t154 58.5zM829 101q34 0 53 26t19 77q0 52 -21 82t-58 30q-34 0 -53 -26.5t-19 -76.5q0 -53 21 -82.5t58 -29.5z" />
    <glyph glyph-name="uni2109" unicode="&#x2109;" horiz-adv-x="898" 
d="M833 700h-431v-669q0 -31 38 -31h156v237h220v118q0 38 -31 38h-189v151h262q12 62 12 114q0 42 -37 42zM198 504q21 0 33.5 15t12.5 38q0 24 -14 40.5t-36 16.5q-21 0 -33.5 -15t-12.5 -38q0 -24 14 -40.5t36 -16.5zM196 406q-69 0 -114.5 44t-45.5 109t45.5 109
t114.5 44t114.5 -44t45.5 -109t-45.5 -109t-114.5 -44z" />
    <glyph glyph-name="afii61289" unicode="&#x2113;" horiz-adv-x="596" 
d="M49 265q58 20 84 30v196q0 105 60.5 163t157.5 58q90 0 145.5 -53.5t55.5 -141.5q0 -92 -60.5 -172t-175.5 -140v-32q0 -19 9 -29t22 -10q29 0 53 50l90 -39q27 -12 31.5 -27t-14.5 -46q-58 -84 -175 -84q-72 0 -122 40t-68 108q-32 -10 -49 -14q-43 33 -62 74
q-25 54 18 69zM316 513v-126q65 55 65 133q0 46 -32 46q-33 0 -33 -53z" />
    <glyph glyph-name="afii61352" unicode="&#x2116;" horiz-adv-x="956" 
d="M229 674l119 -304v330h136q38 0 38 -31v-632q-58 -47 -110 -47q-32 0 -47 36l-119 304v-330h-136q-38 0 -38 31v632q58 47 110 47q32 0 47 -36zM932 348q0 -90 -53 -144t-134 -54q-80 0 -133 54t-53 144t53 144t133 54q81 0 134 -54t53 -144zM705 350q0 -75 41 -75
q37 0 37 73q0 75 -40 75q-38 0 -38 -73zM916 88v-88h-307q-34 0 -34 39q0 44 12 80h291q38 0 38 -31z" />
    <glyph glyph-name="uni2117" unicode="&#x2117;" horiz-adv-x="824" 
d="M391 158h-86q-35 0 -35 28v352h162q74 0 117 -38t43 -105q0 -62 -44 -99.5t-111 -37.5q-26 0 -46 7v-107zM391 445v-90q9 -3 22 -3q58 0 58 46q0 47 -62 47h-18zM50 350q0 150 106 256t256 106t256 -106t106 -256t-106 -256t-256 -106t-256 106t-106 256zM106 350
q0 -129 89.5 -219.5t216.5 -90.5t216.5 90.5t89.5 219.5q0 128 -89.5 219t-216.5 91t-216.5 -91t-89.5 -219z" />
    <glyph glyph-name="uni2120" unicode="&#x2120;" horiz-adv-x="766" 
d="M158 431q33 0 33 19q0 11 -11.5 19t-47.5 21q-92 33 -92 111q0 48 34 77.5t91 29.5q43 0 75 -16t46 -41q5 -9 5 -20q0 -15 -16 -23q-29 -14 -72 -18q-9 41 -36 41q-21 0 -21 -23q0 -24 48 -40q55 -18 79 -44.5t24 -67.5q0 -46 -33.5 -74t-94.5 -28q-45 0 -81 19t-36 37
q0 24 18 44q38 -23 88 -23zM603 700h76q16 0 18 -14l37 -329h-89q-19 0 -21 17l-16 184l-46 -91q-7 -12 -25 -12h-41l-55 103l-17 -201h-87q-10 0 -14.5 4.5t-3.5 12.5l36 308q37 23 71 23q18 0 26 -16l73 -134z" />
    <glyph glyph-name="uni2121" unicode="&#x2121;" horiz-adv-x="1145" 
d="M47 700h358q31 0 31 -38v-108h-113v-554h-136q-38 0 -38 31v523h-76q-37 0 -37 42q0 63 11 104zM651 134h85q27 0 27 -33v-101h-142q-102 0 -148 46.5t-46 152.5v321h296q32 0 32 -36q0 -46 -10 -98h-152v-58h103q27 0 27 -32v-102h-130q1 -37 13.5 -48.5t44.5 -11.5z
M1121 101v-101h-114q-101 0 -147 46.5t-46 152.5v313q64 14 122 14q44 0 44 -35v-281q0 -48 11.5 -62t46.5 -14h56q27 0 27 -33z" />
    <glyph glyph-name="trademark" unicode="&#x2122;" horiz-adv-x="768" 
d="M605 700h76q16 0 18 -14l37 -329h-89q-19 0 -21 17l-16 184l-46 -91q-7 -12 -25 -12h-41l-55 103l-17 -201h-87q-10 0 -14.5 4.5t-3.5 12.5l36 308q37 23 71 23q18 0 26 -16l73 -134zM291 700h-261q-6 -27 -6 -56q0 -20 18 -20h71v-252q0 -15 18 -15h87v267h88v57
q0 19 -15 19z" />
    <glyph glyph-name="Omega" unicode="&#x2126;" horiz-adv-x="802" 
d="M635 156h78q31 0 31 -38v-118h-317v94q0 22 8 34.5t32 31.5q93 74 93 198q0 91 -43 144.5t-116 53.5t-116 -53.5t-43 -144.5q0 -124 93 -198q24 -19 32 -31.5t8 -34.5v-94h-280q-37 0 -37 42q0 52 12 114h97q-55 38 -87 100t-32 129q0 141 97 234t256 93t256 -93t97 -234
q0 -67 -32 -129t-87 -100z" />
    <glyph glyph-name="estimated" unicode="&#x212e;" horiz-adv-x="782" 
d="M722 316h-459v-228q53 -39 139 -39q144 0 235 82q21 -21 21 -34q0 -15 -31.5 -39.5t-94.5 -47t-133 -22.5q-146 0 -242.5 99t-96.5 263q0 155 89.5 258.5t245.5 103.5q150 0 238.5 -104t88.5 -262v-30zM391 650q-79 0 -128 -28v-245h256v244q-51 29 -128 29z" />
    <glyph glyph-name="onethird" unicode="&#x2153;" horiz-adv-x="984" 
d="M750 162q-19 2 -26.5 5.5t-14.5 15.5q-14 24 -18 54l66 72h-105q-37 0 -37 33q0 31 9 74h244q30 0 41 -20q14 -24 18 -54l-98 -98q50 -8 80 -39.5t30 -77.5q0 -58 -46 -96.5t-125 -38.5q-63 0 -110.5 26t-47.5 51q0 29 18 57q62 -31 122 -31q50 0 50 34q0 28 -50 33z
M305 675v-391h-109q-30 0 -30 25v243l-44 -28q-39 20 -56 45q-11 15 -11 27q0 14 24 29l120 75h76q30 0 30 -25zM409 0h-87q-38 0 -26 30l281 670h87q38 0 26 -30z" />
    <glyph glyph-name="twothirds" unicode="&#x2154;" horiz-adv-x="984" 
d="M369 284h-261q-34 0 -44 25q-10 24 -13 59q75 32 125.5 82.5t50.5 106.5q0 38 -27 38q-29 0 -41 -54q-58 2 -96 19q-24 10 -24 29q0 17 9 37q18 38 58.5 60t94.5 22q76 0 120.5 -41.5t44.5 -110.5q0 -42 -25.5 -87.5t-70.5 -77.5h69q30 0 30 -25v-82zM409 0h-87
q-38 0 -26 30l281 670h87q38 0 26 -30zM750 162q50 -5 50 -33q0 -34 -50 -34q-60 0 -122 31q-18 -28 -18 -57q0 -25 47.5 -51t110.5 -26q79 0 125 38.5t46 96.5q0 46 -30 77.5t-80 39.5l98 98q-4 30 -18 54q-11 20 -41 20h-244q-9 -43 -9 -74q0 -33 37 -33h105l-66 -72
q4 -30 18 -54q7 -12 14.5 -15.5t26.5 -5.5z" />
    <glyph glyph-name="onefifth" unicode="&#x2155;" horiz-adv-x="984" 
d="M754 96q50 0 50 42q0 40 -54 40q-19 0 -46 -5q-14 -3 -27 -3q-14 0 -28 11l-22 18l28 218h243q30 0 30 -25v-77h-153l-7 -47q20 6 43 6q58 0 94.5 -34.5t36.5 -97.5q0 -66 -46 -107.5t-126 -41.5q-63 0 -109.5 25.5t-46.5 51.5q0 28 22 57q62 -31 118 -31zM305 675v-391
h-109q-30 0 -30 25v243l-44 -28q-39 20 -56 45q-11 15 -11 27q0 14 24 29l120 75h76q30 0 30 -25zM409 0h-87q-38 0 -26 30l281 670h87q38 0 26 -30z" />
    <glyph glyph-name="twofifths" unicode="&#x2156;" horiz-adv-x="984" 
d="M369 284h-261q-34 0 -44 25q-10 24 -13 59q75 32 125.5 82.5t50.5 106.5q0 38 -27 38q-29 0 -41 -54q-58 2 -96 19q-24 10 -24 29q0 17 9 37q18 38 58.5 60t94.5 22q76 0 120.5 -41.5t44.5 -110.5q0 -42 -25.5 -87.5t-70.5 -77.5h69q30 0 30 -25v-82zM409 0h-87
q-38 0 -26 30l281 670h87q38 0 26 -30zM754 96q50 0 50 42q0 40 -54 40q-19 0 -46 -5q-14 -3 -27 -3q-14 0 -28 11l-22 18l28 218h243q30 0 30 -25v-77h-153l-7 -47q20 6 43 6q58 0 94.5 -34.5t36.5 -97.5q0 -66 -46 -107.5t-126 -41.5q-63 0 -109.5 25.5t-46.5 51.5
q0 28 22 57q62 -31 118 -31z" />
    <glyph glyph-name="threefifths" unicode="&#x2157;" horiz-adv-x="984" 
d="M178 446q-19 2 -26.5 5.5t-14.5 15.5q-14 24 -18 54l66 72h-105q-37 0 -37 33q0 31 9 74h244q30 0 41 -20q14 -24 18 -54l-98 -98q50 -8 80 -39.5t30 -77.5q0 -58 -46 -96.5t-125 -38.5q-63 0 -110.5 26t-47.5 51q0 29 18 57q62 -31 122 -31q50 0 50 34q0 28 -50 33z
M409 0h-87q-38 0 -26 30l281 670h87q38 0 26 -30zM754 96q50 0 50 42q0 40 -54 40q-19 0 -46 -5q-14 -3 -27 -3q-14 0 -28 11l-22 18l28 218h243q30 0 30 -25v-77h-153l-7 -47q20 6 43 6q58 0 94.5 -34.5t36.5 -97.5q0 -66 -46 -107.5t-126 -41.5q-63 0 -109.5 25.5
t-46.5 51.5q0 28 22 57q62 -31 118 -31z" />
    <glyph glyph-name="fourfifths" unicode="&#x2158;" horiz-adv-x="984" 
d="M213 446v114q-20 -20 -41 -54t-30 -60h71zM343 446h19q30 0 30 -25v-71h-49v-66h-99q-30 0 -30 25v41h-135q-19 0 -28 5t-16 20q-10 26 -13 59q18 68 69.5 139t109.5 113q47 19 103 19q39 0 39 -29v-230zM409 0h-87q-38 0 -26 30l281 670h87q38 0 26 -30zM754 96
q50 0 50 42q0 40 -54 40q-19 0 -46 -5q-14 -3 -27 -3q-14 0 -28 11l-22 18l28 218h243q30 0 30 -25v-77h-153l-7 -47q20 6 43 6q58 0 94.5 -34.5t36.5 -97.5q0 -66 -46 -107.5t-126 -41.5q-63 0 -109.5 25.5t-46.5 51.5q0 28 22 57q62 -31 118 -31z" />
    <glyph glyph-name="onesixth" unicode="&#x2159;" horiz-adv-x="984" 
d="M824 279q-11 36 -38 36q-19 0 -31.5 -17.5t-12.5 -54.5q23 17 74 17q61 0 101.5 -36t40.5 -93q0 -60 -46.5 -99.5t-121.5 -39.5q-85 0 -138 57.5t-53 149.5v7q0 102 50.5 160t133.5 58q95 0 142 -63q11 -15 11 -27t-5 -18t-19 -14q-29 -17 -88 -23zM777 166q-16 0 -36 -8
q2 -31 17 -49t33 -18q38 0 38 35q0 40 -52 40zM305 675v-391h-109q-30 0 -30 25v243l-44 -28q-39 20 -56 45q-11 15 -11 27q0 14 24 29l120 75h76q30 0 30 -25zM409 0h-87q-38 0 -26 30l281 670h87q38 0 26 -30z" />
    <glyph glyph-name="fivesixths" unicode="&#x215a;" horiz-adv-x="984" 
d="M182 379q50 0 50 42q0 40 -54 40q-19 0 -46 -5q-14 -3 -27 -3q-14 0 -28 11l-22 18l28 218h243q30 0 30 -25v-77h-153l-7 -47q20 6 43 6q58 0 94.5 -34.5t36.5 -97.5q0 -66 -46 -107.5t-126 -41.5q-63 0 -109.5 25.5t-46.5 51.5q0 28 22 57q62 -31 118 -31zM409 0h-87
q-38 0 -26 30l281 670h87q38 0 26 -30zM824 279q-11 36 -38 36q-19 0 -31.5 -17.5t-12.5 -54.5q23 17 74 17q61 0 101.5 -36t40.5 -93q0 -60 -46.5 -99.5t-121.5 -39.5q-85 0 -138 57.5t-53 149.5v7q0 102 50.5 160t133.5 58q95 0 142 -63q11 -15 11 -27t-5 -18t-19 -14
q-29 -17 -88 -23zM777 166q-16 0 -36 -8q2 -31 17 -49t33 -18q38 0 38 35q0 40 -52 40z" />
    <glyph glyph-name="oneeighth" unicode="&#x215b;" horiz-adv-x="984" 
d="M305 675v-391h-109q-30 0 -30 25v243l-44 -28q-39 20 -56 45q-11 15 -11 27q0 14 24 29l120 75h76q30 0 30 -25zM409 0h-87q-38 0 -26 30l281 670h87q38 0 26 -30zM938 308q0 -58 -59 -85q43 -22 61.5 -44.5t18.5 -57.5q0 -59 -50 -94t-129 -35q-81 0 -132 35t-51 89
q0 60 67 93q-51 37 -51 91q0 53 43.5 89t119.5 36q74 0 118 -33.5t44 -83.5zM814 115q0 12 -11.5 20.5t-45.5 24.5q-20 -20 -20 -42q0 -13 11.5 -21.5t28.5 -8.5t27 8t10 19zM748 306q0 -12 8 -21t31 -21q17 20 17 39q0 26 -28 26q-12 0 -20 -6.5t-8 -16.5z" />
    <glyph glyph-name="threeeighths" unicode="&#x215c;" horiz-adv-x="984" 
d="M178 446q-19 2 -26.5 5.5t-14.5 15.5q-14 24 -18 54l66 72h-105q-37 0 -37 33q0 31 9 74h244q30 0 41 -20q14 -24 18 -54l-98 -98q50 -8 80 -39.5t30 -77.5q0 -58 -46 -96.5t-125 -38.5q-63 0 -110.5 26t-47.5 51q0 29 18 57q62 -31 122 -31q50 0 50 34q0 28 -50 33z
M409 0h-87q-38 0 -26 30l281 670h87q38 0 26 -30zM938 308q0 -58 -59 -85q43 -22 61.5 -44.5t18.5 -57.5q0 -59 -50 -94t-129 -35q-81 0 -132 35t-51 89q0 60 67 93q-51 37 -51 91q0 53 43.5 89t119.5 36q74 0 118 -33.5t44 -83.5zM814 115q0 12 -11.5 20.5t-45.5 24.5
q-20 -20 -20 -42q0 -13 11.5 -21.5t28.5 -8.5t27 8t10 19zM748 306q0 -12 8 -21t31 -21q17 20 17 39q0 26 -28 26q-12 0 -20 -6.5t-8 -16.5z" />
    <glyph glyph-name="fiveeighths" unicode="&#x215d;" horiz-adv-x="984" 
d="M182 379q50 0 50 42q0 40 -54 40q-19 0 -46 -5q-14 -3 -27 -3q-14 0 -28 11l-22 18l28 218h243q30 0 30 -25v-77h-153l-7 -47q20 6 43 6q58 0 94.5 -34.5t36.5 -97.5q0 -66 -46 -107.5t-126 -41.5q-63 0 -109.5 25.5t-46.5 51.5q0 28 22 57q62 -31 118 -31zM409 0h-87
q-38 0 -26 30l281 670h87q38 0 26 -30zM938 308q0 -58 -59 -85q43 -22 61.5 -44.5t18.5 -57.5q0 -59 -50 -94t-129 -35q-81 0 -132 35t-51 89q0 60 67 93q-51 37 -51 91q0 53 43.5 89t119.5 36q74 0 118 -33.5t44 -83.5zM814 115q0 12 -11.5 20.5t-45.5 24.5
q-20 -20 -20 -42q0 -13 11.5 -21.5t28.5 -8.5t27 8t10 19zM748 306q0 -12 8 -21t31 -21q17 20 17 39q0 26 -28 26q-12 0 -20 -6.5t-8 -16.5z" />
    <glyph glyph-name="seveneighths" unicode="&#x215e;" horiz-adv-x="984" 
d="M373 616q-95 -159 -135 -332h-108q-25 0 -31 11t1 31q39 142 115 267h-145q-33 0 -33 33q0 32 7 74h269q19 0 28 -5t16 -20q13 -28 16 -59zM409 0h-87q-38 0 -26 30l281 670h87q38 0 26 -30zM938 308q0 -58 -59 -85q43 -22 61.5 -44.5t18.5 -57.5q0 -59 -50 -94t-129 -35
q-81 0 -132 35t-51 89q0 60 67 93q-51 37 -51 91q0 53 43.5 89t119.5 36q74 0 118 -33.5t44 -83.5zM814 115q0 12 -11.5 20.5t-45.5 24.5q-20 -20 -20 -42q0 -13 11.5 -21.5t28.5 -8.5t27 8t10 19zM748 306q0 -12 8 -21t31 -21q17 20 17 39q0 26 -28 26q-12 0 -20 -6.5
t-8 -16.5z" />
    <glyph glyph-name="uni215F" unicode="&#x215f;" horiz-adv-x="984" 
d="M305 675v-391h-109q-30 0 -30 25v243l-44 -28q-39 20 -56 45q-11 15 -11 27q0 14 24 29l120 75h76q30 0 30 -25zM409 0h-87q-38 0 -26 30l281 670h87q38 0 26 -30z" />
    <glyph glyph-name="arrowleft" unicode="&#x2190;" horiz-adv-x="800" 
d="M288 157l-248 169q-6 3 -6 6t6 6l248 169v-107h453q25 0 25 -32v-104h-478v-107z" />
    <glyph glyph-name="arrowup" unicode="&#x2191;" horiz-adv-x="800" 
d="M406 714l164 -248h-107v-479h-94q-32 0 -32 25v454h-107l164 248q3 6 6 6t6 -6z" />
    <glyph glyph-name="arrowright" unicode="&#x2192;" horiz-adv-x="800" 
d="M45 400h467v107l248 -169q6 -3 6 -6t-6 -6l-248 -169v107h-448q-17 0 -23.5 8t-6.5 31q0 46 11 97z" />
    <glyph glyph-name="arrowdown" unicode="&#x2193;" horiz-adv-x="800" 
d="M463 688v-447h107l-164 -248q-3 -6 -6 -6t-6 6l-164 248h107v469q37 10 84 10q42 0 42 -32z" />
    <glyph glyph-name="arrowboth" unicode="&#x2194;" horiz-adv-x="800" 
d="M288 400h224v107l248 -169q6 -3 6 -6t-6 -6l-248 -169v107h-224v-107l-248 169q-6 3 -6 6t6 6l248 169v-107z" />
    <glyph glyph-name="arrowupdn" unicode="&#x2195;" horiz-adv-x="800" 
d="M463 466v-225h107l-164 -248q-3 -6 -6 -6t-6 6l-164 248h107v225h-107l164 248q3 6 6 6t6 -6l164 -248h-107z" />
    <glyph glyph-name="arrowupdnbse" unicode="&#x21a8;" horiz-adv-x="800" 
d="M557 -32v-79h-286q-28 0 -28 34q0 40 8 77h138l-159 241h107v225h-107l164 248q3 6 6 6t6 -6l164 -248h-107v-225h107l-160 -241h122q25 0 25 -32z" />
    <glyph glyph-name="partialdiff" unicode="&#x2202;" horiz-adv-x="663" 
d="M223 485q-71 7 -126 38q-31 18 -31 48q0 19 14 41q31 46 90.5 73t133.5 27q145 0 228 -96.5t83 -267.5v-16q0 -156 -88.5 -250t-221.5 -94q-123 0 -195 64t-72 169q0 98 71.5 163.5t175.5 65.5q85 0 133 -42q-8 75 -38.5 111t-74.5 36q-28 0 -50.5 -18t-31.5 -52z
M330 305q-44 0 -71 -23.5t-27 -63.5q0 -34 21 -54t52 -20q44 0 75.5 36.5t38.5 100.5q-36 24 -89 24z" />
    <glyph glyph-name="Delta" unicode="&#x2206;" horiz-adv-x="710" 
d="M355 456l-93 -300h186zM701 0h-649q-18 0 -26.5 9.5t-3.5 25.5l233 645q64 27 131 27q35 0 51 -11t27 -41z" />
    <glyph glyph-name="product" unicode="&#x220f;" horiz-adv-x="729" 
d="M657 709v-820h-156q-38 0 -38 31v664h-197v-695h-156q-38 0 -38 31v820h547q38 0 38 -31z" />
    <glyph glyph-name="summation" unicode="&#x2211;" horiz-adv-x="640" 
d="M616 702v-118h-354l160 -224v-25q0 -24 -13 -46l-151 -244h327q31 0 31 -38v-118h-543q-31 0 -31 38v91l201 311l-211 294q11 50 34 87q19 30 59 30h460q31 0 31 -38z" />
    <glyph glyph-name="minus" unicode="&#x2212;" horiz-adv-x="626" 
d="M562 265h-461q-37 0 -37 39q0 50 13 95h447q38 0 38 -31v-103z" />
    <glyph glyph-name="uni2215" unicode="&#x2215;" horiz-adv-x="210" 
d="M21 0h-87q-38 0 -26 30l281 670h87q38 0 26 -30z" />
    <glyph glyph-name="uni2219" unicode="&#x2219;" horiz-adv-x="340" 
d="M167 428q39 0 68 -27.5t29 -72.5q0 -42 -25.5 -67t-65.5 -25q-39 0 -68 27.5t-29 72.5q0 42 25.5 67t65.5 25z" />
    <glyph glyph-name="radical" unicode="&#x221a;" horiz-adv-x="608" 
d="M116 272h-50q-34 0 -34 38q0 44 11 105h151q29 0 40.5 -7t18.5 -28l43 -129l101 519h133q23 0 32 -9.5t3 -37.5l-138 -678q-9 -45 -54 -45h-147z" />
    <glyph glyph-name="infinity" unicode="&#x221e;" horiz-adv-x="788" 
d="M488 332q30 -34 60 -34q15 0 25.5 9.5t10.5 24.5t-10.5 24.5t-25.5 9.5q-30 0 -60 -34zM728 332q0 -69 -49 -114.5t-119 -45.5q-93 0 -166 78q-73 -78 -166 -78q-70 0 -119 45.5t-49 114.5t49 114.5t119 45.5q93 0 166 -78q73 78 166 78q70 0 119 -45.5t49 -114.5z
M300 332q-30 34 -60 34q-15 0 -25.5 -9.5t-10.5 -24.5t10.5 -24.5t25.5 -9.5q30 0 60 34z" />
    <glyph glyph-name="orthogonal" unicode="&#x221f;" horiz-adv-x="647" 
d="M72 244v322q68 16 143 16q51 0 51 -41v-284q0 -57 14 -79t53 -22h267q31 0 31 -38v-118h-333q-117 0 -171.5 59.5t-54.5 184.5z" />
    <glyph glyph-name="intersection" unicode="&#x2229;" horiz-adv-x="756" 
d="M490 31v302q0 63 -32 97.5t-80 34.5q-49 0 -80.5 -34.5t-31.5 -97.5v-333h-156q-38 0 -38 31v284q0 140 84 221t222 81q137 0 221.5 -81t84.5 -221v-315h-156q-38 0 -38 31z" />
    <glyph glyph-name="integral" unicode="&#x222b;" horiz-adv-x="554" 
d="M369 556v-631q0 -84 -47 -128t-135 -44q-68 0 -119.5 25.5t-51.5 52.5q0 39 26 71q32 -14 81 -14q62 0 62 51v631q0 84 47 128t135 44q68 0 119.5 -25.5t51.5 -52.5q0 -38 -26 -71q-32 14 -81 14q-62 0 -62 -51z" />
    <glyph glyph-name="approxequal" unicode="&#x2248;" horiz-adv-x="626" 
d="M422 347q-68 0 -121 41q-34 26 -47.5 34t-27.5 8q-39 0 -45 -78q-50 -6 -97 13q-33 14 -33 45q0 16 6 40q14 52 52 83t94 31q68 0 121 -41q34 -26 47.5 -34t27.5 -8q39 0 45 78l103 -21q16 -4 21.5 -10.5t5.5 -19.5q-2 -70 -42.5 -115.5t-109.5 -45.5zM422 100
q-68 0 -121 41q-34 26 -47.5 34t-27.5 8q-39 0 -45 -78q-50 -6 -97 13q-33 14 -33 45q0 16 6 40q14 52 52 83t94 31q68 0 121 -41q34 -26 47.5 -34t27.5 -8q39 0 45 78l103 -21q16 -4 21.5 -10.5t5.5 -19.5q-2 -70 -42.5 -115.5t-109.5 -45.5z" />
    <glyph glyph-name="notequal" unicode="&#x2260;" horiz-adv-x="626" 
d="M207 39h-52q-38 0 -24 27l40 79h-70q-37 0 -37 39q0 50 13 95h163l55 106h-194q-37 0 -37 39q0 50 13 95h287l55 106h52q38 0 24 -27l-41 -79h70q38 0 38 -31v-103h-177l-55 -106h194q38 0 38 -31v-103h-301z" />
    <glyph glyph-name="equivalence" unicode="&#x2261;" horiz-adv-x="626" 
d="M562 455h-461q-37 0 -37 39q0 50 13 95h447q38 0 38 -31v-103zM562 75h-461q-37 0 -37 39q0 50 13 95h447q38 0 38 -31v-103zM562 265h-461q-37 0 -37 39q0 50 13 95h447q38 0 38 -31v-103z" />
    </font>
</defs>
</svg>
